<?xml version="1.0" encoding="utf-8" standalone="no"?>
<!DOCTYPE svg PUBLIC "-//W3C//DTD SVG 1.1//EN"
  "http://www.w3.org/Graphics/SVG/1.1/DTD/svg11.dtd">
<svg xmlns:xlink="http://www.w3.org/1999/xlink" width="447.98125pt" height="331.617812pt" viewBox="0 0 447.98125 331.617812" xmlns="http://www.w3.org/2000/svg" version="1.1">
 <metadata>
  <rdf:RDF xmlns:dc="http://purl.org/dc/elements/1.1/" xmlns:cc="http://creativecommons.org/ns#" xmlns:rdf="http://www.w3.org/1999/02/22-rdf-syntax-ns#">
   <cc:Work>
    <dc:type rdf:resource="http://purl.org/dc/dcmitype/StillImage"/>
    <dc:date>2024-10-22T16:20:15.889627</dc:date>
    <dc:format>image/svg+xml</dc:format>
    <dc:creator>
     <cc:Agent>
      <dc:title>Matplotlib v3.9.2, https://matplotlib.org/</dc:title>
     </cc:Agent>
    </dc:creator>
   </cc:Work>
  </rdf:RDF>
 </metadata>
 <defs>
  <style type="text/css">*{stroke-linejoin: round; stroke-linecap: butt}</style>
 </defs>
 <g id="figure_1">
  <g id="patch_1">
   <path d="M 0 331.617812 
L 447.98125 331.617812 
L 447.98125 0 
L 0 0 
L 0 331.617812 
z
" style="fill: none"/>
  </g>
  <g id="axes_1">
   <g id="patch_2">
    <path d="M 46.31125 288.658125 
L 440.78125 288.658125 
L 440.78125 22.318125 
L 46.31125 22.318125 
L 46.31125 288.658125 
z
" style="fill: none"/>
   </g>
   <g id="matplotlib.axis_1">
    <g id="xtick_1">
     <g id="text_1">
      <!-- 3.11 -->
      <g style="fill: #262626" transform="translate(99.810156 306.516406) scale(0.11 -0.11)">
       <defs>
        <path id="DejaVuSans-33" d="M 2597 2516 
Q 3050 2419 3304 2112 
Q 3559 1806 3559 1356 
Q 3559 666 3084 287 
Q 2609 -91 1734 -91 
Q 1441 -91 1130 -33 
Q 819 25 488 141 
L 488 750 
Q 750 597 1062 519 
Q 1375 441 1716 441 
Q 2309 441 2620 675 
Q 2931 909 2931 1356 
Q 2931 1769 2642 2001 
Q 2353 2234 1838 2234 
L 1294 2234 
L 1294 2753 
L 1863 2753 
Q 2328 2753 2575 2939 
Q 2822 3125 2822 3475 
Q 2822 3834 2567 4026 
Q 2313 4219 1838 4219 
Q 1578 4219 1281 4162 
Q 984 4106 628 3988 
L 628 4550 
Q 988 4650 1302 4700 
Q 1616 4750 1894 4750 
Q 2613 4750 3031 4423 
Q 3450 4097 3450 3541 
Q 3450 3153 3228 2886 
Q 3006 2619 2597 2516 
z
" transform="scale(0.015625)"/>
        <path id="DejaVuSans-2e" d="M 684 794 
L 1344 794 
L 1344 0 
L 684 0 
L 684 794 
z
" transform="scale(0.015625)"/>
        <path id="DejaVuSans-31" d="M 794 531 
L 1825 531 
L 1825 4091 
L 703 3866 
L 703 4441 
L 1819 4666 
L 2450 4666 
L 2450 531 
L 3481 531 
L 3481 0 
L 794 0 
L 794 531 
z
" transform="scale(0.015625)"/>
       </defs>
       <use xlink:href="#DejaVuSans-33"/>
       <use xlink:href="#DejaVuSans-2e" x="63.623047"/>
       <use xlink:href="#DejaVuSans-31" x="95.410156"/>
       <use xlink:href="#DejaVuSans-31" x="159.033203"/>
      </g>
     </g>
    </g>
    <g id="xtick_2">
     <g id="text_2">
      <!-- 3.12 -->
      <g style="fill: #262626" transform="translate(231.300156 306.516406) scale(0.11 -0.11)">
       <defs>
        <path id="DejaVuSans-32" d="M 1228 531 
L 3431 531 
L 3431 0 
L 469 0 
L 469 531 
Q 828 903 1448 1529 
Q 2069 2156 2228 2338 
Q 2531 2678 2651 2914 
Q 2772 3150 2772 3378 
Q 2772 3750 2511 3984 
Q 2250 4219 1831 4219 
Q 1534 4219 1204 4116 
Q 875 4013 500 3803 
L 500 4441 
Q 881 4594 1212 4672 
Q 1544 4750 1819 4750 
Q 2544 4750 2975 4387 
Q 3406 4025 3406 3419 
Q 3406 3131 3298 2873 
Q 3191 2616 2906 2266 
Q 2828 2175 2409 1742 
Q 1991 1309 1228 531 
z
" transform="scale(0.015625)"/>
       </defs>
       <use xlink:href="#DejaVuSans-33"/>
       <use xlink:href="#DejaVuSans-2e" x="63.623047"/>
       <use xlink:href="#DejaVuSans-31" x="95.410156"/>
       <use xlink:href="#DejaVuSans-32" x="159.033203"/>
      </g>
     </g>
    </g>
    <g id="xtick_3">
     <g id="text_3">
      <!-- 3.13 -->
      <g style="fill: #262626" transform="translate(362.790156 306.516406) scale(0.11 -0.11)">
       <use xlink:href="#DejaVuSans-33"/>
       <use xlink:href="#DejaVuSans-2e" x="63.623047"/>
       <use xlink:href="#DejaVuSans-31" x="95.410156"/>
       <use xlink:href="#DejaVuSans-33" x="159.033203"/>
      </g>
     </g>
    </g>
    <g id="text_4">
     <!-- Python Version -->
     <g style="fill: #262626" transform="translate(198.777813 321.922187) scale(0.12 -0.12)">
      <defs>
       <path id="DejaVuSans-50" d="M 1259 4147 
L 1259 2394 
L 2053 2394 
Q 2494 2394 2734 2622 
Q 2975 2850 2975 3272 
Q 2975 3691 2734 3919 
Q 2494 4147 2053 4147 
L 1259 4147 
z
M 628 4666 
L 2053 4666 
Q 2838 4666 3239 4311 
Q 3641 3956 3641 3272 
Q 3641 2581 3239 2228 
Q 2838 1875 2053 1875 
L 1259 1875 
L 1259 0 
L 628 0 
L 628 4666 
z
" transform="scale(0.015625)"/>
       <path id="DejaVuSans-79" d="M 2059 -325 
Q 1816 -950 1584 -1140 
Q 1353 -1331 966 -1331 
L 506 -1331 
L 506 -850 
L 844 -850 
Q 1081 -850 1212 -737 
Q 1344 -625 1503 -206 
L 1606 56 
L 191 3500 
L 800 3500 
L 1894 763 
L 2988 3500 
L 3597 3500 
L 2059 -325 
z
" transform="scale(0.015625)"/>
       <path id="DejaVuSans-74" d="M 1172 4494 
L 1172 3500 
L 2356 3500 
L 2356 3053 
L 1172 3053 
L 1172 1153 
Q 1172 725 1289 603 
Q 1406 481 1766 481 
L 2356 481 
L 2356 0 
L 1766 0 
Q 1100 0 847 248 
Q 594 497 594 1153 
L 594 3053 
L 172 3053 
L 172 3500 
L 594 3500 
L 594 4494 
L 1172 4494 
z
" transform="scale(0.015625)"/>
       <path id="DejaVuSans-68" d="M 3513 2113 
L 3513 0 
L 2938 0 
L 2938 2094 
Q 2938 2591 2744 2837 
Q 2550 3084 2163 3084 
Q 1697 3084 1428 2787 
Q 1159 2491 1159 1978 
L 1159 0 
L 581 0 
L 581 4863 
L 1159 4863 
L 1159 2956 
Q 1366 3272 1645 3428 
Q 1925 3584 2291 3584 
Q 2894 3584 3203 3211 
Q 3513 2838 3513 2113 
z
" transform="scale(0.015625)"/>
       <path id="DejaVuSans-6f" d="M 1959 3097 
Q 1497 3097 1228 2736 
Q 959 2375 959 1747 
Q 959 1119 1226 758 
Q 1494 397 1959 397 
Q 2419 397 2687 759 
Q 2956 1122 2956 1747 
Q 2956 2369 2687 2733 
Q 2419 3097 1959 3097 
z
M 1959 3584 
Q 2709 3584 3137 3096 
Q 3566 2609 3566 1747 
Q 3566 888 3137 398 
Q 2709 -91 1959 -91 
Q 1206 -91 779 398 
Q 353 888 353 1747 
Q 353 2609 779 3096 
Q 1206 3584 1959 3584 
z
" transform="scale(0.015625)"/>
       <path id="DejaVuSans-6e" d="M 3513 2113 
L 3513 0 
L 2938 0 
L 2938 2094 
Q 2938 2591 2744 2837 
Q 2550 3084 2163 3084 
Q 1697 3084 1428 2787 
Q 1159 2491 1159 1978 
L 1159 0 
L 581 0 
L 581 3500 
L 1159 3500 
L 1159 2956 
Q 1366 3272 1645 3428 
Q 1925 3584 2291 3584 
Q 2894 3584 3203 3211 
Q 3513 2838 3513 2113 
z
" transform="scale(0.015625)"/>
       <path id="DejaVuSans-20" transform="scale(0.015625)"/>
       <path id="DejaVuSans-56" d="M 1831 0 
L 50 4666 
L 709 4666 
L 2188 738 
L 3669 4666 
L 4325 4666 
L 2547 0 
L 1831 0 
z
" transform="scale(0.015625)"/>
       <path id="DejaVuSans-65" d="M 3597 1894 
L 3597 1613 
L 953 1613 
Q 991 1019 1311 708 
Q 1631 397 2203 397 
Q 2534 397 2845 478 
Q 3156 559 3463 722 
L 3463 178 
Q 3153 47 2828 -22 
Q 2503 -91 2169 -91 
Q 1331 -91 842 396 
Q 353 884 353 1716 
Q 353 2575 817 3079 
Q 1281 3584 2069 3584 
Q 2775 3584 3186 3129 
Q 3597 2675 3597 1894 
z
M 3022 2063 
Q 3016 2534 2758 2815 
Q 2500 3097 2075 3097 
Q 1594 3097 1305 2825 
Q 1016 2553 972 2059 
L 3022 2063 
z
" transform="scale(0.015625)"/>
       <path id="DejaVuSans-72" d="M 2631 2963 
Q 2534 3019 2420 3045 
Q 2306 3072 2169 3072 
Q 1681 3072 1420 2755 
Q 1159 2438 1159 1844 
L 1159 0 
L 581 0 
L 581 3500 
L 1159 3500 
L 1159 2956 
Q 1341 3275 1631 3429 
Q 1922 3584 2338 3584 
Q 2397 3584 2469 3576 
Q 2541 3569 2628 3553 
L 2631 2963 
z
" transform="scale(0.015625)"/>
       <path id="DejaVuSans-73" d="M 2834 3397 
L 2834 2853 
Q 2591 2978 2328 3040 
Q 2066 3103 1784 3103 
Q 1356 3103 1142 2972 
Q 928 2841 928 2578 
Q 928 2378 1081 2264 
Q 1234 2150 1697 2047 
L 1894 2003 
Q 2506 1872 2764 1633 
Q 3022 1394 3022 966 
Q 3022 478 2636 193 
Q 2250 -91 1575 -91 
Q 1294 -91 989 -36 
Q 684 19 347 128 
L 347 722 
Q 666 556 975 473 
Q 1284 391 1588 391 
Q 1994 391 2212 530 
Q 2431 669 2431 922 
Q 2431 1156 2273 1281 
Q 2116 1406 1581 1522 
L 1381 1569 
Q 847 1681 609 1914 
Q 372 2147 372 2553 
Q 372 3047 722 3315 
Q 1072 3584 1716 3584 
Q 2034 3584 2315 3537 
Q 2597 3491 2834 3397 
z
" transform="scale(0.015625)"/>
       <path id="DejaVuSans-69" d="M 603 3500 
L 1178 3500 
L 1178 0 
L 603 0 
L 603 3500 
z
M 603 4863 
L 1178 4863 
L 1178 4134 
L 603 4134 
L 603 4863 
z
" transform="scale(0.015625)"/>
      </defs>
      <use xlink:href="#DejaVuSans-50"/>
      <use xlink:href="#DejaVuSans-79" x="60.302734"/>
      <use xlink:href="#DejaVuSans-74" x="119.482422"/>
      <use xlink:href="#DejaVuSans-68" x="158.691406"/>
      <use xlink:href="#DejaVuSans-6f" x="222.070312"/>
      <use xlink:href="#DejaVuSans-6e" x="283.251953"/>
      <use xlink:href="#DejaVuSans-20" x="346.630859"/>
      <use xlink:href="#DejaVuSans-56" x="378.417969"/>
      <use xlink:href="#DejaVuSans-65" x="439.076172"/>
      <use xlink:href="#DejaVuSans-72" x="500.599609"/>
      <use xlink:href="#DejaVuSans-73" x="541.712891"/>
      <use xlink:href="#DejaVuSans-69" x="593.8125"/>
      <use xlink:href="#DejaVuSans-6f" x="621.595703"/>
      <use xlink:href="#DejaVuSans-6e" x="682.777344"/>
     </g>
    </g>
   </g>
   <g id="matplotlib.axis_2">
    <g id="ytick_1">
     <g id="text_5">
      <!-- 0 -->
      <g style="fill: #262626" transform="translate(29.8125 292.837266) scale(0.11 -0.11)">
       <defs>
        <path id="DejaVuSans-30" d="M 2034 4250 
Q 1547 4250 1301 3770 
Q 1056 3291 1056 2328 
Q 1056 1369 1301 889 
Q 1547 409 2034 409 
Q 2525 409 2770 889 
Q 3016 1369 3016 2328 
Q 3016 3291 2770 3770 
Q 2525 4250 2034 4250 
z
M 2034 4750 
Q 2819 4750 3233 4129 
Q 3647 3509 3647 2328 
Q 3647 1150 3233 529 
Q 2819 -91 2034 -91 
Q 1250 -91 836 529 
Q 422 1150 422 2328 
Q 422 3509 836 4129 
Q 1250 4750 2034 4750 
z
" transform="scale(0.015625)"/>
       </defs>
       <use xlink:href="#DejaVuSans-30"/>
      </g>
     </g>
    </g>
    <g id="ytick_2">
     <g id="text_6">
      <!-- 5 -->
      <g style="fill: #262626" transform="translate(29.8125 252.909685) scale(0.11 -0.11)">
       <defs>
        <path id="DejaVuSans-35" d="M 691 4666 
L 3169 4666 
L 3169 4134 
L 1269 4134 
L 1269 2991 
Q 1406 3038 1543 3061 
Q 1681 3084 1819 3084 
Q 2600 3084 3056 2656 
Q 3513 2228 3513 1497 
Q 3513 744 3044 326 
Q 2575 -91 1722 -91 
Q 1428 -91 1123 -41 
Q 819 9 494 109 
L 494 744 
Q 775 591 1075 516 
Q 1375 441 1709 441 
Q 2250 441 2565 725 
Q 2881 1009 2881 1497 
Q 2881 1984 2565 2268 
Q 2250 2553 1709 2553 
Q 1456 2553 1204 2497 
Q 953 2441 691 2322 
L 691 4666 
z
" transform="scale(0.015625)"/>
       </defs>
       <use xlink:href="#DejaVuSans-35"/>
      </g>
     </g>
    </g>
    <g id="ytick_3">
     <g id="text_7">
      <!-- 10 -->
      <g style="fill: #262626" transform="translate(22.81375 212.982105) scale(0.11 -0.11)">
       <use xlink:href="#DejaVuSans-31"/>
       <use xlink:href="#DejaVuSans-30" x="63.623047"/>
      </g>
     </g>
    </g>
    <g id="ytick_4">
     <g id="text_8">
      <!-- 15 -->
      <g style="fill: #262626" transform="translate(22.81375 173.054525) scale(0.11 -0.11)">
       <use xlink:href="#DejaVuSans-31"/>
       <use xlink:href="#DejaVuSans-35" x="63.623047"/>
      </g>
     </g>
    </g>
    <g id="ytick_5">
     <g id="text_9">
      <!-- 20 -->
      <g style="fill: #262626" transform="translate(22.81375 133.126945) scale(0.11 -0.11)">
       <use xlink:href="#DejaVuSans-32"/>
       <use xlink:href="#DejaVuSans-30" x="63.623047"/>
      </g>
     </g>
    </g>
    <g id="ytick_6">
     <g id="text_10">
      <!-- 25 -->
      <g style="fill: #262626" transform="translate(22.81375 93.199365) scale(0.11 -0.11)">
       <use xlink:href="#DejaVuSans-32"/>
       <use xlink:href="#DejaVuSans-35" x="63.623047"/>
      </g>
     </g>
    </g>
    <g id="ytick_7">
     <g id="text_11">
      <!-- 30 -->
      <g style="fill: #262626" transform="translate(22.81375 53.271785) scale(0.11 -0.11)">
       <use xlink:href="#DejaVuSans-33"/>
       <use xlink:href="#DejaVuSans-30" x="63.623047"/>
      </g>
     </g>
    </g>
    <g id="text_12">
     <!-- Time (s) -->
     <g style="fill: #262626" transform="translate(16.318125 179.882812) rotate(-90) scale(0.12 -0.12)">
      <defs>
       <path id="DejaVuSans-54" d="M -19 4666 
L 3928 4666 
L 3928 4134 
L 2272 4134 
L 2272 0 
L 1638 0 
L 1638 4134 
L -19 4134 
L -19 4666 
z
" transform="scale(0.015625)"/>
       <path id="DejaVuSans-6d" d="M 3328 2828 
Q 3544 3216 3844 3400 
Q 4144 3584 4550 3584 
Q 5097 3584 5394 3201 
Q 5691 2819 5691 2113 
L 5691 0 
L 5113 0 
L 5113 2094 
Q 5113 2597 4934 2840 
Q 4756 3084 4391 3084 
Q 3944 3084 3684 2787 
Q 3425 2491 3425 1978 
L 3425 0 
L 2847 0 
L 2847 2094 
Q 2847 2600 2669 2842 
Q 2491 3084 2119 3084 
Q 1678 3084 1418 2786 
Q 1159 2488 1159 1978 
L 1159 0 
L 581 0 
L 581 3500 
L 1159 3500 
L 1159 2956 
Q 1356 3278 1631 3431 
Q 1906 3584 2284 3584 
Q 2666 3584 2933 3390 
Q 3200 3197 3328 2828 
z
" transform="scale(0.015625)"/>
       <path id="DejaVuSans-28" d="M 1984 4856 
Q 1566 4138 1362 3434 
Q 1159 2731 1159 2009 
Q 1159 1288 1364 580 
Q 1569 -128 1984 -844 
L 1484 -844 
Q 1016 -109 783 600 
Q 550 1309 550 2009 
Q 550 2706 781 3412 
Q 1013 4119 1484 4856 
L 1984 4856 
z
" transform="scale(0.015625)"/>
       <path id="DejaVuSans-29" d="M 513 4856 
L 1013 4856 
Q 1481 4119 1714 3412 
Q 1947 2706 1947 2009 
Q 1947 1309 1714 600 
Q 1481 -109 1013 -844 
L 513 -844 
Q 928 -128 1133 580 
Q 1338 1288 1338 2009 
Q 1338 2731 1133 3434 
Q 928 4138 513 4856 
z
" transform="scale(0.015625)"/>
      </defs>
      <use xlink:href="#DejaVuSans-54"/>
      <use xlink:href="#DejaVuSans-69" x="57.958984"/>
      <use xlink:href="#DejaVuSans-6d" x="85.742188"/>
      <use xlink:href="#DejaVuSans-65" x="183.154297"/>
      <use xlink:href="#DejaVuSans-20" x="244.677734"/>
      <use xlink:href="#DejaVuSans-28" x="276.464844"/>
      <use xlink:href="#DejaVuSans-73" x="315.478516"/>
      <use xlink:href="#DejaVuSans-29" x="367.578125"/>
     </g>
    </g>
   </g>
   <g id="patch_3">
    <path d="M 59.46025 288.658125 
L 112.05625 288.658125 
L 112.05625 35.838957 
L 59.46025 35.838957 
z
" clip-path="url(#pff22871d87)" style="fill: #abc9ea; stroke: #ffffff; stroke-linejoin: miter"/>
   </g>
   <g id="patch_4">
    <path d="M 190.95025 288.658125 
L 243.54625 288.658125 
L 243.54625 55.525858 
L 190.95025 55.525858 
z
" clip-path="url(#pff22871d87)" style="fill: #abc9ea; stroke: #ffffff; stroke-linejoin: miter"/>
   </g>
   <g id="patch_5">
    <path d="M 322.44025 288.658125 
L 375.03625 288.658125 
L 375.03625 60.283363 
L 322.44025 60.283363 
z
" clip-path="url(#pff22871d87)" style="fill: #abc9ea; stroke: #ffffff; stroke-linejoin: miter"/>
   </g>
   <g id="patch_6">
    <path d="M 112.05625 288.658125 
L 164.65225 288.658125 
L 164.65225 239.896377 
L 112.05625 239.896377 
z
" clip-path="url(#pff22871d87)" style="fill: #efb792; stroke: #ffffff; stroke-linejoin: miter"/>
   </g>
   <g id="patch_7">
    <path d="M 243.54625 288.658125 
L 296.14225 288.658125 
L 296.14225 239.426213 
L 243.54625 239.426213 
z
" clip-path="url(#pff22871d87)" style="fill: #efb792; stroke: #ffffff; stroke-linejoin: miter"/>
   </g>
   <g id="patch_8">
    <path d="M 375.03625 288.658125 
L 427.63225 288.658125 
L 427.63225 243.431665 
L 375.03625 243.431665 
z
" clip-path="url(#pff22871d87)" style="fill: #efb792; stroke: #ffffff; stroke-linejoin: miter"/>
   </g>
   <g id="patch_9">
    <path d="M 112.05625 288.658125 
L 112.05625 288.658125 
L 112.05625 288.658125 
L 112.05625 288.658125 
z
" clip-path="url(#pff22871d87)" style="fill: #abc9ea; stroke: #ffffff; stroke-linejoin: miter"/>
   </g>
   <g id="patch_10">
    <path d="M 112.05625 288.658125 
L 112.05625 288.658125 
L 112.05625 288.658125 
L 112.05625 288.658125 
z
" clip-path="url(#pff22871d87)" style="fill: #efb792; stroke: #ffffff; stroke-linejoin: miter"/>
   </g>
   <g id="line2d_1">
    <path d="M 85.75825 36.601706 
L 85.75825 35.000982 
" clip-path="url(#pff22871d87)" style="fill: none; stroke: #424242; stroke-width: 2.25; stroke-linecap: round"/>
   </g>
   <g id="line2d_2">
    <path d="M 217.24825 55.94685 
L 217.24825 55.06964 
" clip-path="url(#pff22871d87)" style="fill: none; stroke: #424242; stroke-width: 2.25; stroke-linecap: round"/>
   </g>
   <g id="line2d_3">
    <path d="M 348.73825 60.973435 
L 348.73825 59.591643 
" clip-path="url(#pff22871d87)" style="fill: none; stroke: #424242; stroke-width: 2.25; stroke-linecap: round"/>
   </g>
   <g id="line2d_4">
    <path d="M 138.35425 240.075661 
L 138.35425 239.716883 
" clip-path="url(#pff22871d87)" style="fill: none; stroke: #424242; stroke-width: 2.25; stroke-linecap: round"/>
   </g>
   <g id="line2d_5">
    <path d="M 269.84425 239.625778 
L 269.84425 239.192164 
" clip-path="url(#pff22871d87)" style="fill: none; stroke: #424242; stroke-width: 2.25; stroke-linecap: round"/>
   </g>
   <g id="line2d_6">
    <path d="M 401.33425 243.624012 
L 401.33425 243.157046 
" clip-path="url(#pff22871d87)" style="fill: none; stroke: #424242; stroke-width: 2.25; stroke-linecap: round"/>
   </g>
   <g id="text_13">
    <path d="M 72.369813 27.625832 
Q 73.254812 27.854582 73.714188 28.420832 
Q 74.175438 28.985207 74.175438 29.858957 
Q 74.175438 31.160207 73.177937 31.837082 
Q 72.182313 32.513957 70.273563 32.513957 
Q 69.598562 32.513957 68.921688 32.405207 
Q 68.244813 32.296457 67.582937 32.078957 
L 67.582937 30.338957 
Q 68.216688 30.655832 68.839188 30.817082 
Q 69.463563 30.978332 70.067312 30.978332 
Q 70.963563 30.978332 71.441688 30.668957 
Q 71.919813 30.357707 71.919813 29.776457 
Q 71.919813 29.178332 71.430438 28.870832 
Q 70.941063 28.563332 69.984813 28.563332 
L 69.082937 28.563332 
L 69.082937 27.110207 
L 70.031688 27.110207 
Q 70.882938 27.110207 71.297313 26.843957 
Q 71.713563 26.577707 71.713563 26.032082 
Q 71.713563 25.529582 71.308563 25.253957 
Q 70.905438 24.978332 70.166688 24.978332 
Q 69.622938 24.978332 69.066063 25.102082 
Q 68.509188 25.223957 67.957937 25.463957 
L 67.957937 23.812082 
Q 68.625438 23.624582 69.281688 23.530832 
Q 69.937938 23.437082 70.571688 23.437082 
Q 72.276063 23.437082 73.121688 23.997707 
Q 73.969188 24.556457 73.969188 25.681457 
Q 73.969188 26.448332 73.564188 26.937707 
Q 73.161062 27.427082 72.369813 27.625832 
z
M 76.536297 30.785207 
L 78.529422 30.785207 
L 78.529422 25.130207 
L 76.483797 25.552082 
L 76.483797 24.016457 
L 78.516297 23.594582 
L 80.661297 23.594582 
L 80.661297 30.785207 
L 82.654422 30.785207 
L 82.654422 32.343332 
L 76.536297 32.343332 
L 76.536297 30.785207 
z
M 84.704031 30.076457 
L 86.813406 30.076457 
L 86.813406 32.343332 
L 84.704031 32.343332 
L 84.704031 30.076457 
z
M 92.38075 28.025207 
Q 91.78825 28.025207 91.492 28.409582 
Q 91.19575 28.792082 91.19575 29.560832 
Q 91.19575 30.327707 91.492 30.712082 
Q 91.78825 31.094582 92.38075 31.094582 
Q 92.977 31.094582 93.27325 30.712082 
Q 93.5695 30.327707 93.5695 29.560832 
Q 93.5695 28.792082 93.27325 28.409582 
Q 92.977 28.025207 92.38075 28.025207 
z
M 95.168875 23.823332 
L 95.168875 25.441457 
Q 94.612 25.177082 94.118875 25.051457 
Q 93.627625 24.925832 93.158875 24.925832 
Q 92.152 24.925832 91.5895 25.486457 
Q 91.027 26.045207 90.93325 27.145832 
Q 91.3195 26.858957 91.7695 26.716457 
Q 92.221375 26.572082 92.75575 26.572082 
Q 94.096375 26.572082 94.9195 27.357707 
Q 95.742625 28.141457 95.742625 29.412707 
Q 95.742625 30.818957 94.822 31.666457 
Q 93.90325 32.513957 92.356375 32.513957 
Q 90.652 32.513957 89.716375 31.362707 
Q 88.782625 30.209582 88.782625 28.094582 
Q 88.782625 25.927082 89.87575 24.687707 
Q 90.968875 23.448332 92.872 23.448332 
Q 93.47575 23.448332 94.043875 23.542082 
Q 94.612 23.635832 95.168875 23.823332 
z
M 100.730359 28.025207 
Q 100.137859 28.025207 99.841609 28.409582 
Q 99.545359 28.792082 99.545359 29.560832 
Q 99.545359 30.327707 99.841609 30.712082 
Q 100.137859 31.094582 100.730359 31.094582 
Q 101.326609 31.094582 101.622859 30.712082 
Q 101.919109 30.327707 101.919109 29.560832 
Q 101.919109 28.792082 101.622859 28.409582 
Q 101.326609 28.025207 100.730359 28.025207 
z
M 103.518484 23.823332 
L 103.518484 25.441457 
Q 102.961609 25.177082 102.468484 25.051457 
Q 101.977234 24.925832 101.508484 24.925832 
Q 100.501609 24.925832 99.939109 25.486457 
Q 99.376609 26.045207 99.282859 27.145832 
Q 99.669109 26.858957 100.119109 26.716457 
Q 100.570984 26.572082 101.105359 26.572082 
Q 102.445984 26.572082 103.269109 27.357707 
Q 104.092234 28.141457 104.092234 29.412707 
Q 104.092234 30.818957 103.171609 31.666457 
Q 102.252859 32.513957 100.705984 32.513957 
Q 99.001609 32.513957 98.065984 31.362707 
Q 97.132234 30.209582 97.132234 28.094582 
Q 97.132234 25.927082 98.225359 24.687707 
Q 99.318484 23.448332 101.221609 23.448332 
Q 101.825359 23.448332 102.393484 23.542082 
Q 102.961609 23.635832 103.518484 23.823332 
z
" style="fill: #abc9ea; stroke: #ffffff; stroke-width: 3"/>
    <path d="M 72.369813 27.625832 
Q 73.254812 27.854582 73.714188 28.420832 
Q 74.175438 28.985207 74.175438 29.858957 
Q 74.175438 31.160207 73.177937 31.837082 
Q 72.182313 32.513957 70.273563 32.513957 
Q 69.598562 32.513957 68.921688 32.405207 
Q 68.244813 32.296457 67.582937 32.078957 
L 67.582937 30.338957 
Q 68.216688 30.655832 68.839188 30.817082 
Q 69.463563 30.978332 70.067312 30.978332 
Q 70.963563 30.978332 71.441688 30.668957 
Q 71.919813 30.357707 71.919813 29.776457 
Q 71.919813 29.178332 71.430438 28.870832 
Q 70.941063 28.563332 69.984813 28.563332 
L 69.082937 28.563332 
L 69.082937 27.110207 
L 70.031688 27.110207 
Q 70.882938 27.110207 71.297313 26.843957 
Q 71.713563 26.577707 71.713563 26.032082 
Q 71.713563 25.529582 71.308563 25.253957 
Q 70.905438 24.978332 70.166688 24.978332 
Q 69.622938 24.978332 69.066063 25.102082 
Q 68.509188 25.223957 67.957937 25.463957 
L 67.957937 23.812082 
Q 68.625438 23.624582 69.281688 23.530832 
Q 69.937938 23.437082 70.571688 23.437082 
Q 72.276063 23.437082 73.121688 23.997707 
Q 73.969188 24.556457 73.969188 25.681457 
Q 73.969188 26.448332 73.564188 26.937707 
Q 73.161062 27.427082 72.369813 27.625832 
z
M 76.536297 30.785207 
L 78.529422 30.785207 
L 78.529422 25.130207 
L 76.483797 25.552082 
L 76.483797 24.016457 
L 78.516297 23.594582 
L 80.661297 23.594582 
L 80.661297 30.785207 
L 82.654422 30.785207 
L 82.654422 32.343332 
L 76.536297 32.343332 
L 76.536297 30.785207 
z
M 84.704031 30.076457 
L 86.813406 30.076457 
L 86.813406 32.343332 
L 84.704031 32.343332 
L 84.704031 30.076457 
z
M 92.38075 28.025207 
Q 91.78825 28.025207 91.492 28.409582 
Q 91.19575 28.792082 91.19575 29.560832 
Q 91.19575 30.327707 91.492 30.712082 
Q 91.78825 31.094582 92.38075 31.094582 
Q 92.977 31.094582 93.27325 30.712082 
Q 93.5695 30.327707 93.5695 29.560832 
Q 93.5695 28.792082 93.27325 28.409582 
Q 92.977 28.025207 92.38075 28.025207 
z
M 95.168875 23.823332 
L 95.168875 25.441457 
Q 94.612 25.177082 94.118875 25.051457 
Q 93.627625 24.925832 93.158875 24.925832 
Q 92.152 24.925832 91.5895 25.486457 
Q 91.027 26.045207 90.93325 27.145832 
Q 91.3195 26.858957 91.7695 26.716457 
Q 92.221375 26.572082 92.75575 26.572082 
Q 94.096375 26.572082 94.9195 27.357707 
Q 95.742625 28.141457 95.742625 29.412707 
Q 95.742625 30.818957 94.822 31.666457 
Q 93.90325 32.513957 92.356375 32.513957 
Q 90.652 32.513957 89.716375 31.362707 
Q 88.782625 30.209582 88.782625 28.094582 
Q 88.782625 25.927082 89.87575 24.687707 
Q 90.968875 23.448332 92.872 23.448332 
Q 93.47575 23.448332 94.043875 23.542082 
Q 94.612 23.635832 95.168875 23.823332 
z
M 100.730359 28.025207 
Q 100.137859 28.025207 99.841609 28.409582 
Q 99.545359 28.792082 99.545359 29.560832 
Q 99.545359 30.327707 99.841609 30.712082 
Q 100.137859 31.094582 100.730359 31.094582 
Q 101.326609 31.094582 101.622859 30.712082 
Q 101.919109 30.327707 101.919109 29.560832 
Q 101.919109 28.792082 101.622859 28.409582 
Q 101.326609 28.025207 100.730359 28.025207 
z
M 103.518484 23.823332 
L 103.518484 25.441457 
Q 102.961609 25.177082 102.468484 25.051457 
Q 101.977234 24.925832 101.508484 24.925832 
Q 100.501609 24.925832 99.939109 25.486457 
Q 99.376609 26.045207 99.282859 27.145832 
Q 99.669109 26.858957 100.119109 26.716457 
Q 100.570984 26.572082 101.105359 26.572082 
Q 102.445984 26.572082 103.269109 27.357707 
Q 104.092234 28.141457 104.092234 29.412707 
Q 104.092234 30.818957 103.171609 31.666457 
Q 102.252859 32.513957 100.705984 32.513957 
Q 99.001609 32.513957 98.065984 31.362707 
Q 97.132234 30.209582 97.132234 28.094582 
Q 97.132234 25.927082 98.225359 24.687707 
Q 99.318484 23.448332 101.221609 23.448332 
Q 101.825359 23.448332 102.393484 23.542082 
Q 102.961609 23.635832 103.518484 23.823332 
z
" style="fill: #abc9ea"/>
   </g>
   <g id="text_14">
    <path d="M 201.727938 50.372733 
L 205.577313 50.372733 
L 205.577313 52.030233 
L 199.219188 52.030233 
L 199.219188 50.372733 
L 202.412313 47.552733 
Q 202.841688 47.166483 203.046063 46.797108 
Q 203.250438 46.427733 203.250438 46.030233 
Q 203.250438 45.415233 202.837938 45.040233 
Q 202.425438 44.665233 201.739188 44.665233 
Q 201.212313 44.665233 200.584188 44.890233 
Q 199.957938 45.115233 199.243563 45.561483 
L 199.243563 43.639608 
Q 200.004813 43.388358 200.749188 43.257108 
Q 201.493563 43.123983 202.207938 43.123983 
Q 203.779188 43.123983 204.649188 43.815858 
Q 205.519188 44.505858 205.519188 45.743358 
Q 205.519188 46.457733 205.149813 47.076483 
Q 204.780438 47.693358 203.597313 48.732108 
L 201.727938 50.372733 
z
M 207.821922 51.837108 
L 207.821922 50.218983 
Q 208.360047 50.472108 208.851297 50.597733 
Q 209.344422 50.723358 209.824422 50.723358 
Q 210.833172 50.723358 211.395672 50.164608 
Q 211.958172 49.603983 212.057547 48.503358 
Q 211.660047 48.795858 211.208172 48.942108 
Q 210.756297 49.088358 210.229422 49.088358 
Q 208.886922 49.088358 208.063797 48.306483 
Q 207.240672 47.524608 207.240672 46.247733 
Q 207.240672 44.833983 208.157547 43.984608 
Q 209.074422 43.135233 210.615672 43.135233 
Q 212.327547 43.135233 213.265047 44.290233 
Q 214.202547 45.443358 214.202547 47.552733 
Q 214.202547 49.722108 213.105672 50.961483 
Q 212.010672 52.200858 210.100047 52.200858 
Q 209.485047 52.200858 208.922547 52.108983 
Q 208.360047 52.018983 207.821922 51.837108 
z
M 210.604422 47.623983 
Q 211.196922 47.623983 211.495047 47.241483 
Q 211.793172 46.857108 211.793172 46.088358 
Q 211.793172 45.327108 211.495047 44.940858 
Q 211.196922 44.552733 210.604422 44.552733 
Q 210.011922 44.552733 209.713797 44.940858 
Q 209.415672 45.327108 209.415672 46.088358 
Q 209.415672 46.857108 209.713797 47.241483 
Q 210.011922 47.623983 210.604422 47.623983 
z
M 216.194031 49.763358 
L 218.303406 49.763358 
L 218.303406 52.030233 
L 216.194031 52.030233 
L 216.194031 49.763358 
z
M 220.9345 50.472108 
L 222.927625 50.472108 
L 222.927625 44.817108 
L 220.882 45.238983 
L 220.882 43.703358 
L 222.9145 43.281483 
L 225.0595 43.281483 
L 225.0595 50.472108 
L 227.052625 50.472108 
L 227.052625 52.030233 
L 220.9345 52.030233 
L 220.9345 50.472108 
z
M 229.079734 51.837108 
L 229.079734 50.218983 
Q 229.617859 50.472108 230.109109 50.597733 
Q 230.602234 50.723358 231.082234 50.723358 
Q 232.090984 50.723358 232.653484 50.164608 
Q 233.215984 49.603983 233.315359 48.503358 
Q 232.917859 48.795858 232.465984 48.942108 
Q 232.014109 49.088358 231.487234 49.088358 
Q 230.144734 49.088358 229.321609 48.306483 
Q 228.498484 47.524608 228.498484 46.247733 
Q 228.498484 44.833983 229.415359 43.984608 
Q 230.332234 43.135233 231.873484 43.135233 
Q 233.585359 43.135233 234.522859 44.290233 
Q 235.460359 45.443358 235.460359 47.552733 
Q 235.460359 49.722108 234.363484 50.961483 
Q 233.268484 52.200858 231.357859 52.200858 
Q 230.742859 52.200858 230.180359 52.108983 
Q 229.617859 52.018983 229.079734 51.837108 
z
M 231.862234 47.623983 
Q 232.454734 47.623983 232.752859 47.241483 
Q 233.050984 46.857108 233.050984 46.088358 
Q 233.050984 45.327108 232.752859 44.940858 
Q 232.454734 44.552733 231.862234 44.552733 
Q 231.269734 44.552733 230.971609 44.940858 
Q 230.673484 45.327108 230.673484 46.088358 
Q 230.673484 46.857108 230.971609 47.241483 
Q 231.269734 47.623983 231.862234 47.623983 
z
" style="fill: #abc9ea; stroke: #ffffff; stroke-width: 3"/>
    <path d="M 201.727938 50.372733 
L 205.577313 50.372733 
L 205.577313 52.030233 
L 199.219188 52.030233 
L 199.219188 50.372733 
L 202.412313 47.552733 
Q 202.841688 47.166483 203.046063 46.797108 
Q 203.250438 46.427733 203.250438 46.030233 
Q 203.250438 45.415233 202.837938 45.040233 
Q 202.425438 44.665233 201.739188 44.665233 
Q 201.212313 44.665233 200.584188 44.890233 
Q 199.957938 45.115233 199.243563 45.561483 
L 199.243563 43.639608 
Q 200.004813 43.388358 200.749188 43.257108 
Q 201.493563 43.123983 202.207938 43.123983 
Q 203.779188 43.123983 204.649188 43.815858 
Q 205.519188 44.505858 205.519188 45.743358 
Q 205.519188 46.457733 205.149813 47.076483 
Q 204.780438 47.693358 203.597313 48.732108 
L 201.727938 50.372733 
z
M 207.821922 51.837108 
L 207.821922 50.218983 
Q 208.360047 50.472108 208.851297 50.597733 
Q 209.344422 50.723358 209.824422 50.723358 
Q 210.833172 50.723358 211.395672 50.164608 
Q 211.958172 49.603983 212.057547 48.503358 
Q 211.660047 48.795858 211.208172 48.942108 
Q 210.756297 49.088358 210.229422 49.088358 
Q 208.886922 49.088358 208.063797 48.306483 
Q 207.240672 47.524608 207.240672 46.247733 
Q 207.240672 44.833983 208.157547 43.984608 
Q 209.074422 43.135233 210.615672 43.135233 
Q 212.327547 43.135233 213.265047 44.290233 
Q 214.202547 45.443358 214.202547 47.552733 
Q 214.202547 49.722108 213.105672 50.961483 
Q 212.010672 52.200858 210.100047 52.200858 
Q 209.485047 52.200858 208.922547 52.108983 
Q 208.360047 52.018983 207.821922 51.837108 
z
M 210.604422 47.623983 
Q 211.196922 47.623983 211.495047 47.241483 
Q 211.793172 46.857108 211.793172 46.088358 
Q 211.793172 45.327108 211.495047 44.940858 
Q 211.196922 44.552733 210.604422 44.552733 
Q 210.011922 44.552733 209.713797 44.940858 
Q 209.415672 45.327108 209.415672 46.088358 
Q 209.415672 46.857108 209.713797 47.241483 
Q 210.011922 47.623983 210.604422 47.623983 
z
M 216.194031 49.763358 
L 218.303406 49.763358 
L 218.303406 52.030233 
L 216.194031 52.030233 
L 216.194031 49.763358 
z
M 220.9345 50.472108 
L 222.927625 50.472108 
L 222.927625 44.817108 
L 220.882 45.238983 
L 220.882 43.703358 
L 222.9145 43.281483 
L 225.0595 43.281483 
L 225.0595 50.472108 
L 227.052625 50.472108 
L 227.052625 52.030233 
L 220.9345 52.030233 
L 220.9345 50.472108 
z
M 229.079734 51.837108 
L 229.079734 50.218983 
Q 229.617859 50.472108 230.109109 50.597733 
Q 230.602234 50.723358 231.082234 50.723358 
Q 232.090984 50.723358 232.653484 50.164608 
Q 233.215984 49.603983 233.315359 48.503358 
Q 232.917859 48.795858 232.465984 48.942108 
Q 232.014109 49.088358 231.487234 49.088358 
Q 230.144734 49.088358 229.321609 48.306483 
Q 228.498484 47.524608 228.498484 46.247733 
Q 228.498484 44.833983 229.415359 43.984608 
Q 230.332234 43.135233 231.873484 43.135233 
Q 233.585359 43.135233 234.522859 44.290233 
Q 235.460359 45.443358 235.460359 47.552733 
Q 235.460359 49.722108 234.363484 50.961483 
Q 233.268484 52.200858 231.357859 52.200858 
Q 230.742859 52.200858 230.180359 52.108983 
Q 229.617859 52.018983 229.079734 51.837108 
z
M 231.862234 47.623983 
Q 232.454734 47.623983 232.752859 47.241483 
Q 233.050984 46.857108 233.050984 46.088358 
Q 233.050984 45.327108 232.752859 44.940858 
Q 232.454734 44.552733 231.862234 44.552733 
Q 231.269734 44.552733 230.971609 44.940858 
Q 230.673484 45.327108 230.673484 46.088358 
Q 230.673484 46.857108 230.971609 47.241483 
Q 231.269734 47.623983 231.862234 47.623983 
z
" style="fill: #abc9ea"/>
   </g>
   <g id="text_15">
    <path d="M 333.217937 55.130238 
L 337.067312 55.130238 
L 337.067312 56.787738 
L 330.709187 56.787738 
L 330.709187 55.130238 
L 333.902312 52.310238 
Q 334.331687 51.923988 334.536062 51.554613 
Q 334.740437 51.185238 334.740437 50.787738 
Q 334.740437 50.172738 334.327937 49.797738 
Q 333.915437 49.422738 333.229187 49.422738 
Q 332.702312 49.422738 332.074187 49.647738 
Q 331.447937 49.872738 330.733562 50.318988 
L 330.733562 48.397113 
Q 331.494812 48.145863 332.239187 48.014613 
Q 332.983562 47.881488 333.697937 47.881488 
Q 335.269187 47.881488 336.139187 48.573363 
Q 337.009187 49.263363 337.009187 50.500863 
Q 337.009187 51.215238 336.639812 51.833988 
Q 336.270437 52.450863 335.087312 53.489613 
L 333.217937 55.130238 
z
M 342.287547 52.872738 
Q 341.655672 52.872738 341.314422 53.219613 
Q 340.975047 53.564613 340.975047 54.209613 
Q 340.975047 54.854613 341.314422 55.197738 
Q 341.655672 55.538988 342.287547 55.538988 
Q 342.915672 55.538988 343.249422 55.197738 
Q 343.583172 54.854613 343.583172 54.209613 
Q 343.583172 53.558988 343.249422 53.215863 
Q 342.915672 52.872738 342.287547 52.872738 
z
M 340.641297 52.130238 
Q 339.844422 51.888363 339.439422 51.391488 
Q 339.036297 50.892738 339.036297 50.148363 
Q 339.036297 49.042113 339.861297 48.462738 
Q 340.688172 47.881488 342.287547 47.881488 
Q 343.875672 47.881488 344.700672 48.458988 
Q 345.527547 49.036488 345.527547 50.148363 
Q 345.527547 50.892738 345.120672 51.391488 
Q 344.713797 51.888363 343.916922 52.130238 
Q 344.807547 52.375863 345.261297 52.928988 
Q 345.715047 53.482113 345.715047 54.325863 
Q 345.715047 55.627113 344.850672 56.292738 
Q 343.986297 56.958363 342.287547 56.958363 
Q 340.583172 56.958363 339.713172 56.292738 
Q 338.843172 55.627113 338.843172 54.325863 
Q 338.843172 53.482113 339.296922 52.928988 
Q 339.750672 52.375863 340.641297 52.130238 
z
M 341.168172 50.377113 
Q 341.168172 50.898363 341.458797 51.179613 
Q 341.749422 51.460863 342.287547 51.460863 
Q 342.814422 51.460863 343.101297 51.179613 
Q 343.390047 50.898363 343.390047 50.377113 
Q 343.390047 49.855863 343.101297 49.578363 
Q 342.814422 49.298988 342.287547 49.298988 
Q 341.749422 49.298988 341.458797 49.580238 
Q 341.168172 49.861488 341.168172 50.377113 
z
M 347.684031 54.520863 
L 349.793406 54.520863 
L 349.793406 56.787738 
L 347.684031 56.787738 
L 347.684031 54.520863 
z
M 355.36075 52.469613 
Q 354.76825 52.469613 354.472 52.853988 
Q 354.17575 53.236488 354.17575 54.005238 
Q 354.17575 54.772113 354.472 55.156488 
Q 354.76825 55.538988 355.36075 55.538988 
Q 355.957 55.538988 356.25325 55.156488 
Q 356.5495 54.772113 356.5495 54.005238 
Q 356.5495 53.236488 356.25325 52.853988 
Q 355.957 52.469613 355.36075 52.469613 
z
M 358.148875 48.267738 
L 358.148875 49.885863 
Q 357.592 49.621488 357.098875 49.495863 
Q 356.607625 49.370238 356.138875 49.370238 
Q 355.132 49.370238 354.5695 49.930863 
Q 354.007 50.489613 353.91325 51.590238 
Q 354.2995 51.303363 354.7495 51.160863 
Q 355.201375 51.016488 355.73575 51.016488 
Q 357.076375 51.016488 357.8995 51.802113 
Q 358.722625 52.585863 358.722625 53.857113 
Q 358.722625 55.263363 357.802 56.110863 
Q 356.88325 56.958363 355.336375 56.958363 
Q 353.632 56.958363 352.696375 55.807113 
Q 351.762625 54.653988 351.762625 52.538988 
Q 351.762625 50.371488 352.85575 49.132113 
Q 353.948875 47.892738 355.852 47.892738 
Q 356.45575 47.892738 357.023875 47.986488 
Q 357.592 48.080238 358.148875 48.267738 
z
M 364.887859 52.403988 
Q 364.887859 50.763363 364.580359 50.093988 
Q 364.272859 49.422738 363.545359 49.422738 
Q 362.819734 49.422738 362.508484 50.093988 
Q 362.197234 50.763363 362.197234 52.403988 
Q 362.197234 54.063363 362.508484 54.743988 
Q 362.819734 55.422738 363.545359 55.422738 
Q 364.267234 55.422738 364.576609 54.743988 
Q 364.887859 54.063363 364.887859 52.403988 
z
M 367.143484 52.422738 
Q 367.143484 54.595863 366.205984 55.777113 
Q 365.268484 56.958363 363.545359 56.958363 
Q 361.816609 56.958363 360.879109 55.777113 
Q 359.941609 54.595863 359.941609 52.422738 
Q 359.941609 50.242113 360.879109 49.062738 
Q 361.816609 47.881488 363.545359 47.881488 
Q 365.268484 47.881488 366.205984 49.062738 
Q 367.143484 50.242113 367.143484 52.422738 
z
" style="fill: #abc9ea; stroke: #ffffff; stroke-width: 3"/>
    <path d="M 333.217937 55.130238 
L 337.067312 55.130238 
L 337.067312 56.787738 
L 330.709187 56.787738 
L 330.709187 55.130238 
L 333.902312 52.310238 
Q 334.331687 51.923988 334.536062 51.554613 
Q 334.740437 51.185238 334.740437 50.787738 
Q 334.740437 50.172738 334.327937 49.797738 
Q 333.915437 49.422738 333.229187 49.422738 
Q 332.702312 49.422738 332.074187 49.647738 
Q 331.447937 49.872738 330.733562 50.318988 
L 330.733562 48.397113 
Q 331.494812 48.145863 332.239187 48.014613 
Q 332.983562 47.881488 333.697937 47.881488 
Q 335.269187 47.881488 336.139187 48.573363 
Q 337.009187 49.263363 337.009187 50.500863 
Q 337.009187 51.215238 336.639812 51.833988 
Q 336.270437 52.450863 335.087312 53.489613 
L 333.217937 55.130238 
z
M 342.287547 52.872738 
Q 341.655672 52.872738 341.314422 53.219613 
Q 340.975047 53.564613 340.975047 54.209613 
Q 340.975047 54.854613 341.314422 55.197738 
Q 341.655672 55.538988 342.287547 55.538988 
Q 342.915672 55.538988 343.249422 55.197738 
Q 343.583172 54.854613 343.583172 54.209613 
Q 343.583172 53.558988 343.249422 53.215863 
Q 342.915672 52.872738 342.287547 52.872738 
z
M 340.641297 52.130238 
Q 339.844422 51.888363 339.439422 51.391488 
Q 339.036297 50.892738 339.036297 50.148363 
Q 339.036297 49.042113 339.861297 48.462738 
Q 340.688172 47.881488 342.287547 47.881488 
Q 343.875672 47.881488 344.700672 48.458988 
Q 345.527547 49.036488 345.527547 50.148363 
Q 345.527547 50.892738 345.120672 51.391488 
Q 344.713797 51.888363 343.916922 52.130238 
Q 344.807547 52.375863 345.261297 52.928988 
Q 345.715047 53.482113 345.715047 54.325863 
Q 345.715047 55.627113 344.850672 56.292738 
Q 343.986297 56.958363 342.287547 56.958363 
Q 340.583172 56.958363 339.713172 56.292738 
Q 338.843172 55.627113 338.843172 54.325863 
Q 338.843172 53.482113 339.296922 52.928988 
Q 339.750672 52.375863 340.641297 52.130238 
z
M 341.168172 50.377113 
Q 341.168172 50.898363 341.458797 51.179613 
Q 341.749422 51.460863 342.287547 51.460863 
Q 342.814422 51.460863 343.101297 51.179613 
Q 343.390047 50.898363 343.390047 50.377113 
Q 343.390047 49.855863 343.101297 49.578363 
Q 342.814422 49.298988 342.287547 49.298988 
Q 341.749422 49.298988 341.458797 49.580238 
Q 341.168172 49.861488 341.168172 50.377113 
z
M 347.684031 54.520863 
L 349.793406 54.520863 
L 349.793406 56.787738 
L 347.684031 56.787738 
L 347.684031 54.520863 
z
M 355.36075 52.469613 
Q 354.76825 52.469613 354.472 52.853988 
Q 354.17575 53.236488 354.17575 54.005238 
Q 354.17575 54.772113 354.472 55.156488 
Q 354.76825 55.538988 355.36075 55.538988 
Q 355.957 55.538988 356.25325 55.156488 
Q 356.5495 54.772113 356.5495 54.005238 
Q 356.5495 53.236488 356.25325 52.853988 
Q 355.957 52.469613 355.36075 52.469613 
z
M 358.148875 48.267738 
L 358.148875 49.885863 
Q 357.592 49.621488 357.098875 49.495863 
Q 356.607625 49.370238 356.138875 49.370238 
Q 355.132 49.370238 354.5695 49.930863 
Q 354.007 50.489613 353.91325 51.590238 
Q 354.2995 51.303363 354.7495 51.160863 
Q 355.201375 51.016488 355.73575 51.016488 
Q 357.076375 51.016488 357.8995 51.802113 
Q 358.722625 52.585863 358.722625 53.857113 
Q 358.722625 55.263363 357.802 56.110863 
Q 356.88325 56.958363 355.336375 56.958363 
Q 353.632 56.958363 352.696375 55.807113 
Q 351.762625 54.653988 351.762625 52.538988 
Q 351.762625 50.371488 352.85575 49.132113 
Q 353.948875 47.892738 355.852 47.892738 
Q 356.45575 47.892738 357.023875 47.986488 
Q 357.592 48.080238 358.148875 48.267738 
z
M 364.887859 52.403988 
Q 364.887859 50.763363 364.580359 50.093988 
Q 364.272859 49.422738 363.545359 49.422738 
Q 362.819734 49.422738 362.508484 50.093988 
Q 362.197234 50.763363 362.197234 52.403988 
Q 362.197234 54.063363 362.508484 54.743988 
Q 362.819734 55.422738 363.545359 55.422738 
Q 364.267234 55.422738 364.576609 54.743988 
Q 364.887859 54.063363 364.887859 52.403988 
z
M 367.143484 52.422738 
Q 367.143484 54.595863 366.205984 55.777113 
Q 365.268484 56.958363 363.545359 56.958363 
Q 361.816609 56.958363 360.879109 55.777113 
Q 359.941609 54.595863 359.941609 52.422738 
Q 359.941609 50.242113 360.879109 49.062738 
Q 361.816609 47.881488 363.545359 47.881488 
Q 365.268484 47.881488 366.205984 49.062738 
Q 367.143484 50.242113 367.143484 52.422738 
z
" style="fill: #abc9ea"/>
   </g>
   <g id="text_16">
    <path d="M 127.893625 232.082627 
Q 127.301125 232.082627 127.004875 232.467002 
Q 126.708625 232.849502 126.708625 233.618252 
Q 126.708625 234.385127 127.004875 234.769502 
Q 127.301125 235.152002 127.893625 235.152002 
Q 128.489875 235.152002 128.786125 234.769502 
Q 129.082375 234.385127 129.082375 233.618252 
Q 129.082375 232.849502 128.786125 232.467002 
Q 128.489875 232.082627 127.893625 232.082627 
z
M 130.68175 227.880752 
L 130.68175 229.498877 
Q 130.124875 229.234502 129.63175 229.108877 
Q 129.1405 228.983252 128.67175 228.983252 
Q 127.664875 228.983252 127.102375 229.543877 
Q 126.539875 230.102627 126.446125 231.203252 
Q 126.832375 230.916377 127.282375 230.773877 
Q 127.73425 230.629502 128.268625 230.629502 
Q 129.60925 230.629502 130.432375 231.415127 
Q 131.2555 232.198877 131.2555 233.470127 
Q 131.2555 234.876377 130.334875 235.723877 
Q 129.416125 236.571377 127.86925 236.571377 
Q 126.164875 236.571377 125.22925 235.420127 
Q 124.2955 234.267002 124.2955 232.152002 
Q 124.2955 229.984502 125.388625 228.745127 
Q 126.48175 227.505752 128.384875 227.505752 
Q 128.988625 227.505752 129.55675 227.599502 
Q 130.124875 227.693252 130.68175 227.880752 
z
M 133.125109 234.133877 
L 135.234484 234.133877 
L 135.234484 236.400752 
L 133.125109 236.400752 
L 133.125109 234.133877 
z
M 137.865578 234.842627 
L 139.858703 234.842627 
L 139.858703 229.187627 
L 137.813078 229.609502 
L 137.813078 228.073877 
L 139.845578 227.652002 
L 141.990578 227.652002 
L 141.990578 234.842627 
L 143.983703 234.842627 
L 143.983703 236.400752 
L 137.865578 236.400752 
L 137.865578 234.842627 
z
M 146.215188 234.842627 
L 148.208313 234.842627 
L 148.208313 229.187627 
L 146.162688 229.609502 
L 146.162688 228.073877 
L 148.195188 227.652002 
L 150.340188 227.652002 
L 150.340188 234.842627 
L 152.333313 234.842627 
L 152.333313 236.400752 
L 146.215188 236.400752 
L 146.215188 234.842627 
z
" style="fill: #efb792; stroke: #ffffff; stroke-width: 3"/>
    <path d="M 127.893625 232.082627 
Q 127.301125 232.082627 127.004875 232.467002 
Q 126.708625 232.849502 126.708625 233.618252 
Q 126.708625 234.385127 127.004875 234.769502 
Q 127.301125 235.152002 127.893625 235.152002 
Q 128.489875 235.152002 128.786125 234.769502 
Q 129.082375 234.385127 129.082375 233.618252 
Q 129.082375 232.849502 128.786125 232.467002 
Q 128.489875 232.082627 127.893625 232.082627 
z
M 130.68175 227.880752 
L 130.68175 229.498877 
Q 130.124875 229.234502 129.63175 229.108877 
Q 129.1405 228.983252 128.67175 228.983252 
Q 127.664875 228.983252 127.102375 229.543877 
Q 126.539875 230.102627 126.446125 231.203252 
Q 126.832375 230.916377 127.282375 230.773877 
Q 127.73425 230.629502 128.268625 230.629502 
Q 129.60925 230.629502 130.432375 231.415127 
Q 131.2555 232.198877 131.2555 233.470127 
Q 131.2555 234.876377 130.334875 235.723877 
Q 129.416125 236.571377 127.86925 236.571377 
Q 126.164875 236.571377 125.22925 235.420127 
Q 124.2955 234.267002 124.2955 232.152002 
Q 124.2955 229.984502 125.388625 228.745127 
Q 126.48175 227.505752 128.384875 227.505752 
Q 128.988625 227.505752 129.55675 227.599502 
Q 130.124875 227.693252 130.68175 227.880752 
z
M 133.125109 234.133877 
L 135.234484 234.133877 
L 135.234484 236.400752 
L 133.125109 236.400752 
L 133.125109 234.133877 
z
M 137.865578 234.842627 
L 139.858703 234.842627 
L 139.858703 229.187627 
L 137.813078 229.609502 
L 137.813078 228.073877 
L 139.845578 227.652002 
L 141.990578 227.652002 
L 141.990578 234.842627 
L 143.983703 234.842627 
L 143.983703 236.400752 
L 137.865578 236.400752 
L 137.865578 234.842627 
z
M 146.215188 234.842627 
L 148.208313 234.842627 
L 148.208313 229.187627 
L 146.162688 229.609502 
L 146.162688 228.073877 
L 148.195188 227.652002 
L 150.340188 227.652002 
L 150.340188 234.842627 
L 152.333313 234.842627 
L 152.333313 236.400752 
L 146.215188 236.400752 
L 146.215188 234.842627 
z
" style="fill: #efb792"/>
   </g>
   <g id="text_17">
    <path d="M 259.383625 231.612463 
Q 258.791125 231.612463 258.494875 231.996838 
Q 258.198625 232.379338 258.198625 233.148088 
Q 258.198625 233.914963 258.494875 234.299338 
Q 258.791125 234.681838 259.383625 234.681838 
Q 259.979875 234.681838 260.276125 234.299338 
Q 260.572375 233.914963 260.572375 233.148088 
Q 260.572375 232.379338 260.276125 231.996838 
Q 259.979875 231.612463 259.383625 231.612463 
z
M 262.17175 227.410588 
L 262.17175 229.028713 
Q 261.614875 228.764338 261.12175 228.638713 
Q 260.6305 228.513088 260.16175 228.513088 
Q 259.154875 228.513088 258.592375 229.073713 
Q 258.029875 229.632463 257.936125 230.733088 
Q 258.322375 230.446213 258.772375 230.303713 
Q 259.22425 230.159338 259.758625 230.159338 
Q 261.09925 230.159338 261.922375 230.944963 
Q 262.7455 231.728713 262.7455 232.999963 
Q 262.7455 234.406213 261.824875 235.253713 
Q 260.906125 236.101213 259.35925 236.101213 
Q 257.654875 236.101213 256.71925 234.949963 
Q 255.7855 233.796838 255.7855 231.681838 
Q 255.7855 229.514338 256.878625 228.274963 
Q 257.97175 227.035588 259.874875 227.035588 
Q 260.478625 227.035588 261.04675 227.129338 
Q 261.614875 227.223088 262.17175 227.410588 
z
M 264.615109 233.663713 
L 266.724484 233.663713 
L 266.724484 235.930588 
L 264.615109 235.930588 
L 264.615109 233.663713 
z
M 269.355578 234.372463 
L 271.348703 234.372463 
L 271.348703 228.717463 
L 269.303078 229.139338 
L 269.303078 227.603713 
L 271.335578 227.181838 
L 273.480578 227.181838 
L 273.480578 234.372463 
L 275.473703 234.372463 
L 275.473703 235.930588 
L 269.355578 235.930588 
L 269.355578 234.372463 
z
M 277.101438 227.181838 
L 283.693938 227.181838 
L 283.693938 228.453088 
L 280.283313 235.930588 
L 278.085813 235.930588 
L 281.314563 228.841213 
L 277.101438 228.841213 
L 277.101438 227.181838 
z
" style="fill: #efb792; stroke: #ffffff; stroke-width: 3"/>
    <path d="M 259.383625 231.612463 
Q 258.791125 231.612463 258.494875 231.996838 
Q 258.198625 232.379338 258.198625 233.148088 
Q 258.198625 233.914963 258.494875 234.299338 
Q 258.791125 234.681838 259.383625 234.681838 
Q 259.979875 234.681838 260.276125 234.299338 
Q 260.572375 233.914963 260.572375 233.148088 
Q 260.572375 232.379338 260.276125 231.996838 
Q 259.979875 231.612463 259.383625 231.612463 
z
M 262.17175 227.410588 
L 262.17175 229.028713 
Q 261.614875 228.764338 261.12175 228.638713 
Q 260.6305 228.513088 260.16175 228.513088 
Q 259.154875 228.513088 258.592375 229.073713 
Q 258.029875 229.632463 257.936125 230.733088 
Q 258.322375 230.446213 258.772375 230.303713 
Q 259.22425 230.159338 259.758625 230.159338 
Q 261.09925 230.159338 261.922375 230.944963 
Q 262.7455 231.728713 262.7455 232.999963 
Q 262.7455 234.406213 261.824875 235.253713 
Q 260.906125 236.101213 259.35925 236.101213 
Q 257.654875 236.101213 256.71925 234.949963 
Q 255.7855 233.796838 255.7855 231.681838 
Q 255.7855 229.514338 256.878625 228.274963 
Q 257.97175 227.035588 259.874875 227.035588 
Q 260.478625 227.035588 261.04675 227.129338 
Q 261.614875 227.223088 262.17175 227.410588 
z
M 264.615109 233.663713 
L 266.724484 233.663713 
L 266.724484 235.930588 
L 264.615109 235.930588 
L 264.615109 233.663713 
z
M 269.355578 234.372463 
L 271.348703 234.372463 
L 271.348703 228.717463 
L 269.303078 229.139338 
L 269.303078 227.603713 
L 271.335578 227.181838 
L 273.480578 227.181838 
L 273.480578 234.372463 
L 275.473703 234.372463 
L 275.473703 235.930588 
L 269.355578 235.930588 
L 269.355578 234.372463 
z
M 277.101438 227.181838 
L 283.693938 227.181838 
L 283.693938 228.453088 
L 280.283313 235.930588 
L 278.085813 235.930588 
L 281.314563 228.841213 
L 277.101438 228.841213 
L 277.101438 227.181838 
z
" style="fill: #efb792"/>
   </g>
   <g id="text_18">
    <path d="M 387.802375 231.18729 
L 393.4105 231.18729 
L 393.4105 232.846665 
L 389.602375 232.846665 
L 389.602375 234.200415 
Q 389.85925 234.129165 390.119875 234.091665 
Q 390.3805 234.05229 390.66175 234.05229 
Q 392.261125 234.05229 393.15175 234.852915 
Q 394.042375 235.65354 394.042375 237.08229 
Q 394.042375 238.49979 393.073 239.304165 
Q 392.103625 240.106665 390.3805 240.106665 
Q 389.636125 240.106665 388.90675 239.96229 
Q 388.177375 239.817915 387.457375 239.525415 
L 387.457375 237.74979 
Q 388.17175 238.160415 388.813 238.366665 
Q 389.45425 238.57104 390.02425 238.57104 
Q 390.843625 238.57104 391.31425 238.16979 
Q 391.78675 237.76854 391.78675 237.08229 
Q 391.78675 236.390415 391.31425 235.992915 
Q 390.843625 235.59354 390.02425 235.59354 
Q 389.53675 235.59354 388.9855 235.72104 
Q 388.436125 235.846665 387.802375 236.109165 
L 387.802375 231.18729 
z
M 396.105109 237.669165 
L 398.214484 237.669165 
L 398.214484 239.93604 
L 396.105109 239.93604 
L 396.105109 237.669165 
z
M 403.781828 235.617915 
Q 403.189328 235.617915 402.893078 236.00229 
Q 402.596828 236.38479 402.596828 237.15354 
Q 402.596828 237.920415 402.893078 238.30479 
Q 403.189328 238.68729 403.781828 238.68729 
Q 404.378078 238.68729 404.674328 238.30479 
Q 404.970578 237.920415 404.970578 237.15354 
Q 404.970578 236.38479 404.674328 236.00229 
Q 404.378078 235.617915 403.781828 235.617915 
z
M 406.569953 231.41604 
L 406.569953 233.034165 
Q 406.013078 232.76979 405.519953 232.644165 
Q 405.028703 232.51854 404.559953 232.51854 
Q 403.553078 232.51854 402.990578 233.079165 
Q 402.428078 233.637915 402.334328 234.73854 
Q 402.720578 234.451665 403.170578 234.309165 
Q 403.622453 234.16479 404.156828 234.16479 
Q 405.497453 234.16479 406.320578 234.950415 
Q 407.143703 235.734165 407.143703 237.005415 
Q 407.143703 238.411665 406.223078 239.259165 
Q 405.304328 240.106665 403.757453 240.106665 
Q 402.053078 240.106665 401.117453 238.955415 
Q 400.183703 237.80229 400.183703 235.68729 
Q 400.183703 233.51979 401.276828 232.280415 
Q 402.369953 231.04104 404.273078 231.04104 
Q 404.876828 231.04104 405.444953 231.13479 
Q 406.013078 231.22854 406.569953 231.41604 
z
M 412.131437 235.617915 
Q 411.538937 235.617915 411.242687 236.00229 
Q 410.946438 236.38479 410.946438 237.15354 
Q 410.946438 237.920415 411.242687 238.30479 
Q 411.538937 238.68729 412.131437 238.68729 
Q 412.727688 238.68729 413.023937 238.30479 
Q 413.320187 237.920415 413.320187 237.15354 
Q 413.320187 236.38479 413.023937 236.00229 
Q 412.727688 235.617915 412.131437 235.617915 
z
M 414.919562 231.41604 
L 414.919562 233.034165 
Q 414.362687 232.76979 413.869562 232.644165 
Q 413.378312 232.51854 412.909562 232.51854 
Q 411.902687 232.51854 411.340187 233.079165 
Q 410.777687 233.637915 410.683937 234.73854 
Q 411.070187 234.451665 411.520187 234.309165 
Q 411.972062 234.16479 412.506437 234.16479 
Q 413.847062 234.16479 414.670187 234.950415 
Q 415.493313 235.734165 415.493313 237.005415 
Q 415.493313 238.411665 414.572687 239.259165 
Q 413.653937 240.106665 412.107062 240.106665 
Q 410.402687 240.106665 409.467062 238.955415 
Q 408.533312 237.80229 408.533312 235.68729 
Q 408.533312 233.51979 409.626437 232.280415 
Q 410.719562 231.04104 412.622687 231.04104 
Q 413.226437 231.04104 413.794562 231.13479 
Q 414.362687 231.22854 414.919562 231.41604 
z
" style="fill: #efb792; stroke: #ffffff; stroke-width: 3"/>
    <path d="M 387.802375 231.18729 
L 393.4105 231.18729 
L 393.4105 232.846665 
L 389.602375 232.846665 
L 389.602375 234.200415 
Q 389.85925 234.129165 390.119875 234.091665 
Q 390.3805 234.05229 390.66175 234.05229 
Q 392.261125 234.05229 393.15175 234.852915 
Q 394.042375 235.65354 394.042375 237.08229 
Q 394.042375 238.49979 393.073 239.304165 
Q 392.103625 240.106665 390.3805 240.106665 
Q 389.636125 240.106665 388.90675 239.96229 
Q 388.177375 239.817915 387.457375 239.525415 
L 387.457375 237.74979 
Q 388.17175 238.160415 388.813 238.366665 
Q 389.45425 238.57104 390.02425 238.57104 
Q 390.843625 238.57104 391.31425 238.16979 
Q 391.78675 237.76854 391.78675 237.08229 
Q 391.78675 236.390415 391.31425 235.992915 
Q 390.843625 235.59354 390.02425 235.59354 
Q 389.53675 235.59354 388.9855 235.72104 
Q 388.436125 235.846665 387.802375 236.109165 
L 387.802375 231.18729 
z
M 396.105109 237.669165 
L 398.214484 237.669165 
L 398.214484 239.93604 
L 396.105109 239.93604 
L 396.105109 237.669165 
z
M 403.781828 235.617915 
Q 403.189328 235.617915 402.893078 236.00229 
Q 402.596828 236.38479 402.596828 237.15354 
Q 402.596828 237.920415 402.893078 238.30479 
Q 403.189328 238.68729 403.781828 238.68729 
Q 404.378078 238.68729 404.674328 238.30479 
Q 404.970578 237.920415 404.970578 237.15354 
Q 404.970578 236.38479 404.674328 236.00229 
Q 404.378078 235.617915 403.781828 235.617915 
z
M 406.569953 231.41604 
L 406.569953 233.034165 
Q 406.013078 232.76979 405.519953 232.644165 
Q 405.028703 232.51854 404.559953 232.51854 
Q 403.553078 232.51854 402.990578 233.079165 
Q 402.428078 233.637915 402.334328 234.73854 
Q 402.720578 234.451665 403.170578 234.309165 
Q 403.622453 234.16479 404.156828 234.16479 
Q 405.497453 234.16479 406.320578 234.950415 
Q 407.143703 235.734165 407.143703 237.005415 
Q 407.143703 238.411665 406.223078 239.259165 
Q 405.304328 240.106665 403.757453 240.106665 
Q 402.053078 240.106665 401.117453 238.955415 
Q 400.183703 237.80229 400.183703 235.68729 
Q 400.183703 233.51979 401.276828 232.280415 
Q 402.369953 231.04104 404.273078 231.04104 
Q 404.876828 231.04104 405.444953 231.13479 
Q 406.013078 231.22854 406.569953 231.41604 
z
M 412.131437 235.617915 
Q 411.538937 235.617915 411.242687 236.00229 
Q 410.946438 236.38479 410.946438 237.15354 
Q 410.946438 237.920415 411.242687 238.30479 
Q 411.538937 238.68729 412.131437 238.68729 
Q 412.727688 238.68729 413.023937 238.30479 
Q 413.320187 237.920415 413.320187 237.15354 
Q 413.320187 236.38479 413.023937 236.00229 
Q 412.727688 235.617915 412.131437 235.617915 
z
M 414.919562 231.41604 
L 414.919562 233.034165 
Q 414.362687 232.76979 413.869562 232.644165 
Q 413.378312 232.51854 412.909562 232.51854 
Q 411.902687 232.51854 411.340187 233.079165 
Q 410.777687 233.637915 410.683937 234.73854 
Q 411.070187 234.451665 411.520187 234.309165 
Q 411.972062 234.16479 412.506437 234.16479 
Q 413.847062 234.16479 414.670187 234.950415 
Q 415.493313 235.734165 415.493313 237.005415 
Q 415.493313 238.411665 414.572687 239.259165 
Q 413.653937 240.106665 412.107062 240.106665 
Q 410.402687 240.106665 409.467062 238.955415 
Q 408.533312 237.80229 408.533312 235.68729 
Q 408.533312 233.51979 409.626437 232.280415 
Q 410.719562 231.04104 412.622687 231.04104 
Q 413.226437 231.04104 413.794562 231.13479 
Q 414.362687 231.22854 414.919562 231.41604 
z
" style="fill: #efb792"/>
   </g>
   <g id="text_19">
    <!-- Lock -->
    <g style="fill: #262626" transform="translate(229.863438 16.318125) scale(0.12 -0.12)">
     <defs>
      <path id="DejaVuSans-4c" d="M 628 4666 
L 1259 4666 
L 1259 531 
L 3531 531 
L 3531 0 
L 628 0 
L 628 4666 
z
" transform="scale(0.015625)"/>
      <path id="DejaVuSans-63" d="M 3122 3366 
L 3122 2828 
Q 2878 2963 2633 3030 
Q 2388 3097 2138 3097 
Q 1578 3097 1268 2742 
Q 959 2388 959 1747 
Q 959 1106 1268 751 
Q 1578 397 2138 397 
Q 2388 397 2633 464 
Q 2878 531 3122 666 
L 3122 134 
Q 2881 22 2623 -34 
Q 2366 -91 2075 -91 
Q 1284 -91 818 406 
Q 353 903 353 1747 
Q 353 2603 823 3093 
Q 1294 3584 2113 3584 
Q 2378 3584 2631 3529 
Q 2884 3475 3122 3366 
z
" transform="scale(0.015625)"/>
      <path id="DejaVuSans-6b" d="M 581 4863 
L 1159 4863 
L 1159 1991 
L 2875 3500 
L 3609 3500 
L 1753 1863 
L 3688 0 
L 2938 0 
L 1159 1709 
L 1159 0 
L 581 0 
L 581 4863 
z
" transform="scale(0.015625)"/>
     </defs>
     <use xlink:href="#DejaVuSans-4c"/>
     <use xlink:href="#DejaVuSans-6f" x="53.962891"/>
     <use xlink:href="#DejaVuSans-63" x="115.144531"/>
     <use xlink:href="#DejaVuSans-6b" x="170.125"/>
    </g>
   </g>
   <g id="legend_1">
    <g id="patch_11">
     <path d="M 361.685625 182.007812 
L 433.08125 182.007812 
Q 435.28125 182.007812 435.28125 179.807812 
L 435.28125 131.168437 
Q 435.28125 128.968437 433.08125 128.968437 
L 361.685625 128.968437 
Q 359.485625 128.968437 359.485625 131.168437 
L 359.485625 179.807812 
Q 359.485625 182.007812 361.685625 182.007812 
z
" style="fill: #eaeaf2; opacity: 0.8; stroke: #cccccc; stroke-linejoin: miter"/>
    </g>
    <g id="text_20">
     <!-- with_cache -->
     <g style="fill: #262626" transform="translate(363.885625 142.486562) scale(0.12 -0.12)">
      <defs>
       <path id="DejaVuSans-77" d="M 269 3500 
L 844 3500 
L 1563 769 
L 2278 3500 
L 2956 3500 
L 3675 769 
L 4391 3500 
L 4966 3500 
L 4050 0 
L 3372 0 
L 2619 2869 
L 1863 0 
L 1184 0 
L 269 3500 
z
" transform="scale(0.015625)"/>
       <path id="DejaVuSans-5f" d="M 3263 -1063 
L 3263 -1509 
L -63 -1509 
L -63 -1063 
L 3263 -1063 
z
" transform="scale(0.015625)"/>
       <path id="DejaVuSans-61" d="M 2194 1759 
Q 1497 1759 1228 1600 
Q 959 1441 959 1056 
Q 959 750 1161 570 
Q 1363 391 1709 391 
Q 2188 391 2477 730 
Q 2766 1069 2766 1631 
L 2766 1759 
L 2194 1759 
z
M 3341 1997 
L 3341 0 
L 2766 0 
L 2766 531 
Q 2569 213 2275 61 
Q 1981 -91 1556 -91 
Q 1019 -91 701 211 
Q 384 513 384 1019 
Q 384 1609 779 1909 
Q 1175 2209 1959 2209 
L 2766 2209 
L 2766 2266 
Q 2766 2663 2505 2880 
Q 2244 3097 1772 3097 
Q 1472 3097 1187 3025 
Q 903 2953 641 2809 
L 641 3341 
Q 956 3463 1253 3523 
Q 1550 3584 1831 3584 
Q 2591 3584 2966 3190 
Q 3341 2797 3341 1997 
z
" transform="scale(0.015625)"/>
      </defs>
      <use xlink:href="#DejaVuSans-77"/>
      <use xlink:href="#DejaVuSans-69" x="81.787109"/>
      <use xlink:href="#DejaVuSans-74" x="109.570312"/>
      <use xlink:href="#DejaVuSans-68" x="148.779297"/>
      <use xlink:href="#DejaVuSans-5f" x="212.158203"/>
      <use xlink:href="#DejaVuSans-63" x="262.158203"/>
      <use xlink:href="#DejaVuSans-61" x="317.138672"/>
      <use xlink:href="#DejaVuSans-63" x="378.417969"/>
      <use xlink:href="#DejaVuSans-68" x="433.398438"/>
      <use xlink:href="#DejaVuSans-65" x="496.777344"/>
     </g>
    </g>
    <g id="patch_12">
     <path d="M 368.174141 159.174219 
L 390.174141 159.174219 
L 390.174141 151.474219 
L 368.174141 151.474219 
z
" style="fill: #abc9ea; stroke: #ffffff; stroke-linejoin: miter"/>
    </g>
    <g id="text_21">
     <!-- False -->
     <g style="fill: #262626" transform="translate(398.974141 159.174219) scale(0.11 -0.11)">
      <defs>
       <path id="DejaVuSans-46" d="M 628 4666 
L 3309 4666 
L 3309 4134 
L 1259 4134 
L 1259 2759 
L 3109 2759 
L 3109 2228 
L 1259 2228 
L 1259 0 
L 628 0 
L 628 4666 
z
" transform="scale(0.015625)"/>
       <path id="DejaVuSans-6c" d="M 603 4863 
L 1178 4863 
L 1178 0 
L 603 0 
L 603 4863 
z
" transform="scale(0.015625)"/>
      </defs>
      <use xlink:href="#DejaVuSans-46"/>
      <use xlink:href="#DejaVuSans-61" x="48.394531"/>
      <use xlink:href="#DejaVuSans-6c" x="109.673828"/>
      <use xlink:href="#DejaVuSans-73" x="137.457031"/>
      <use xlink:href="#DejaVuSans-65" x="189.556641"/>
     </g>
    </g>
    <g id="patch_13">
     <path d="M 368.174141 175.320156 
L 390.174141 175.320156 
L 390.174141 167.620156 
L 368.174141 167.620156 
z
" style="fill: #efb792; stroke: #ffffff; stroke-linejoin: miter"/>
    </g>
    <g id="text_22">
     <!-- True -->
     <g style="fill: #262626" transform="translate(398.974141 175.320156) scale(0.11 -0.11)">
      <defs>
       <path id="DejaVuSans-75" d="M 544 1381 
L 544 3500 
L 1119 3500 
L 1119 1403 
Q 1119 906 1312 657 
Q 1506 409 1894 409 
Q 2359 409 2629 706 
Q 2900 1003 2900 1516 
L 2900 3500 
L 3475 3500 
L 3475 0 
L 2900 0 
L 2900 538 
Q 2691 219 2414 64 
Q 2138 -91 1772 -91 
Q 1169 -91 856 284 
Q 544 659 544 1381 
z
M 1991 3584 
L 1991 3584 
z
" transform="scale(0.015625)"/>
      </defs>
      <use xlink:href="#DejaVuSans-54"/>
      <use xlink:href="#DejaVuSans-72" x="46.333984"/>
      <use xlink:href="#DejaVuSans-75" x="87.447266"/>
      <use xlink:href="#DejaVuSans-65" x="150.826172"/>
     </g>
    </g>
   </g>
  </g>
 </g>
 <defs>
  <clipPath id="pff22871d87">
   <rect x="46.31125" y="22.318125" width="394.47" height="266.34"/>
  </clipPath>
 </defs>
</svg>
