<?xml version="1.0" encoding="utf-8" standalone="no"?>
<!DOCTYPE svg PUBLIC "-//W3C//DTD SVG 1.1//EN"
  "http://www.w3.org/Graphics/SVG/1.1/DTD/svg11.dtd">
<svg xmlns:xlink="http://www.w3.org/1999/xlink" width="447.98125pt" height="331.617812pt" viewBox="0 0 447.98125 331.617812" xmlns="http://www.w3.org/2000/svg" version="1.1">
 <metadata>
  <rdf:RDF xmlns:dc="http://purl.org/dc/elements/1.1/" xmlns:cc="http://creativecommons.org/ns#" xmlns:rdf="http://www.w3.org/1999/02/22-rdf-syntax-ns#">
   <cc:Work>
    <dc:type rdf:resource="http://purl.org/dc/dcmitype/StillImage"/>
    <dc:date>2024-10-22T16:20:15.334205</dc:date>
    <dc:format>image/svg+xml</dc:format>
    <dc:creator>
     <cc:Agent>
      <dc:title>Matplotlib v3.9.2, https://matplotlib.org/</dc:title>
     </cc:Agent>
    </dc:creator>
   </cc:Work>
  </rdf:RDF>
 </metadata>
 <defs>
  <style type="text/css">*{stroke-linejoin: round; stroke-linecap: butt}</style>
 </defs>
 <g id="figure_1">
  <g id="patch_1">
   <path d="M 0 331.617812 
L 447.98125 331.617812 
L 447.98125 0 
L 0 0 
L 0 331.617812 
z
" style="fill: none"/>
  </g>
  <g id="axes_1">
   <g id="patch_2">
    <path d="M 46.31125 288.658125 
L 440.78125 288.658125 
L 440.78125 22.318125 
L 46.31125 22.318125 
L 46.31125 288.658125 
z
" style="fill: none"/>
   </g>
   <g id="matplotlib.axis_1">
    <g id="xtick_1">
     <g id="text_1">
      <!-- 3.11 -->
      <g style="fill: #262626" transform="translate(99.810156 306.516406) scale(0.11 -0.11)">
       <defs>
        <path id="DejaVuSans-33" d="M 2597 2516 
Q 3050 2419 3304 2112 
Q 3559 1806 3559 1356 
Q 3559 666 3084 287 
Q 2609 -91 1734 -91 
Q 1441 -91 1130 -33 
Q 819 25 488 141 
L 488 750 
Q 750 597 1062 519 
Q 1375 441 1716 441 
Q 2309 441 2620 675 
Q 2931 909 2931 1356 
Q 2931 1769 2642 2001 
Q 2353 2234 1838 2234 
L 1294 2234 
L 1294 2753 
L 1863 2753 
Q 2328 2753 2575 2939 
Q 2822 3125 2822 3475 
Q 2822 3834 2567 4026 
Q 2313 4219 1838 4219 
Q 1578 4219 1281 4162 
Q 984 4106 628 3988 
L 628 4550 
Q 988 4650 1302 4700 
Q 1616 4750 1894 4750 
Q 2613 4750 3031 4423 
Q 3450 4097 3450 3541 
Q 3450 3153 3228 2886 
Q 3006 2619 2597 2516 
z
" transform="scale(0.015625)"/>
        <path id="DejaVuSans-2e" d="M 684 794 
L 1344 794 
L 1344 0 
L 684 0 
L 684 794 
z
" transform="scale(0.015625)"/>
        <path id="DejaVuSans-31" d="M 794 531 
L 1825 531 
L 1825 4091 
L 703 3866 
L 703 4441 
L 1819 4666 
L 2450 4666 
L 2450 531 
L 3481 531 
L 3481 0 
L 794 0 
L 794 531 
z
" transform="scale(0.015625)"/>
       </defs>
       <use xlink:href="#DejaVuSans-33"/>
       <use xlink:href="#DejaVuSans-2e" x="63.623047"/>
       <use xlink:href="#DejaVuSans-31" x="95.410156"/>
       <use xlink:href="#DejaVuSans-31" x="159.033203"/>
      </g>
     </g>
    </g>
    <g id="xtick_2">
     <g id="text_2">
      <!-- 3.12 -->
      <g style="fill: #262626" transform="translate(231.300156 306.516406) scale(0.11 -0.11)">
       <defs>
        <path id="DejaVuSans-32" d="M 1228 531 
L 3431 531 
L 3431 0 
L 469 0 
L 469 531 
Q 828 903 1448 1529 
Q 2069 2156 2228 2338 
Q 2531 2678 2651 2914 
Q 2772 3150 2772 3378 
Q 2772 3750 2511 3984 
Q 2250 4219 1831 4219 
Q 1534 4219 1204 4116 
Q 875 4013 500 3803 
L 500 4441 
Q 881 4594 1212 4672 
Q 1544 4750 1819 4750 
Q 2544 4750 2975 4387 
Q 3406 4025 3406 3419 
Q 3406 3131 3298 2873 
Q 3191 2616 2906 2266 
Q 2828 2175 2409 1742 
Q 1991 1309 1228 531 
z
" transform="scale(0.015625)"/>
       </defs>
       <use xlink:href="#DejaVuSans-33"/>
       <use xlink:href="#DejaVuSans-2e" x="63.623047"/>
       <use xlink:href="#DejaVuSans-31" x="95.410156"/>
       <use xlink:href="#DejaVuSans-32" x="159.033203"/>
      </g>
     </g>
    </g>
    <g id="xtick_3">
     <g id="text_3">
      <!-- 3.13 -->
      <g style="fill: #262626" transform="translate(362.790156 306.516406) scale(0.11 -0.11)">
       <use xlink:href="#DejaVuSans-33"/>
       <use xlink:href="#DejaVuSans-2e" x="63.623047"/>
       <use xlink:href="#DejaVuSans-31" x="95.410156"/>
       <use xlink:href="#DejaVuSans-33" x="159.033203"/>
      </g>
     </g>
    </g>
    <g id="text_4">
     <!-- Python Version -->
     <g style="fill: #262626" transform="translate(198.777813 321.922187) scale(0.12 -0.12)">
      <defs>
       <path id="DejaVuSans-50" d="M 1259 4147 
L 1259 2394 
L 2053 2394 
Q 2494 2394 2734 2622 
Q 2975 2850 2975 3272 
Q 2975 3691 2734 3919 
Q 2494 4147 2053 4147 
L 1259 4147 
z
M 628 4666 
L 2053 4666 
Q 2838 4666 3239 4311 
Q 3641 3956 3641 3272 
Q 3641 2581 3239 2228 
Q 2838 1875 2053 1875 
L 1259 1875 
L 1259 0 
L 628 0 
L 628 4666 
z
" transform="scale(0.015625)"/>
       <path id="DejaVuSans-79" d="M 2059 -325 
Q 1816 -950 1584 -1140 
Q 1353 -1331 966 -1331 
L 506 -1331 
L 506 -850 
L 844 -850 
Q 1081 -850 1212 -737 
Q 1344 -625 1503 -206 
L 1606 56 
L 191 3500 
L 800 3500 
L 1894 763 
L 2988 3500 
L 3597 3500 
L 2059 -325 
z
" transform="scale(0.015625)"/>
       <path id="DejaVuSans-74" d="M 1172 4494 
L 1172 3500 
L 2356 3500 
L 2356 3053 
L 1172 3053 
L 1172 1153 
Q 1172 725 1289 603 
Q 1406 481 1766 481 
L 2356 481 
L 2356 0 
L 1766 0 
Q 1100 0 847 248 
Q 594 497 594 1153 
L 594 3053 
L 172 3053 
L 172 3500 
L 594 3500 
L 594 4494 
L 1172 4494 
z
" transform="scale(0.015625)"/>
       <path id="DejaVuSans-68" d="M 3513 2113 
L 3513 0 
L 2938 0 
L 2938 2094 
Q 2938 2591 2744 2837 
Q 2550 3084 2163 3084 
Q 1697 3084 1428 2787 
Q 1159 2491 1159 1978 
L 1159 0 
L 581 0 
L 581 4863 
L 1159 4863 
L 1159 2956 
Q 1366 3272 1645 3428 
Q 1925 3584 2291 3584 
Q 2894 3584 3203 3211 
Q 3513 2838 3513 2113 
z
" transform="scale(0.015625)"/>
       <path id="DejaVuSans-6f" d="M 1959 3097 
Q 1497 3097 1228 2736 
Q 959 2375 959 1747 
Q 959 1119 1226 758 
Q 1494 397 1959 397 
Q 2419 397 2687 759 
Q 2956 1122 2956 1747 
Q 2956 2369 2687 2733 
Q 2419 3097 1959 3097 
z
M 1959 3584 
Q 2709 3584 3137 3096 
Q 3566 2609 3566 1747 
Q 3566 888 3137 398 
Q 2709 -91 1959 -91 
Q 1206 -91 779 398 
Q 353 888 353 1747 
Q 353 2609 779 3096 
Q 1206 3584 1959 3584 
z
" transform="scale(0.015625)"/>
       <path id="DejaVuSans-6e" d="M 3513 2113 
L 3513 0 
L 2938 0 
L 2938 2094 
Q 2938 2591 2744 2837 
Q 2550 3084 2163 3084 
Q 1697 3084 1428 2787 
Q 1159 2491 1159 1978 
L 1159 0 
L 581 0 
L 581 3500 
L 1159 3500 
L 1159 2956 
Q 1366 3272 1645 3428 
Q 1925 3584 2291 3584 
Q 2894 3584 3203 3211 
Q 3513 2838 3513 2113 
z
" transform="scale(0.015625)"/>
       <path id="DejaVuSans-20" transform="scale(0.015625)"/>
       <path id="DejaVuSans-56" d="M 1831 0 
L 50 4666 
L 709 4666 
L 2188 738 
L 3669 4666 
L 4325 4666 
L 2547 0 
L 1831 0 
z
" transform="scale(0.015625)"/>
       <path id="DejaVuSans-65" d="M 3597 1894 
L 3597 1613 
L 953 1613 
Q 991 1019 1311 708 
Q 1631 397 2203 397 
Q 2534 397 2845 478 
Q 3156 559 3463 722 
L 3463 178 
Q 3153 47 2828 -22 
Q 2503 -91 2169 -91 
Q 1331 -91 842 396 
Q 353 884 353 1716 
Q 353 2575 817 3079 
Q 1281 3584 2069 3584 
Q 2775 3584 3186 3129 
Q 3597 2675 3597 1894 
z
M 3022 2063 
Q 3016 2534 2758 2815 
Q 2500 3097 2075 3097 
Q 1594 3097 1305 2825 
Q 1016 2553 972 2059 
L 3022 2063 
z
" transform="scale(0.015625)"/>
       <path id="DejaVuSans-72" d="M 2631 2963 
Q 2534 3019 2420 3045 
Q 2306 3072 2169 3072 
Q 1681 3072 1420 2755 
Q 1159 2438 1159 1844 
L 1159 0 
L 581 0 
L 581 3500 
L 1159 3500 
L 1159 2956 
Q 1341 3275 1631 3429 
Q 1922 3584 2338 3584 
Q 2397 3584 2469 3576 
Q 2541 3569 2628 3553 
L 2631 2963 
z
" transform="scale(0.015625)"/>
       <path id="DejaVuSans-73" d="M 2834 3397 
L 2834 2853 
Q 2591 2978 2328 3040 
Q 2066 3103 1784 3103 
Q 1356 3103 1142 2972 
Q 928 2841 928 2578 
Q 928 2378 1081 2264 
Q 1234 2150 1697 2047 
L 1894 2003 
Q 2506 1872 2764 1633 
Q 3022 1394 3022 966 
Q 3022 478 2636 193 
Q 2250 -91 1575 -91 
Q 1294 -91 989 -36 
Q 684 19 347 128 
L 347 722 
Q 666 556 975 473 
Q 1284 391 1588 391 
Q 1994 391 2212 530 
Q 2431 669 2431 922 
Q 2431 1156 2273 1281 
Q 2116 1406 1581 1522 
L 1381 1569 
Q 847 1681 609 1914 
Q 372 2147 372 2553 
Q 372 3047 722 3315 
Q 1072 3584 1716 3584 
Q 2034 3584 2315 3537 
Q 2597 3491 2834 3397 
z
" transform="scale(0.015625)"/>
       <path id="DejaVuSans-69" d="M 603 3500 
L 1178 3500 
L 1178 0 
L 603 0 
L 603 3500 
z
M 603 4863 
L 1178 4863 
L 1178 4134 
L 603 4134 
L 603 4863 
z
" transform="scale(0.015625)"/>
      </defs>
      <use xlink:href="#DejaVuSans-50"/>
      <use xlink:href="#DejaVuSans-79" x="60.302734"/>
      <use xlink:href="#DejaVuSans-74" x="119.482422"/>
      <use xlink:href="#DejaVuSans-68" x="158.691406"/>
      <use xlink:href="#DejaVuSans-6f" x="222.070312"/>
      <use xlink:href="#DejaVuSans-6e" x="283.251953"/>
      <use xlink:href="#DejaVuSans-20" x="346.630859"/>
      <use xlink:href="#DejaVuSans-56" x="378.417969"/>
      <use xlink:href="#DejaVuSans-65" x="439.076172"/>
      <use xlink:href="#DejaVuSans-72" x="500.599609"/>
      <use xlink:href="#DejaVuSans-73" x="541.712891"/>
      <use xlink:href="#DejaVuSans-69" x="593.8125"/>
      <use xlink:href="#DejaVuSans-6f" x="621.595703"/>
      <use xlink:href="#DejaVuSans-6e" x="682.777344"/>
     </g>
    </g>
   </g>
   <g id="matplotlib.axis_2">
    <g id="ytick_1">
     <g id="text_5">
      <!-- 0 -->
      <g style="fill: #262626" transform="translate(29.8125 292.837266) scale(0.11 -0.11)">
       <defs>
        <path id="DejaVuSans-30" d="M 2034 4250 
Q 1547 4250 1301 3770 
Q 1056 3291 1056 2328 
Q 1056 1369 1301 889 
Q 1547 409 2034 409 
Q 2525 409 2770 889 
Q 3016 1369 3016 2328 
Q 3016 3291 2770 3770 
Q 2525 4250 2034 4250 
z
M 2034 4750 
Q 2819 4750 3233 4129 
Q 3647 3509 3647 2328 
Q 3647 1150 3233 529 
Q 2819 -91 2034 -91 
Q 1250 -91 836 529 
Q 422 1150 422 2328 
Q 422 3509 836 4129 
Q 1250 4750 2034 4750 
z
" transform="scale(0.015625)"/>
       </defs>
       <use xlink:href="#DejaVuSans-30"/>
      </g>
     </g>
    </g>
    <g id="ytick_2">
     <g id="text_6">
      <!-- 5 -->
      <g style="fill: #262626" transform="translate(29.8125 252.356921) scale(0.11 -0.11)">
       <defs>
        <path id="DejaVuSans-35" d="M 691 4666 
L 3169 4666 
L 3169 4134 
L 1269 4134 
L 1269 2991 
Q 1406 3038 1543 3061 
Q 1681 3084 1819 3084 
Q 2600 3084 3056 2656 
Q 3513 2228 3513 1497 
Q 3513 744 3044 326 
Q 2575 -91 1722 -91 
Q 1428 -91 1123 -41 
Q 819 9 494 109 
L 494 744 
Q 775 591 1075 516 
Q 1375 441 1709 441 
Q 2250 441 2565 725 
Q 2881 1009 2881 1497 
Q 2881 1984 2565 2268 
Q 2250 2553 1709 2553 
Q 1456 2553 1204 2497 
Q 953 2441 691 2322 
L 691 4666 
z
" transform="scale(0.015625)"/>
       </defs>
       <use xlink:href="#DejaVuSans-35"/>
      </g>
     </g>
    </g>
    <g id="ytick_3">
     <g id="text_7">
      <!-- 10 -->
      <g style="fill: #262626" transform="translate(22.81375 211.876576) scale(0.11 -0.11)">
       <use xlink:href="#DejaVuSans-31"/>
       <use xlink:href="#DejaVuSans-30" x="63.623047"/>
      </g>
     </g>
    </g>
    <g id="ytick_4">
     <g id="text_8">
      <!-- 15 -->
      <g style="fill: #262626" transform="translate(22.81375 171.396232) scale(0.11 -0.11)">
       <use xlink:href="#DejaVuSans-31"/>
       <use xlink:href="#DejaVuSans-35" x="63.623047"/>
      </g>
     </g>
    </g>
    <g id="ytick_5">
     <g id="text_9">
      <!-- 20 -->
      <g style="fill: #262626" transform="translate(22.81375 130.915887) scale(0.11 -0.11)">
       <use xlink:href="#DejaVuSans-32"/>
       <use xlink:href="#DejaVuSans-30" x="63.623047"/>
      </g>
     </g>
    </g>
    <g id="ytick_6">
     <g id="text_10">
      <!-- 25 -->
      <g style="fill: #262626" transform="translate(22.81375 90.435542) scale(0.11 -0.11)">
       <use xlink:href="#DejaVuSans-32"/>
       <use xlink:href="#DejaVuSans-35" x="63.623047"/>
      </g>
     </g>
    </g>
    <g id="ytick_7">
     <g id="text_11">
      <!-- 30 -->
      <g style="fill: #262626" transform="translate(22.81375 49.955197) scale(0.11 -0.11)">
       <use xlink:href="#DejaVuSans-33"/>
       <use xlink:href="#DejaVuSans-30" x="63.623047"/>
      </g>
     </g>
    </g>
    <g id="text_12">
     <!-- Time (s) -->
     <g style="fill: #262626" transform="translate(16.318125 179.882812) rotate(-90) scale(0.12 -0.12)">
      <defs>
       <path id="DejaVuSans-54" d="M -19 4666 
L 3928 4666 
L 3928 4134 
L 2272 4134 
L 2272 0 
L 1638 0 
L 1638 4134 
L -19 4134 
L -19 4666 
z
" transform="scale(0.015625)"/>
       <path id="DejaVuSans-6d" d="M 3328 2828 
Q 3544 3216 3844 3400 
Q 4144 3584 4550 3584 
Q 5097 3584 5394 3201 
Q 5691 2819 5691 2113 
L 5691 0 
L 5113 0 
L 5113 2094 
Q 5113 2597 4934 2840 
Q 4756 3084 4391 3084 
Q 3944 3084 3684 2787 
Q 3425 2491 3425 1978 
L 3425 0 
L 2847 0 
L 2847 2094 
Q 2847 2600 2669 2842 
Q 2491 3084 2119 3084 
Q 1678 3084 1418 2786 
Q 1159 2488 1159 1978 
L 1159 0 
L 581 0 
L 581 3500 
L 1159 3500 
L 1159 2956 
Q 1356 3278 1631 3431 
Q 1906 3584 2284 3584 
Q 2666 3584 2933 3390 
Q 3200 3197 3328 2828 
z
" transform="scale(0.015625)"/>
       <path id="DejaVuSans-28" d="M 1984 4856 
Q 1566 4138 1362 3434 
Q 1159 2731 1159 2009 
Q 1159 1288 1364 580 
Q 1569 -128 1984 -844 
L 1484 -844 
Q 1016 -109 783 600 
Q 550 1309 550 2009 
Q 550 2706 781 3412 
Q 1013 4119 1484 4856 
L 1984 4856 
z
" transform="scale(0.015625)"/>
       <path id="DejaVuSans-29" d="M 513 4856 
L 1013 4856 
Q 1481 4119 1714 3412 
Q 1947 2706 1947 2009 
Q 1947 1309 1714 600 
Q 1481 -109 1013 -844 
L 513 -844 
Q 928 -128 1133 580 
Q 1338 1288 1338 2009 
Q 1338 2731 1133 3434 
Q 928 4138 513 4856 
z
" transform="scale(0.015625)"/>
      </defs>
      <use xlink:href="#DejaVuSans-54"/>
      <use xlink:href="#DejaVuSans-69" x="57.958984"/>
      <use xlink:href="#DejaVuSans-6d" x="85.742188"/>
      <use xlink:href="#DejaVuSans-65" x="183.154297"/>
      <use xlink:href="#DejaVuSans-20" x="244.677734"/>
      <use xlink:href="#DejaVuSans-28" x="276.464844"/>
      <use xlink:href="#DejaVuSans-73" x="315.478516"/>
      <use xlink:href="#DejaVuSans-29" x="367.578125"/>
     </g>
    </g>
   </g>
   <g id="patch_3">
    <path d="M 59.46025 288.658125 
L 164.65225 288.658125 
L 164.65225 36.255691 
L 59.46025 36.255691 
z
" clip-path="url(#pb6d6ad31c0)" style="fill: #abc9ea; stroke: #ffffff; stroke-linejoin: miter"/>
   </g>
   <g id="patch_4">
    <path d="M 190.95025 288.658125 
L 296.14225 288.658125 
L 296.14225 54.531864 
L 190.95025 54.531864 
z
" clip-path="url(#pb6d6ad31c0)" style="fill: #abc9ea; stroke: #ffffff; stroke-linejoin: miter"/>
   </g>
   <g id="patch_5">
    <path d="M 322.44025 288.658125 
L 427.63225 288.658125 
L 427.63225 59.609878 
L 322.44025 59.609878 
z
" clip-path="url(#pb6d6ad31c0)" style="fill: #abc9ea; stroke: #ffffff; stroke-linejoin: miter"/>
   </g>
   <g id="line2d_1">
    <path d="M 112.05625 37.56065 
L 112.05625 35.000982 
" clip-path="url(#pb6d6ad31c0)" style="fill: none; stroke: #424242; stroke-width: 2.25; stroke-linecap: round"/>
   </g>
   <g id="line2d_2">
    <path d="M 243.54625 55.537071 
L 243.54625 53.296206 
" clip-path="url(#pb6d6ad31c0)" style="fill: none; stroke: #424242; stroke-width: 2.25; stroke-linecap: round"/>
   </g>
   <g id="line2d_3">
    <path d="M 375.03625 60.686682 
L 375.03625 58.30907 
" clip-path="url(#pb6d6ad31c0)" style="fill: none; stroke: #424242; stroke-width: 2.25; stroke-linecap: round"/>
   </g>
   <g id="text_13">
    <path d="M 98.667813 28.042566 
Q 99.552813 28.271316 100.012188 28.837566 
Q 100.473438 29.401941 100.473438 30.275691 
Q 100.473438 31.576941 99.475938 32.253816 
Q 98.480313 32.930691 96.571563 32.930691 
Q 95.896563 32.930691 95.219688 32.821941 
Q 94.542813 32.713191 93.880938 32.495691 
L 93.880938 30.755691 
Q 94.514688 31.072566 95.137188 31.233816 
Q 95.761563 31.395066 96.365313 31.395066 
Q 97.261563 31.395066 97.739688 31.085691 
Q 98.217813 30.774441 98.217813 30.193191 
Q 98.217813 29.595066 97.728438 29.287566 
Q 97.239063 28.980066 96.282813 28.980066 
L 95.380938 28.980066 
L 95.380938 27.526941 
L 96.329688 27.526941 
Q 97.180938 27.526941 97.595313 27.260691 
Q 98.011563 26.994441 98.011563 26.448816 
Q 98.011563 25.946316 97.606563 25.670691 
Q 97.203438 25.395066 96.464688 25.395066 
Q 95.920938 25.395066 95.364063 25.518816 
Q 94.807188 25.640691 94.255938 25.880691 
L 94.255938 24.228816 
Q 94.923438 24.041316 95.579688 23.947566 
Q 96.235938 23.853816 96.869688 23.853816 
Q 98.574063 23.853816 99.419688 24.414441 
Q 100.267188 24.973191 100.267188 26.098191 
Q 100.267188 26.865066 99.862188 27.354441 
Q 99.459063 27.843816 98.667813 28.042566 
z
M 102.834297 31.201941 
L 104.827422 31.201941 
L 104.827422 25.546941 
L 102.781797 25.968816 
L 102.781797 24.433191 
L 104.814297 24.011316 
L 106.959297 24.011316 
L 106.959297 31.201941 
L 108.952422 31.201941 
L 108.952422 32.760066 
L 102.834297 32.760066 
L 102.834297 31.201941 
z
M 111.002031 30.493191 
L 113.111406 30.493191 
L 113.111406 32.760066 
L 111.002031 32.760066 
L 111.002031 30.493191 
z
M 115.7425 31.201941 
L 117.735625 31.201941 
L 117.735625 25.546941 
L 115.69 25.968816 
L 115.69 24.433191 
L 117.7225 24.011316 
L 119.8675 24.011316 
L 119.8675 31.201941 
L 121.860625 31.201941 
L 121.860625 32.760066 
L 115.7425 32.760066 
L 115.7425 31.201941 
z
M 126.863359 28.845066 
Q 126.231484 28.845066 125.890234 29.191941 
Q 125.550859 29.536941 125.550859 30.181941 
Q 125.550859 30.826941 125.890234 31.170066 
Q 126.231484 31.511316 126.863359 31.511316 
Q 127.491484 31.511316 127.825234 31.170066 
Q 128.158984 30.826941 128.158984 30.181941 
Q 128.158984 29.531316 127.825234 29.188191 
Q 127.491484 28.845066 126.863359 28.845066 
z
M 125.217109 28.102566 
Q 124.420234 27.860691 124.015234 27.363816 
Q 123.612109 26.865066 123.612109 26.120691 
Q 123.612109 25.014441 124.437109 24.435066 
Q 125.263984 23.853816 126.863359 23.853816 
Q 128.451484 23.853816 129.276484 24.431316 
Q 130.103359 25.008816 130.103359 26.120691 
Q 130.103359 26.865066 129.696484 27.363816 
Q 129.289609 27.860691 128.492734 28.102566 
Q 129.383359 28.348191 129.837109 28.901316 
Q 130.290859 29.454441 130.290859 30.298191 
Q 130.290859 31.599441 129.426484 32.265066 
Q 128.562109 32.930691 126.863359 32.930691 
Q 125.158984 32.930691 124.288984 32.265066 
Q 123.418984 31.599441 123.418984 30.298191 
Q 123.418984 29.454441 123.872734 28.901316 
Q 124.326484 28.348191 125.217109 28.102566 
z
M 125.743984 26.349441 
Q 125.743984 26.870691 126.034609 27.151941 
Q 126.325234 27.433191 126.863359 27.433191 
Q 127.390234 27.433191 127.677109 27.151941 
Q 127.965859 26.870691 127.965859 26.349441 
Q 127.965859 25.828191 127.677109 25.550691 
Q 127.390234 25.271316 126.863359 25.271316 
Q 126.325234 25.271316 126.034609 25.552566 
Q 125.743984 25.833816 125.743984 26.349441 
z
" style="fill: #abc9ea; stroke: #ffffff; stroke-width: 3"/>
    <path d="M 98.667813 28.042566 
Q 99.552813 28.271316 100.012188 28.837566 
Q 100.473438 29.401941 100.473438 30.275691 
Q 100.473438 31.576941 99.475938 32.253816 
Q 98.480313 32.930691 96.571563 32.930691 
Q 95.896563 32.930691 95.219688 32.821941 
Q 94.542813 32.713191 93.880938 32.495691 
L 93.880938 30.755691 
Q 94.514688 31.072566 95.137188 31.233816 
Q 95.761563 31.395066 96.365313 31.395066 
Q 97.261563 31.395066 97.739688 31.085691 
Q 98.217813 30.774441 98.217813 30.193191 
Q 98.217813 29.595066 97.728438 29.287566 
Q 97.239063 28.980066 96.282813 28.980066 
L 95.380938 28.980066 
L 95.380938 27.526941 
L 96.329688 27.526941 
Q 97.180938 27.526941 97.595313 27.260691 
Q 98.011563 26.994441 98.011563 26.448816 
Q 98.011563 25.946316 97.606563 25.670691 
Q 97.203438 25.395066 96.464688 25.395066 
Q 95.920938 25.395066 95.364063 25.518816 
Q 94.807188 25.640691 94.255938 25.880691 
L 94.255938 24.228816 
Q 94.923438 24.041316 95.579688 23.947566 
Q 96.235938 23.853816 96.869688 23.853816 
Q 98.574063 23.853816 99.419688 24.414441 
Q 100.267188 24.973191 100.267188 26.098191 
Q 100.267188 26.865066 99.862188 27.354441 
Q 99.459063 27.843816 98.667813 28.042566 
z
M 102.834297 31.201941 
L 104.827422 31.201941 
L 104.827422 25.546941 
L 102.781797 25.968816 
L 102.781797 24.433191 
L 104.814297 24.011316 
L 106.959297 24.011316 
L 106.959297 31.201941 
L 108.952422 31.201941 
L 108.952422 32.760066 
L 102.834297 32.760066 
L 102.834297 31.201941 
z
M 111.002031 30.493191 
L 113.111406 30.493191 
L 113.111406 32.760066 
L 111.002031 32.760066 
L 111.002031 30.493191 
z
M 115.7425 31.201941 
L 117.735625 31.201941 
L 117.735625 25.546941 
L 115.69 25.968816 
L 115.69 24.433191 
L 117.7225 24.011316 
L 119.8675 24.011316 
L 119.8675 31.201941 
L 121.860625 31.201941 
L 121.860625 32.760066 
L 115.7425 32.760066 
L 115.7425 31.201941 
z
M 126.863359 28.845066 
Q 126.231484 28.845066 125.890234 29.191941 
Q 125.550859 29.536941 125.550859 30.181941 
Q 125.550859 30.826941 125.890234 31.170066 
Q 126.231484 31.511316 126.863359 31.511316 
Q 127.491484 31.511316 127.825234 31.170066 
Q 128.158984 30.826941 128.158984 30.181941 
Q 128.158984 29.531316 127.825234 29.188191 
Q 127.491484 28.845066 126.863359 28.845066 
z
M 125.217109 28.102566 
Q 124.420234 27.860691 124.015234 27.363816 
Q 123.612109 26.865066 123.612109 26.120691 
Q 123.612109 25.014441 124.437109 24.435066 
Q 125.263984 23.853816 126.863359 23.853816 
Q 128.451484 23.853816 129.276484 24.431316 
Q 130.103359 25.008816 130.103359 26.120691 
Q 130.103359 26.865066 129.696484 27.363816 
Q 129.289609 27.860691 128.492734 28.102566 
Q 129.383359 28.348191 129.837109 28.901316 
Q 130.290859 29.454441 130.290859 30.298191 
Q 130.290859 31.599441 129.426484 32.265066 
Q 128.562109 32.930691 126.863359 32.930691 
Q 125.158984 32.930691 124.288984 32.265066 
Q 123.418984 31.599441 123.418984 30.298191 
Q 123.418984 29.454441 123.872734 28.901316 
Q 124.326484 28.348191 125.217109 28.102566 
z
M 125.743984 26.349441 
Q 125.743984 26.870691 126.034609 27.151941 
Q 126.325234 27.433191 126.863359 27.433191 
Q 127.390234 27.433191 127.677109 27.151941 
Q 127.965859 26.870691 127.965859 26.349441 
Q 127.965859 25.828191 127.677109 25.550691 
Q 127.390234 25.271316 126.863359 25.271316 
Q 126.325234 25.271316 126.034609 25.552566 
Q 125.743984 25.833816 125.743984 26.349441 
z
" style="fill: #abc9ea"/>
   </g>
   <g id="text_14">
    <path d="M 228.025938 49.378739 
L 231.875313 49.378739 
L 231.875313 51.036239 
L 225.517188 51.036239 
L 225.517188 49.378739 
L 228.710313 46.558739 
Q 229.139688 46.172489 229.344063 45.803114 
Q 229.548438 45.433739 229.548438 45.036239 
Q 229.548438 44.421239 229.135938 44.046239 
Q 228.723438 43.671239 228.037188 43.671239 
Q 227.510313 43.671239 226.882188 43.896239 
Q 226.255938 44.121239 225.541563 44.567489 
L 225.541563 42.645614 
Q 226.302813 42.394364 227.047188 42.263114 
Q 227.791563 42.129989 228.505938 42.129989 
Q 230.077188 42.129989 230.947188 42.821864 
Q 231.817188 43.511864 231.817188 44.749364 
Q 231.817188 45.463739 231.447813 46.082489 
Q 231.078438 46.699364 229.895313 47.738114 
L 228.025938 49.378739 
z
M 237.095547 47.121239 
Q 236.463672 47.121239 236.122422 47.468114 
Q 235.783047 47.813114 235.783047 48.458114 
Q 235.783047 49.103114 236.122422 49.446239 
Q 236.463672 49.787489 237.095547 49.787489 
Q 237.723672 49.787489 238.057422 49.446239 
Q 238.391172 49.103114 238.391172 48.458114 
Q 238.391172 47.807489 238.057422 47.464364 
Q 237.723672 47.121239 237.095547 47.121239 
z
M 235.449297 46.378739 
Q 234.652422 46.136864 234.247422 45.639989 
Q 233.844297 45.141239 233.844297 44.396864 
Q 233.844297 43.290614 234.669297 42.711239 
Q 235.496172 42.129989 237.095547 42.129989 
Q 238.683672 42.129989 239.508672 42.707489 
Q 240.335547 43.284989 240.335547 44.396864 
Q 240.335547 45.141239 239.928672 45.639989 
Q 239.521797 46.136864 238.724922 46.378739 
Q 239.615547 46.624364 240.069297 47.177489 
Q 240.523047 47.730614 240.523047 48.574364 
Q 240.523047 49.875614 239.658672 50.541239 
Q 238.794297 51.206864 237.095547 51.206864 
Q 235.391172 51.206864 234.521172 50.541239 
Q 233.651172 49.875614 233.651172 48.574364 
Q 233.651172 47.730614 234.104922 47.177489 
Q 234.558672 46.624364 235.449297 46.378739 
z
M 235.976172 44.625614 
Q 235.976172 45.146864 236.266797 45.428114 
Q 236.557422 45.709364 237.095547 45.709364 
Q 237.622422 45.709364 237.909297 45.428114 
Q 238.198047 45.146864 238.198047 44.625614 
Q 238.198047 44.104364 237.909297 43.826864 
Q 237.622422 43.547489 237.095547 43.547489 
Q 236.557422 43.547489 236.266797 43.828739 
Q 235.976172 44.109989 235.976172 44.625614 
z
M 242.492031 48.769364 
L 244.601406 48.769364 
L 244.601406 51.036239 
L 242.492031 51.036239 
L 242.492031 48.769364 
z
M 247.028125 50.843114 
L 247.028125 49.224989 
Q 247.56625 49.478114 248.0575 49.603739 
Q 248.550625 49.729364 249.030625 49.729364 
Q 250.039375 49.729364 250.601875 49.170614 
Q 251.164375 48.609989 251.26375 47.509364 
Q 250.86625 47.801864 250.414375 47.948114 
Q 249.9625 48.094364 249.435625 48.094364 
Q 248.093125 48.094364 247.27 47.312489 
Q 246.446875 46.530614 246.446875 45.253739 
Q 246.446875 43.839989 247.36375 42.990614 
Q 248.280625 42.141239 249.821875 42.141239 
Q 251.53375 42.141239 252.47125 43.296239 
Q 253.40875 44.449364 253.40875 46.558739 
Q 253.40875 48.728114 252.311875 49.967489 
Q 251.216875 51.206864 249.30625 51.206864 
Q 248.69125 51.206864 248.12875 51.114989 
Q 247.56625 51.024989 247.028125 50.843114 
z
M 249.810625 46.629989 
Q 250.403125 46.629989 250.70125 46.247489 
Q 250.999375 45.863114 250.999375 45.094364 
Q 250.999375 44.333114 250.70125 43.946864 
Q 250.403125 43.558739 249.810625 43.558739 
Q 249.218125 43.558739 248.92 43.946864 
Q 248.621875 44.333114 248.621875 45.094364 
Q 248.621875 45.863114 248.92 46.247489 
Q 249.218125 46.629989 249.810625 46.629989 
z
M 257.633359 49.378739 
L 261.482734 49.378739 
L 261.482734 51.036239 
L 255.124609 51.036239 
L 255.124609 49.378739 
L 258.317734 46.558739 
Q 258.747109 46.172489 258.951484 45.803114 
Q 259.155859 45.433739 259.155859 45.036239 
Q 259.155859 44.421239 258.743359 44.046239 
Q 258.330859 43.671239 257.644609 43.671239 
Q 257.117734 43.671239 256.489609 43.896239 
Q 255.863359 44.121239 255.148984 44.567489 
L 255.148984 42.645614 
Q 255.910234 42.394364 256.654609 42.263114 
Q 257.398984 42.129989 258.113359 42.129989 
Q 259.684609 42.129989 260.554609 42.821864 
Q 261.424609 43.511864 261.424609 44.749364 
Q 261.424609 45.463739 261.055234 46.082489 
Q 260.685859 46.699364 259.502734 47.738114 
L 257.633359 49.378739 
z
" style="fill: #abc9ea; stroke: #ffffff; stroke-width: 3"/>
    <path d="M 228.025938 49.378739 
L 231.875313 49.378739 
L 231.875313 51.036239 
L 225.517188 51.036239 
L 225.517188 49.378739 
L 228.710313 46.558739 
Q 229.139688 46.172489 229.344063 45.803114 
Q 229.548438 45.433739 229.548438 45.036239 
Q 229.548438 44.421239 229.135938 44.046239 
Q 228.723438 43.671239 228.037188 43.671239 
Q 227.510313 43.671239 226.882188 43.896239 
Q 226.255938 44.121239 225.541563 44.567489 
L 225.541563 42.645614 
Q 226.302813 42.394364 227.047188 42.263114 
Q 227.791563 42.129989 228.505938 42.129989 
Q 230.077188 42.129989 230.947188 42.821864 
Q 231.817188 43.511864 231.817188 44.749364 
Q 231.817188 45.463739 231.447813 46.082489 
Q 231.078438 46.699364 229.895313 47.738114 
L 228.025938 49.378739 
z
M 237.095547 47.121239 
Q 236.463672 47.121239 236.122422 47.468114 
Q 235.783047 47.813114 235.783047 48.458114 
Q 235.783047 49.103114 236.122422 49.446239 
Q 236.463672 49.787489 237.095547 49.787489 
Q 237.723672 49.787489 238.057422 49.446239 
Q 238.391172 49.103114 238.391172 48.458114 
Q 238.391172 47.807489 238.057422 47.464364 
Q 237.723672 47.121239 237.095547 47.121239 
z
M 235.449297 46.378739 
Q 234.652422 46.136864 234.247422 45.639989 
Q 233.844297 45.141239 233.844297 44.396864 
Q 233.844297 43.290614 234.669297 42.711239 
Q 235.496172 42.129989 237.095547 42.129989 
Q 238.683672 42.129989 239.508672 42.707489 
Q 240.335547 43.284989 240.335547 44.396864 
Q 240.335547 45.141239 239.928672 45.639989 
Q 239.521797 46.136864 238.724922 46.378739 
Q 239.615547 46.624364 240.069297 47.177489 
Q 240.523047 47.730614 240.523047 48.574364 
Q 240.523047 49.875614 239.658672 50.541239 
Q 238.794297 51.206864 237.095547 51.206864 
Q 235.391172 51.206864 234.521172 50.541239 
Q 233.651172 49.875614 233.651172 48.574364 
Q 233.651172 47.730614 234.104922 47.177489 
Q 234.558672 46.624364 235.449297 46.378739 
z
M 235.976172 44.625614 
Q 235.976172 45.146864 236.266797 45.428114 
Q 236.557422 45.709364 237.095547 45.709364 
Q 237.622422 45.709364 237.909297 45.428114 
Q 238.198047 45.146864 238.198047 44.625614 
Q 238.198047 44.104364 237.909297 43.826864 
Q 237.622422 43.547489 237.095547 43.547489 
Q 236.557422 43.547489 236.266797 43.828739 
Q 235.976172 44.109989 235.976172 44.625614 
z
M 242.492031 48.769364 
L 244.601406 48.769364 
L 244.601406 51.036239 
L 242.492031 51.036239 
L 242.492031 48.769364 
z
M 247.028125 50.843114 
L 247.028125 49.224989 
Q 247.56625 49.478114 248.0575 49.603739 
Q 248.550625 49.729364 249.030625 49.729364 
Q 250.039375 49.729364 250.601875 49.170614 
Q 251.164375 48.609989 251.26375 47.509364 
Q 250.86625 47.801864 250.414375 47.948114 
Q 249.9625 48.094364 249.435625 48.094364 
Q 248.093125 48.094364 247.27 47.312489 
Q 246.446875 46.530614 246.446875 45.253739 
Q 246.446875 43.839989 247.36375 42.990614 
Q 248.280625 42.141239 249.821875 42.141239 
Q 251.53375 42.141239 252.47125 43.296239 
Q 253.40875 44.449364 253.40875 46.558739 
Q 253.40875 48.728114 252.311875 49.967489 
Q 251.216875 51.206864 249.30625 51.206864 
Q 248.69125 51.206864 248.12875 51.114989 
Q 247.56625 51.024989 247.028125 50.843114 
z
M 249.810625 46.629989 
Q 250.403125 46.629989 250.70125 46.247489 
Q 250.999375 45.863114 250.999375 45.094364 
Q 250.999375 44.333114 250.70125 43.946864 
Q 250.403125 43.558739 249.810625 43.558739 
Q 249.218125 43.558739 248.92 43.946864 
Q 248.621875 44.333114 248.621875 45.094364 
Q 248.621875 45.863114 248.92 46.247489 
Q 249.218125 46.629989 249.810625 46.629989 
z
M 257.633359 49.378739 
L 261.482734 49.378739 
L 261.482734 51.036239 
L 255.124609 51.036239 
L 255.124609 49.378739 
L 258.317734 46.558739 
Q 258.747109 46.172489 258.951484 45.803114 
Q 259.155859 45.433739 259.155859 45.036239 
Q 259.155859 44.421239 258.743359 44.046239 
Q 258.330859 43.671239 257.644609 43.671239 
Q 257.117734 43.671239 256.489609 43.896239 
Q 255.863359 44.121239 255.148984 44.567489 
L 255.148984 42.645614 
Q 255.910234 42.394364 256.654609 42.263114 
Q 257.398984 42.129989 258.113359 42.129989 
Q 259.684609 42.129989 260.554609 42.821864 
Q 261.424609 43.511864 261.424609 44.749364 
Q 261.424609 45.463739 261.055234 46.082489 
Q 260.685859 46.699364 259.502734 47.738114 
L 257.633359 49.378739 
z
" style="fill: #abc9ea"/>
   </g>
   <g id="text_15">
    <path d="M 359.515937 54.456753 
L 363.365312 54.456753 
L 363.365312 56.114253 
L 357.007187 56.114253 
L 357.007187 54.456753 
L 360.200312 51.636753 
Q 360.629687 51.250503 360.834062 50.881128 
Q 361.038437 50.511753 361.038437 50.114253 
Q 361.038437 49.499253 360.625937 49.124253 
Q 360.213437 48.749253 359.527187 48.749253 
Q 359.000312 48.749253 358.372187 48.974253 
Q 357.745937 49.199253 357.031562 49.645503 
L 357.031562 47.723628 
Q 357.792812 47.472378 358.537187 47.341128 
Q 359.281562 47.208003 359.995937 47.208003 
Q 361.567187 47.208003 362.437187 47.899878 
Q 363.307187 48.589878 363.307187 49.827378 
Q 363.307187 50.541753 362.937812 51.160503 
Q 362.568437 51.777378 361.385312 52.816128 
L 359.515937 54.456753 
z
M 368.585547 52.199253 
Q 367.953672 52.199253 367.612422 52.546128 
Q 367.273047 52.891128 367.273047 53.536128 
Q 367.273047 54.181128 367.612422 54.524253 
Q 367.953672 54.865503 368.585547 54.865503 
Q 369.213672 54.865503 369.547422 54.524253 
Q 369.881172 54.181128 369.881172 53.536128 
Q 369.881172 52.885503 369.547422 52.542378 
Q 369.213672 52.199253 368.585547 52.199253 
z
M 366.939297 51.456753 
Q 366.142422 51.214878 365.737422 50.718003 
Q 365.334297 50.219253 365.334297 49.474878 
Q 365.334297 48.368628 366.159297 47.789253 
Q 366.986172 47.208003 368.585547 47.208003 
Q 370.173672 47.208003 370.998672 47.785503 
Q 371.825547 48.363003 371.825547 49.474878 
Q 371.825547 50.219253 371.418672 50.718003 
Q 371.011797 51.214878 370.214922 51.456753 
Q 371.105547 51.702378 371.559297 52.255503 
Q 372.013047 52.808628 372.013047 53.652378 
Q 372.013047 54.953628 371.148672 55.619253 
Q 370.284297 56.284878 368.585547 56.284878 
Q 366.881172 56.284878 366.011172 55.619253 
Q 365.141172 54.953628 365.141172 53.652378 
Q 365.141172 52.808628 365.594922 52.255503 
Q 366.048672 51.702378 366.939297 51.456753 
z
M 367.466172 49.703628 
Q 367.466172 50.224878 367.756797 50.506128 
Q 368.047422 50.787378 368.585547 50.787378 
Q 369.112422 50.787378 369.399297 50.506128 
Q 369.688047 50.224878 369.688047 49.703628 
Q 369.688047 49.182378 369.399297 48.904878 
Q 369.112422 48.625503 368.585547 48.625503 
Q 368.047422 48.625503 367.756797 48.906753 
Q 367.466172 49.188003 367.466172 49.703628 
z
M 373.982031 53.847378 
L 376.091406 53.847378 
L 376.091406 56.114253 
L 373.982031 56.114253 
L 373.982031 53.847378 
z
M 380.77375 54.456753 
L 384.623125 54.456753 
L 384.623125 56.114253 
L 378.265 56.114253 
L 378.265 54.456753 
L 381.458125 51.636753 
Q 381.8875 51.250503 382.091875 50.881128 
Q 382.29625 50.511753 382.29625 50.114253 
Q 382.29625 49.499253 381.88375 49.124253 
Q 381.47125 48.749253 380.785 48.749253 
Q 380.258125 48.749253 379.63 48.974253 
Q 379.00375 49.199253 378.289375 49.645503 
L 378.289375 47.723628 
Q 379.050625 47.472378 379.795 47.341128 
Q 380.539375 47.208003 381.25375 47.208003 
Q 382.825 47.208003 383.695 47.899878 
Q 384.565 48.589878 384.565 49.827378 
Q 384.565 50.541753 384.195625 51.160503 
Q 383.82625 51.777378 382.643125 52.816128 
L 380.77375 54.456753 
z
M 386.867734 55.921128 
L 386.867734 54.303003 
Q 387.405859 54.556128 387.897109 54.681753 
Q 388.390234 54.807378 388.870234 54.807378 
Q 389.878984 54.807378 390.441484 54.248628 
Q 391.003984 53.688003 391.103359 52.587378 
Q 390.705859 52.879878 390.253984 53.026128 
Q 389.802109 53.172378 389.275234 53.172378 
Q 387.932734 53.172378 387.109609 52.390503 
Q 386.286484 51.608628 386.286484 50.331753 
Q 386.286484 48.918003 387.203359 48.068628 
Q 388.120234 47.219253 389.661484 47.219253 
Q 391.373359 47.219253 392.310859 48.374253 
Q 393.248359 49.527378 393.248359 51.636753 
Q 393.248359 53.806128 392.151484 55.045503 
Q 391.056484 56.284878 389.145859 56.284878 
Q 388.530859 56.284878 387.968359 56.193003 
Q 387.405859 56.103003 386.867734 55.921128 
z
M 389.650234 51.708003 
Q 390.242734 51.708003 390.540859 51.325503 
Q 390.838984 50.941128 390.838984 50.172378 
Q 390.838984 49.411128 390.540859 49.024878 
Q 390.242734 48.636753 389.650234 48.636753 
Q 389.057734 48.636753 388.759609 49.024878 
Q 388.461484 49.411128 388.461484 50.172378 
Q 388.461484 50.941128 388.759609 51.325503 
Q 389.057734 51.708003 389.650234 51.708003 
z
" style="fill: #abc9ea; stroke: #ffffff; stroke-width: 3"/>
    <path d="M 359.515937 54.456753 
L 363.365312 54.456753 
L 363.365312 56.114253 
L 357.007187 56.114253 
L 357.007187 54.456753 
L 360.200312 51.636753 
Q 360.629687 51.250503 360.834062 50.881128 
Q 361.038437 50.511753 361.038437 50.114253 
Q 361.038437 49.499253 360.625937 49.124253 
Q 360.213437 48.749253 359.527187 48.749253 
Q 359.000312 48.749253 358.372187 48.974253 
Q 357.745937 49.199253 357.031562 49.645503 
L 357.031562 47.723628 
Q 357.792812 47.472378 358.537187 47.341128 
Q 359.281562 47.208003 359.995937 47.208003 
Q 361.567187 47.208003 362.437187 47.899878 
Q 363.307187 48.589878 363.307187 49.827378 
Q 363.307187 50.541753 362.937812 51.160503 
Q 362.568437 51.777378 361.385312 52.816128 
L 359.515937 54.456753 
z
M 368.585547 52.199253 
Q 367.953672 52.199253 367.612422 52.546128 
Q 367.273047 52.891128 367.273047 53.536128 
Q 367.273047 54.181128 367.612422 54.524253 
Q 367.953672 54.865503 368.585547 54.865503 
Q 369.213672 54.865503 369.547422 54.524253 
Q 369.881172 54.181128 369.881172 53.536128 
Q 369.881172 52.885503 369.547422 52.542378 
Q 369.213672 52.199253 368.585547 52.199253 
z
M 366.939297 51.456753 
Q 366.142422 51.214878 365.737422 50.718003 
Q 365.334297 50.219253 365.334297 49.474878 
Q 365.334297 48.368628 366.159297 47.789253 
Q 366.986172 47.208003 368.585547 47.208003 
Q 370.173672 47.208003 370.998672 47.785503 
Q 371.825547 48.363003 371.825547 49.474878 
Q 371.825547 50.219253 371.418672 50.718003 
Q 371.011797 51.214878 370.214922 51.456753 
Q 371.105547 51.702378 371.559297 52.255503 
Q 372.013047 52.808628 372.013047 53.652378 
Q 372.013047 54.953628 371.148672 55.619253 
Q 370.284297 56.284878 368.585547 56.284878 
Q 366.881172 56.284878 366.011172 55.619253 
Q 365.141172 54.953628 365.141172 53.652378 
Q 365.141172 52.808628 365.594922 52.255503 
Q 366.048672 51.702378 366.939297 51.456753 
z
M 367.466172 49.703628 
Q 367.466172 50.224878 367.756797 50.506128 
Q 368.047422 50.787378 368.585547 50.787378 
Q 369.112422 50.787378 369.399297 50.506128 
Q 369.688047 50.224878 369.688047 49.703628 
Q 369.688047 49.182378 369.399297 48.904878 
Q 369.112422 48.625503 368.585547 48.625503 
Q 368.047422 48.625503 367.756797 48.906753 
Q 367.466172 49.188003 367.466172 49.703628 
z
M 373.982031 53.847378 
L 376.091406 53.847378 
L 376.091406 56.114253 
L 373.982031 56.114253 
L 373.982031 53.847378 
z
M 380.77375 54.456753 
L 384.623125 54.456753 
L 384.623125 56.114253 
L 378.265 56.114253 
L 378.265 54.456753 
L 381.458125 51.636753 
Q 381.8875 51.250503 382.091875 50.881128 
Q 382.29625 50.511753 382.29625 50.114253 
Q 382.29625 49.499253 381.88375 49.124253 
Q 381.47125 48.749253 380.785 48.749253 
Q 380.258125 48.749253 379.63 48.974253 
Q 379.00375 49.199253 378.289375 49.645503 
L 378.289375 47.723628 
Q 379.050625 47.472378 379.795 47.341128 
Q 380.539375 47.208003 381.25375 47.208003 
Q 382.825 47.208003 383.695 47.899878 
Q 384.565 48.589878 384.565 49.827378 
Q 384.565 50.541753 384.195625 51.160503 
Q 383.82625 51.777378 382.643125 52.816128 
L 380.77375 54.456753 
z
M 386.867734 55.921128 
L 386.867734 54.303003 
Q 387.405859 54.556128 387.897109 54.681753 
Q 388.390234 54.807378 388.870234 54.807378 
Q 389.878984 54.807378 390.441484 54.248628 
Q 391.003984 53.688003 391.103359 52.587378 
Q 390.705859 52.879878 390.253984 53.026128 
Q 389.802109 53.172378 389.275234 53.172378 
Q 387.932734 53.172378 387.109609 52.390503 
Q 386.286484 51.608628 386.286484 50.331753 
Q 386.286484 48.918003 387.203359 48.068628 
Q 388.120234 47.219253 389.661484 47.219253 
Q 391.373359 47.219253 392.310859 48.374253 
Q 393.248359 49.527378 393.248359 51.636753 
Q 393.248359 53.806128 392.151484 55.045503 
Q 391.056484 56.284878 389.145859 56.284878 
Q 388.530859 56.284878 387.968359 56.193003 
Q 387.405859 56.103003 386.867734 55.921128 
z
M 389.650234 51.708003 
Q 390.242734 51.708003 390.540859 51.325503 
Q 390.838984 50.941128 390.838984 50.172378 
Q 390.838984 49.411128 390.540859 49.024878 
Q 390.242734 48.636753 389.650234 48.636753 
Q 389.057734 48.636753 388.759609 49.024878 
Q 388.461484 49.411128 388.461484 50.172378 
Q 388.461484 50.941128 388.759609 51.325503 
Q 389.057734 51.708003 389.650234 51.708003 
z
" style="fill: #abc9ea"/>
   </g>
   <g id="text_16">
    <!-- Import -->
    <g style="fill: #262626" transform="translate(223.632812 16.318125) scale(0.12 -0.12)">
     <defs>
      <path id="DejaVuSans-49" d="M 628 4666 
L 1259 4666 
L 1259 0 
L 628 0 
L 628 4666 
z
" transform="scale(0.015625)"/>
      <path id="DejaVuSans-70" d="M 1159 525 
L 1159 -1331 
L 581 -1331 
L 581 3500 
L 1159 3500 
L 1159 2969 
Q 1341 3281 1617 3432 
Q 1894 3584 2278 3584 
Q 2916 3584 3314 3078 
Q 3713 2572 3713 1747 
Q 3713 922 3314 415 
Q 2916 -91 2278 -91 
Q 1894 -91 1617 61 
Q 1341 213 1159 525 
z
M 3116 1747 
Q 3116 2381 2855 2742 
Q 2594 3103 2138 3103 
Q 1681 3103 1420 2742 
Q 1159 2381 1159 1747 
Q 1159 1113 1420 752 
Q 1681 391 2138 391 
Q 2594 391 2855 752 
Q 3116 1113 3116 1747 
z
" transform="scale(0.015625)"/>
     </defs>
     <use xlink:href="#DejaVuSans-49"/>
     <use xlink:href="#DejaVuSans-6d" x="29.492188"/>
     <use xlink:href="#DejaVuSans-70" x="126.904297"/>
     <use xlink:href="#DejaVuSans-6f" x="190.380859"/>
     <use xlink:href="#DejaVuSans-72" x="251.5625"/>
     <use xlink:href="#DejaVuSans-74" x="292.675781"/>
    </g>
   </g>
  </g>
 </g>
 <defs>
  <clipPath id="pb6d6ad31c0">
   <rect x="46.31125" y="22.318125" width="394.47" height="266.34"/>
  </clipPath>
 </defs>
</svg>
