<?xml version="1.0" encoding="utf-8" standalone="no"?>
<!DOCTYPE svg PUBLIC "-//W3C//DTD SVG 1.1//EN"
  "http://www.w3.org/Graphics/SVG/1.1/DTD/svg11.dtd">
<svg xmlns:xlink="http://www.w3.org/1999/xlink" width="447.98125pt" height="331.617812pt" viewBox="0 0 447.98125 331.617812" xmlns="http://www.w3.org/2000/svg" version="1.1">
 <metadata>
  <rdf:RDF xmlns:dc="http://purl.org/dc/elements/1.1/" xmlns:cc="http://creativecommons.org/ns#" xmlns:rdf="http://www.w3.org/1999/02/22-rdf-syntax-ns#">
   <cc:Work>
    <dc:type rdf:resource="http://purl.org/dc/dcmitype/StillImage"/>
    <dc:date>2024-10-22T16:20:16.181901</dc:date>
    <dc:format>image/svg+xml</dc:format>
    <dc:creator>
     <cc:Agent>
      <dc:title>Matplotlib v3.9.2, https://matplotlib.org/</dc:title>
     </cc:Agent>
    </dc:creator>
   </cc:Work>
  </rdf:RDF>
 </metadata>
 <defs>
  <style type="text/css">*{stroke-linejoin: round; stroke-linecap: butt}</style>
 </defs>
 <g id="figure_1">
  <g id="patch_1">
   <path d="M 0 331.617812 
L 447.98125 331.617812 
L 447.98125 0 
L 0 0 
L 0 331.617812 
z
" style="fill: none"/>
  </g>
  <g id="axes_1">
   <g id="patch_2">
    <path d="M 46.31125 288.658125 
L 440.78125 288.658125 
L 440.78125 22.318125 
L 46.31125 22.318125 
L 46.31125 288.658125 
z
" style="fill: none"/>
   </g>
   <g id="matplotlib.axis_1">
    <g id="xtick_1">
     <g id="text_1">
      <!-- 3.11 -->
      <g style="fill: #262626" transform="translate(99.810156 306.516406) scale(0.11 -0.11)">
       <defs>
        <path id="DejaVuSans-33" d="M 2597 2516 
Q 3050 2419 3304 2112 
Q 3559 1806 3559 1356 
Q 3559 666 3084 287 
Q 2609 -91 1734 -91 
Q 1441 -91 1130 -33 
Q 819 25 488 141 
L 488 750 
Q 750 597 1062 519 
Q 1375 441 1716 441 
Q 2309 441 2620 675 
Q 2931 909 2931 1356 
Q 2931 1769 2642 2001 
Q 2353 2234 1838 2234 
L 1294 2234 
L 1294 2753 
L 1863 2753 
Q 2328 2753 2575 2939 
Q 2822 3125 2822 3475 
Q 2822 3834 2567 4026 
Q 2313 4219 1838 4219 
Q 1578 4219 1281 4162 
Q 984 4106 628 3988 
L 628 4550 
Q 988 4650 1302 4700 
Q 1616 4750 1894 4750 
Q 2613 4750 3031 4423 
Q 3450 4097 3450 3541 
Q 3450 3153 3228 2886 
Q 3006 2619 2597 2516 
z
" transform="scale(0.015625)"/>
        <path id="DejaVuSans-2e" d="M 684 794 
L 1344 794 
L 1344 0 
L 684 0 
L 684 794 
z
" transform="scale(0.015625)"/>
        <path id="DejaVuSans-31" d="M 794 531 
L 1825 531 
L 1825 4091 
L 703 3866 
L 703 4441 
L 1819 4666 
L 2450 4666 
L 2450 531 
L 3481 531 
L 3481 0 
L 794 0 
L 794 531 
z
" transform="scale(0.015625)"/>
       </defs>
       <use xlink:href="#DejaVuSans-33"/>
       <use xlink:href="#DejaVuSans-2e" x="63.623047"/>
       <use xlink:href="#DejaVuSans-31" x="95.410156"/>
       <use xlink:href="#DejaVuSans-31" x="159.033203"/>
      </g>
     </g>
    </g>
    <g id="xtick_2">
     <g id="text_2">
      <!-- 3.12 -->
      <g style="fill: #262626" transform="translate(231.300156 306.516406) scale(0.11 -0.11)">
       <defs>
        <path id="DejaVuSans-32" d="M 1228 531 
L 3431 531 
L 3431 0 
L 469 0 
L 469 531 
Q 828 903 1448 1529 
Q 2069 2156 2228 2338 
Q 2531 2678 2651 2914 
Q 2772 3150 2772 3378 
Q 2772 3750 2511 3984 
Q 2250 4219 1831 4219 
Q 1534 4219 1204 4116 
Q 875 4013 500 3803 
L 500 4441 
Q 881 4594 1212 4672 
Q 1544 4750 1819 4750 
Q 2544 4750 2975 4387 
Q 3406 4025 3406 3419 
Q 3406 3131 3298 2873 
Q 3191 2616 2906 2266 
Q 2828 2175 2409 1742 
Q 1991 1309 1228 531 
z
" transform="scale(0.015625)"/>
       </defs>
       <use xlink:href="#DejaVuSans-33"/>
       <use xlink:href="#DejaVuSans-2e" x="63.623047"/>
       <use xlink:href="#DejaVuSans-31" x="95.410156"/>
       <use xlink:href="#DejaVuSans-32" x="159.033203"/>
      </g>
     </g>
    </g>
    <g id="xtick_3">
     <g id="text_3">
      <!-- 3.13 -->
      <g style="fill: #262626" transform="translate(362.790156 306.516406) scale(0.11 -0.11)">
       <use xlink:href="#DejaVuSans-33"/>
       <use xlink:href="#DejaVuSans-2e" x="63.623047"/>
       <use xlink:href="#DejaVuSans-31" x="95.410156"/>
       <use xlink:href="#DejaVuSans-33" x="159.033203"/>
      </g>
     </g>
    </g>
    <g id="text_4">
     <!-- Python Version -->
     <g style="fill: #262626" transform="translate(198.777813 321.922187) scale(0.12 -0.12)">
      <defs>
       <path id="DejaVuSans-50" d="M 1259 4147 
L 1259 2394 
L 2053 2394 
Q 2494 2394 2734 2622 
Q 2975 2850 2975 3272 
Q 2975 3691 2734 3919 
Q 2494 4147 2053 4147 
L 1259 4147 
z
M 628 4666 
L 2053 4666 
Q 2838 4666 3239 4311 
Q 3641 3956 3641 3272 
Q 3641 2581 3239 2228 
Q 2838 1875 2053 1875 
L 1259 1875 
L 1259 0 
L 628 0 
L 628 4666 
z
" transform="scale(0.015625)"/>
       <path id="DejaVuSans-79" d="M 2059 -325 
Q 1816 -950 1584 -1140 
Q 1353 -1331 966 -1331 
L 506 -1331 
L 506 -850 
L 844 -850 
Q 1081 -850 1212 -737 
Q 1344 -625 1503 -206 
L 1606 56 
L 191 3500 
L 800 3500 
L 1894 763 
L 2988 3500 
L 3597 3500 
L 2059 -325 
z
" transform="scale(0.015625)"/>
       <path id="DejaVuSans-74" d="M 1172 4494 
L 1172 3500 
L 2356 3500 
L 2356 3053 
L 1172 3053 
L 1172 1153 
Q 1172 725 1289 603 
Q 1406 481 1766 481 
L 2356 481 
L 2356 0 
L 1766 0 
Q 1100 0 847 248 
Q 594 497 594 1153 
L 594 3053 
L 172 3053 
L 172 3500 
L 594 3500 
L 594 4494 
L 1172 4494 
z
" transform="scale(0.015625)"/>
       <path id="DejaVuSans-68" d="M 3513 2113 
L 3513 0 
L 2938 0 
L 2938 2094 
Q 2938 2591 2744 2837 
Q 2550 3084 2163 3084 
Q 1697 3084 1428 2787 
Q 1159 2491 1159 1978 
L 1159 0 
L 581 0 
L 581 4863 
L 1159 4863 
L 1159 2956 
Q 1366 3272 1645 3428 
Q 1925 3584 2291 3584 
Q 2894 3584 3203 3211 
Q 3513 2838 3513 2113 
z
" transform="scale(0.015625)"/>
       <path id="DejaVuSans-6f" d="M 1959 3097 
Q 1497 3097 1228 2736 
Q 959 2375 959 1747 
Q 959 1119 1226 758 
Q 1494 397 1959 397 
Q 2419 397 2687 759 
Q 2956 1122 2956 1747 
Q 2956 2369 2687 2733 
Q 2419 3097 1959 3097 
z
M 1959 3584 
Q 2709 3584 3137 3096 
Q 3566 2609 3566 1747 
Q 3566 888 3137 398 
Q 2709 -91 1959 -91 
Q 1206 -91 779 398 
Q 353 888 353 1747 
Q 353 2609 779 3096 
Q 1206 3584 1959 3584 
z
" transform="scale(0.015625)"/>
       <path id="DejaVuSans-6e" d="M 3513 2113 
L 3513 0 
L 2938 0 
L 2938 2094 
Q 2938 2591 2744 2837 
Q 2550 3084 2163 3084 
Q 1697 3084 1428 2787 
Q 1159 2491 1159 1978 
L 1159 0 
L 581 0 
L 581 3500 
L 1159 3500 
L 1159 2956 
Q 1366 3272 1645 3428 
Q 1925 3584 2291 3584 
Q 2894 3584 3203 3211 
Q 3513 2838 3513 2113 
z
" transform="scale(0.015625)"/>
       <path id="DejaVuSans-20" transform="scale(0.015625)"/>
       <path id="DejaVuSans-56" d="M 1831 0 
L 50 4666 
L 709 4666 
L 2188 738 
L 3669 4666 
L 4325 4666 
L 2547 0 
L 1831 0 
z
" transform="scale(0.015625)"/>
       <path id="DejaVuSans-65" d="M 3597 1894 
L 3597 1613 
L 953 1613 
Q 991 1019 1311 708 
Q 1631 397 2203 397 
Q 2534 397 2845 478 
Q 3156 559 3463 722 
L 3463 178 
Q 3153 47 2828 -22 
Q 2503 -91 2169 -91 
Q 1331 -91 842 396 
Q 353 884 353 1716 
Q 353 2575 817 3079 
Q 1281 3584 2069 3584 
Q 2775 3584 3186 3129 
Q 3597 2675 3597 1894 
z
M 3022 2063 
Q 3016 2534 2758 2815 
Q 2500 3097 2075 3097 
Q 1594 3097 1305 2825 
Q 1016 2553 972 2059 
L 3022 2063 
z
" transform="scale(0.015625)"/>
       <path id="DejaVuSans-72" d="M 2631 2963 
Q 2534 3019 2420 3045 
Q 2306 3072 2169 3072 
Q 1681 3072 1420 2755 
Q 1159 2438 1159 1844 
L 1159 0 
L 581 0 
L 581 3500 
L 1159 3500 
L 1159 2956 
Q 1341 3275 1631 3429 
Q 1922 3584 2338 3584 
Q 2397 3584 2469 3576 
Q 2541 3569 2628 3553 
L 2631 2963 
z
" transform="scale(0.015625)"/>
       <path id="DejaVuSans-73" d="M 2834 3397 
L 2834 2853 
Q 2591 2978 2328 3040 
Q 2066 3103 1784 3103 
Q 1356 3103 1142 2972 
Q 928 2841 928 2578 
Q 928 2378 1081 2264 
Q 1234 2150 1697 2047 
L 1894 2003 
Q 2506 1872 2764 1633 
Q 3022 1394 3022 966 
Q 3022 478 2636 193 
Q 2250 -91 1575 -91 
Q 1294 -91 989 -36 
Q 684 19 347 128 
L 347 722 
Q 666 556 975 473 
Q 1284 391 1588 391 
Q 1994 391 2212 530 
Q 2431 669 2431 922 
Q 2431 1156 2273 1281 
Q 2116 1406 1581 1522 
L 1381 1569 
Q 847 1681 609 1914 
Q 372 2147 372 2553 
Q 372 3047 722 3315 
Q 1072 3584 1716 3584 
Q 2034 3584 2315 3537 
Q 2597 3491 2834 3397 
z
" transform="scale(0.015625)"/>
       <path id="DejaVuSans-69" d="M 603 3500 
L 1178 3500 
L 1178 0 
L 603 0 
L 603 3500 
z
M 603 4863 
L 1178 4863 
L 1178 4134 
L 603 4134 
L 603 4863 
z
" transform="scale(0.015625)"/>
      </defs>
      <use xlink:href="#DejaVuSans-50"/>
      <use xlink:href="#DejaVuSans-79" x="60.302734"/>
      <use xlink:href="#DejaVuSans-74" x="119.482422"/>
      <use xlink:href="#DejaVuSans-68" x="158.691406"/>
      <use xlink:href="#DejaVuSans-6f" x="222.070312"/>
      <use xlink:href="#DejaVuSans-6e" x="283.251953"/>
      <use xlink:href="#DejaVuSans-20" x="346.630859"/>
      <use xlink:href="#DejaVuSans-56" x="378.417969"/>
      <use xlink:href="#DejaVuSans-65" x="439.076172"/>
      <use xlink:href="#DejaVuSans-72" x="500.599609"/>
      <use xlink:href="#DejaVuSans-73" x="541.712891"/>
      <use xlink:href="#DejaVuSans-69" x="593.8125"/>
      <use xlink:href="#DejaVuSans-6f" x="621.595703"/>
      <use xlink:href="#DejaVuSans-6e" x="682.777344"/>
     </g>
    </g>
   </g>
   <g id="matplotlib.axis_2">
    <g id="ytick_1">
     <g id="text_5">
      <!-- 0 -->
      <g style="fill: #262626" transform="translate(29.8125 292.837266) scale(0.11 -0.11)">
       <defs>
        <path id="DejaVuSans-30" d="M 2034 4250 
Q 1547 4250 1301 3770 
Q 1056 3291 1056 2328 
Q 1056 1369 1301 889 
Q 1547 409 2034 409 
Q 2525 409 2770 889 
Q 3016 1369 3016 2328 
Q 3016 3291 2770 3770 
Q 2525 4250 2034 4250 
z
M 2034 4750 
Q 2819 4750 3233 4129 
Q 3647 3509 3647 2328 
Q 3647 1150 3233 529 
Q 2819 -91 2034 -91 
Q 1250 -91 836 529 
Q 422 1150 422 2328 
Q 422 3509 836 4129 
Q 1250 4750 2034 4750 
z
" transform="scale(0.015625)"/>
       </defs>
       <use xlink:href="#DejaVuSans-30"/>
      </g>
     </g>
    </g>
    <g id="ytick_2">
     <g id="text_6">
      <!-- 5 -->
      <g style="fill: #262626" transform="translate(29.8125 253.545369) scale(0.11 -0.11)">
       <defs>
        <path id="DejaVuSans-35" d="M 691 4666 
L 3169 4666 
L 3169 4134 
L 1269 4134 
L 1269 2991 
Q 1406 3038 1543 3061 
Q 1681 3084 1819 3084 
Q 2600 3084 3056 2656 
Q 3513 2228 3513 1497 
Q 3513 744 3044 326 
Q 2575 -91 1722 -91 
Q 1428 -91 1123 -41 
Q 819 9 494 109 
L 494 744 
Q 775 591 1075 516 
Q 1375 441 1709 441 
Q 2250 441 2565 725 
Q 2881 1009 2881 1497 
Q 2881 1984 2565 2268 
Q 2250 2553 1709 2553 
Q 1456 2553 1204 2497 
Q 953 2441 691 2322 
L 691 4666 
z
" transform="scale(0.015625)"/>
       </defs>
       <use xlink:href="#DejaVuSans-35"/>
      </g>
     </g>
    </g>
    <g id="ytick_3">
     <g id="text_7">
      <!-- 10 -->
      <g style="fill: #262626" transform="translate(22.81375 214.253473) scale(0.11 -0.11)">
       <use xlink:href="#DejaVuSans-31"/>
       <use xlink:href="#DejaVuSans-30" x="63.623047"/>
      </g>
     </g>
    </g>
    <g id="ytick_4">
     <g id="text_8">
      <!-- 15 -->
      <g style="fill: #262626" transform="translate(22.81375 174.961577) scale(0.11 -0.11)">
       <use xlink:href="#DejaVuSans-31"/>
       <use xlink:href="#DejaVuSans-35" x="63.623047"/>
      </g>
     </g>
    </g>
    <g id="ytick_5">
     <g id="text_9">
      <!-- 20 -->
      <g style="fill: #262626" transform="translate(22.81375 135.66968) scale(0.11 -0.11)">
       <use xlink:href="#DejaVuSans-32"/>
       <use xlink:href="#DejaVuSans-30" x="63.623047"/>
      </g>
     </g>
    </g>
    <g id="ytick_6">
     <g id="text_10">
      <!-- 25 -->
      <g style="fill: #262626" transform="translate(22.81375 96.377784) scale(0.11 -0.11)">
       <use xlink:href="#DejaVuSans-32"/>
       <use xlink:href="#DejaVuSans-35" x="63.623047"/>
      </g>
     </g>
    </g>
    <g id="ytick_7">
     <g id="text_11">
      <!-- 30 -->
      <g style="fill: #262626" transform="translate(22.81375 57.085887) scale(0.11 -0.11)">
       <use xlink:href="#DejaVuSans-33"/>
       <use xlink:href="#DejaVuSans-30" x="63.623047"/>
      </g>
     </g>
    </g>
    <g id="text_12">
     <!-- Time (s) -->
     <g style="fill: #262626" transform="translate(16.318125 179.882812) rotate(-90) scale(0.12 -0.12)">
      <defs>
       <path id="DejaVuSans-54" d="M -19 4666 
L 3928 4666 
L 3928 4134 
L 2272 4134 
L 2272 0 
L 1638 0 
L 1638 4134 
L -19 4134 
L -19 4666 
z
" transform="scale(0.015625)"/>
       <path id="DejaVuSans-6d" d="M 3328 2828 
Q 3544 3216 3844 3400 
Q 4144 3584 4550 3584 
Q 5097 3584 5394 3201 
Q 5691 2819 5691 2113 
L 5691 0 
L 5113 0 
L 5113 2094 
Q 5113 2597 4934 2840 
Q 4756 3084 4391 3084 
Q 3944 3084 3684 2787 
Q 3425 2491 3425 1978 
L 3425 0 
L 2847 0 
L 2847 2094 
Q 2847 2600 2669 2842 
Q 2491 3084 2119 3084 
Q 1678 3084 1418 2786 
Q 1159 2488 1159 1978 
L 1159 0 
L 581 0 
L 581 3500 
L 1159 3500 
L 1159 2956 
Q 1356 3278 1631 3431 
Q 1906 3584 2284 3584 
Q 2666 3584 2933 3390 
Q 3200 3197 3328 2828 
z
" transform="scale(0.015625)"/>
       <path id="DejaVuSans-28" d="M 1984 4856 
Q 1566 4138 1362 3434 
Q 1159 2731 1159 2009 
Q 1159 1288 1364 580 
Q 1569 -128 1984 -844 
L 1484 -844 
Q 1016 -109 783 600 
Q 550 1309 550 2009 
Q 550 2706 781 3412 
Q 1013 4119 1484 4856 
L 1984 4856 
z
" transform="scale(0.015625)"/>
       <path id="DejaVuSans-29" d="M 513 4856 
L 1013 4856 
Q 1481 4119 1714 3412 
Q 1947 2706 1947 2009 
Q 1947 1309 1714 600 
Q 1481 -109 1013 -844 
L 513 -844 
Q 928 -128 1133 580 
Q 1338 1288 1338 2009 
Q 1338 2731 1133 3434 
Q 928 4138 513 4856 
z
" transform="scale(0.015625)"/>
      </defs>
      <use xlink:href="#DejaVuSans-54"/>
      <use xlink:href="#DejaVuSans-69" x="57.958984"/>
      <use xlink:href="#DejaVuSans-6d" x="85.742188"/>
      <use xlink:href="#DejaVuSans-65" x="183.154297"/>
      <use xlink:href="#DejaVuSans-20" x="244.677734"/>
      <use xlink:href="#DejaVuSans-28" x="276.464844"/>
      <use xlink:href="#DejaVuSans-73" x="315.478516"/>
      <use xlink:href="#DejaVuSans-29" x="367.578125"/>
     </g>
    </g>
   </g>
   <g id="patch_3">
    <path d="M 59.46025 288.658125 
L 112.05625 288.658125 
L 112.05625 35.428127 
L 59.46025 35.428127 
z
" clip-path="url(#p8d2aecfede)" style="fill: #abc9ea; stroke: #ffffff; stroke-linejoin: miter"/>
   </g>
   <g id="patch_4">
    <path d="M 190.95025 288.658125 
L 243.54625 288.658125 
L 243.54625 53.706559 
L 190.95025 53.706559 
z
" clip-path="url(#p8d2aecfede)" style="fill: #abc9ea; stroke: #ffffff; stroke-linejoin: miter"/>
   </g>
   <g id="patch_5">
    <path d="M 322.44025 288.658125 
L 375.03625 288.658125 
L 375.03625 59.82801 
L 322.44025 59.82801 
z
" clip-path="url(#p8d2aecfede)" style="fill: #abc9ea; stroke: #ffffff; stroke-linejoin: miter"/>
   </g>
   <g id="patch_6">
    <path d="M 112.05625 288.658125 
L 164.65225 288.658125 
L 164.65225 234.768668 
L 112.05625 234.768668 
z
" clip-path="url(#p8d2aecfede)" style="fill: #efb792; stroke: #ffffff; stroke-linejoin: miter"/>
   </g>
   <g id="patch_7">
    <path d="M 243.54625 288.658125 
L 296.14225 288.658125 
L 296.14225 234.492566 
L 243.54625 234.492566 
z
" clip-path="url(#p8d2aecfede)" style="fill: #efb792; stroke: #ffffff; stroke-linejoin: miter"/>
   </g>
   <g id="patch_8">
    <path d="M 375.03625 288.658125 
L 427.63225 288.658125 
L 427.63225 238.368786 
L 375.03625 238.368786 
z
" clip-path="url(#p8d2aecfede)" style="fill: #efb792; stroke: #ffffff; stroke-linejoin: miter"/>
   </g>
   <g id="patch_9">
    <path d="M 112.05625 288.658125 
L 112.05625 288.658125 
L 112.05625 288.658125 
L 112.05625 288.658125 
z
" clip-path="url(#p8d2aecfede)" style="fill: #abc9ea; stroke: #ffffff; stroke-linejoin: miter"/>
   </g>
   <g id="patch_10">
    <path d="M 112.05625 288.658125 
L 112.05625 288.658125 
L 112.05625 288.658125 
L 112.05625 288.658125 
z
" clip-path="url(#p8d2aecfede)" style="fill: #efb792; stroke: #ffffff; stroke-linejoin: miter"/>
   </g>
   <g id="line2d_1">
    <path d="M 85.75825 35.894033 
L 85.75825 35.000982 
" clip-path="url(#p8d2aecfede)" style="fill: none; stroke: #424242; stroke-width: 2.25; stroke-linecap: round"/>
   </g>
   <g id="line2d_2">
    <path d="M 217.24825 54.317435 
L 217.24825 53.003342 
" clip-path="url(#p8d2aecfede)" style="fill: none; stroke: #424242; stroke-width: 2.25; stroke-linecap: round"/>
   </g>
   <g id="line2d_3">
    <path d="M 348.73825 60.346838 
L 348.73825 59.279788 
" clip-path="url(#p8d2aecfede)" style="fill: none; stroke: #424242; stroke-width: 2.25; stroke-linecap: round"/>
   </g>
   <g id="line2d_4">
    <path d="M 138.35425 235.045173 
L 138.35425 234.467823 
" clip-path="url(#p8d2aecfede)" style="fill: none; stroke: #424242; stroke-width: 2.25; stroke-linecap: round"/>
   </g>
   <g id="line2d_5">
    <path d="M 269.84425 234.631267 
L 269.84425 234.364175 
" clip-path="url(#p8d2aecfede)" style="fill: none; stroke: #424242; stroke-width: 2.25; stroke-linecap: round"/>
   </g>
   <g id="line2d_6">
    <path d="M 401.33425 239.082134 
L 401.33425 237.658918 
" clip-path="url(#p8d2aecfede)" style="fill: none; stroke: #424242; stroke-width: 2.25; stroke-linecap: round"/>
   </g>
   <g id="text_13">
    <path d="M 72.369813 27.215002 
Q 73.254812 27.443752 73.714188 28.010002 
Q 74.175438 28.574377 74.175438 29.448127 
Q 74.175438 30.749377 73.177937 31.426252 
Q 72.182313 32.103127 70.273563 32.103127 
Q 69.598562 32.103127 68.921688 31.994377 
Q 68.244813 31.885627 67.582937 31.668127 
L 67.582937 29.928127 
Q 68.216688 30.245002 68.839188 30.406252 
Q 69.463563 30.567502 70.067312 30.567502 
Q 70.963563 30.567502 71.441688 30.258127 
Q 71.919813 29.946877 71.919813 29.365627 
Q 71.919813 28.767502 71.430438 28.460002 
Q 70.941063 28.152502 69.984813 28.152502 
L 69.082937 28.152502 
L 69.082937 26.699377 
L 70.031688 26.699377 
Q 70.882938 26.699377 71.297313 26.433127 
Q 71.713563 26.166877 71.713563 25.621252 
Q 71.713563 25.118752 71.308563 24.843127 
Q 70.905438 24.567502 70.166688 24.567502 
Q 69.622938 24.567502 69.066063 24.691252 
Q 68.509188 24.813127 67.957937 25.053127 
L 67.957937 23.401252 
Q 68.625438 23.213752 69.281688 23.120002 
Q 69.937938 23.026252 70.571688 23.026252 
Q 72.276063 23.026252 73.121688 23.586877 
Q 73.969188 24.145627 73.969188 25.270627 
Q 73.969188 26.037502 73.564188 26.526877 
Q 73.161062 27.016252 72.369813 27.215002 
z
M 78.587547 30.275002 
L 82.436922 30.275002 
L 82.436922 31.932502 
L 76.078797 31.932502 
L 76.078797 30.275002 
L 79.271922 27.455002 
Q 79.701297 27.068752 79.905672 26.699377 
Q 80.110047 26.330002 80.110047 25.932502 
Q 80.110047 25.317502 79.697547 24.942502 
Q 79.285047 24.567502 78.598797 24.567502 
Q 78.071922 24.567502 77.443797 24.792502 
Q 76.817547 25.017502 76.103172 25.463752 
L 76.103172 23.541877 
Q 76.864422 23.290627 77.608797 23.159377 
Q 78.353172 23.026252 79.067547 23.026252 
Q 80.638797 23.026252 81.508797 23.718127 
Q 82.378797 24.408127 82.378797 25.645627 
Q 82.378797 26.360002 82.009422 26.978752 
Q 81.640047 27.595627 80.456922 28.634377 
L 78.587547 30.275002 
z
M 84.704031 29.665627 
L 86.813406 29.665627 
L 86.813406 31.932502 
L 84.704031 31.932502 
L 84.704031 29.665627 
z
M 91.49575 30.275002 
L 95.345125 30.275002 
L 95.345125 31.932502 
L 88.987 31.932502 
L 88.987 30.275002 
L 92.180125 27.455002 
Q 92.6095 27.068752 92.813875 26.699377 
Q 93.01825 26.330002 93.01825 25.932502 
Q 93.01825 25.317502 92.60575 24.942502 
Q 92.19325 24.567502 91.507 24.567502 
Q 90.980125 24.567502 90.352 24.792502 
Q 89.72575 25.017502 89.011375 25.463752 
L 89.011375 23.541877 
Q 89.772625 23.290627 90.517 23.159377 
Q 91.261375 23.026252 91.97575 23.026252 
Q 93.547 23.026252 94.417 23.718127 
Q 95.287 24.408127 95.287 25.645627 
Q 95.287 26.360002 94.917625 26.978752 
Q 94.54825 27.595627 93.365125 28.634377 
L 91.49575 30.275002 
z
M 99.845359 30.275002 
L 103.694734 30.275002 
L 103.694734 31.932502 
L 97.336609 31.932502 
L 97.336609 30.275002 
L 100.529734 27.455002 
Q 100.959109 27.068752 101.163484 26.699377 
Q 101.367859 26.330002 101.367859 25.932502 
Q 101.367859 25.317502 100.955359 24.942502 
Q 100.542859 24.567502 99.856609 24.567502 
Q 99.329734 24.567502 98.701609 24.792502 
Q 98.075359 25.017502 97.360984 25.463752 
L 97.360984 23.541877 
Q 98.122234 23.290627 98.866609 23.159377 
Q 99.610984 23.026252 100.325359 23.026252 
Q 101.896609 23.026252 102.766609 23.718127 
Q 103.636609 24.408127 103.636609 25.645627 
Q 103.636609 26.360002 103.267234 26.978752 
Q 102.897859 27.595627 101.714734 28.634377 
L 99.845359 30.275002 
z
" style="fill: #abc9ea; stroke: #ffffff; stroke-width: 3"/>
    <path d="M 72.369813 27.215002 
Q 73.254812 27.443752 73.714188 28.010002 
Q 74.175438 28.574377 74.175438 29.448127 
Q 74.175438 30.749377 73.177937 31.426252 
Q 72.182313 32.103127 70.273563 32.103127 
Q 69.598562 32.103127 68.921688 31.994377 
Q 68.244813 31.885627 67.582937 31.668127 
L 67.582937 29.928127 
Q 68.216688 30.245002 68.839188 30.406252 
Q 69.463563 30.567502 70.067312 30.567502 
Q 70.963563 30.567502 71.441688 30.258127 
Q 71.919813 29.946877 71.919813 29.365627 
Q 71.919813 28.767502 71.430438 28.460002 
Q 70.941063 28.152502 69.984813 28.152502 
L 69.082937 28.152502 
L 69.082937 26.699377 
L 70.031688 26.699377 
Q 70.882938 26.699377 71.297313 26.433127 
Q 71.713563 26.166877 71.713563 25.621252 
Q 71.713563 25.118752 71.308563 24.843127 
Q 70.905438 24.567502 70.166688 24.567502 
Q 69.622938 24.567502 69.066063 24.691252 
Q 68.509188 24.813127 67.957937 25.053127 
L 67.957937 23.401252 
Q 68.625438 23.213752 69.281688 23.120002 
Q 69.937938 23.026252 70.571688 23.026252 
Q 72.276063 23.026252 73.121688 23.586877 
Q 73.969188 24.145627 73.969188 25.270627 
Q 73.969188 26.037502 73.564188 26.526877 
Q 73.161062 27.016252 72.369813 27.215002 
z
M 78.587547 30.275002 
L 82.436922 30.275002 
L 82.436922 31.932502 
L 76.078797 31.932502 
L 76.078797 30.275002 
L 79.271922 27.455002 
Q 79.701297 27.068752 79.905672 26.699377 
Q 80.110047 26.330002 80.110047 25.932502 
Q 80.110047 25.317502 79.697547 24.942502 
Q 79.285047 24.567502 78.598797 24.567502 
Q 78.071922 24.567502 77.443797 24.792502 
Q 76.817547 25.017502 76.103172 25.463752 
L 76.103172 23.541877 
Q 76.864422 23.290627 77.608797 23.159377 
Q 78.353172 23.026252 79.067547 23.026252 
Q 80.638797 23.026252 81.508797 23.718127 
Q 82.378797 24.408127 82.378797 25.645627 
Q 82.378797 26.360002 82.009422 26.978752 
Q 81.640047 27.595627 80.456922 28.634377 
L 78.587547 30.275002 
z
M 84.704031 29.665627 
L 86.813406 29.665627 
L 86.813406 31.932502 
L 84.704031 31.932502 
L 84.704031 29.665627 
z
M 91.49575 30.275002 
L 95.345125 30.275002 
L 95.345125 31.932502 
L 88.987 31.932502 
L 88.987 30.275002 
L 92.180125 27.455002 
Q 92.6095 27.068752 92.813875 26.699377 
Q 93.01825 26.330002 93.01825 25.932502 
Q 93.01825 25.317502 92.60575 24.942502 
Q 92.19325 24.567502 91.507 24.567502 
Q 90.980125 24.567502 90.352 24.792502 
Q 89.72575 25.017502 89.011375 25.463752 
L 89.011375 23.541877 
Q 89.772625 23.290627 90.517 23.159377 
Q 91.261375 23.026252 91.97575 23.026252 
Q 93.547 23.026252 94.417 23.718127 
Q 95.287 24.408127 95.287 25.645627 
Q 95.287 26.360002 94.917625 26.978752 
Q 94.54825 27.595627 93.365125 28.634377 
L 91.49575 30.275002 
z
M 99.845359 30.275002 
L 103.694734 30.275002 
L 103.694734 31.932502 
L 97.336609 31.932502 
L 97.336609 30.275002 
L 100.529734 27.455002 
Q 100.959109 27.068752 101.163484 26.699377 
Q 101.367859 26.330002 101.367859 25.932502 
Q 101.367859 25.317502 100.955359 24.942502 
Q 100.542859 24.567502 99.856609 24.567502 
Q 99.329734 24.567502 98.701609 24.792502 
Q 98.075359 25.017502 97.360984 25.463752 
L 97.360984 23.541877 
Q 98.122234 23.290627 98.866609 23.159377 
Q 99.610984 23.026252 100.325359 23.026252 
Q 101.896609 23.026252 102.766609 23.718127 
Q 103.636609 24.408127 103.636609 25.645627 
Q 103.636609 26.360002 103.267234 26.978752 
Q 102.897859 27.595627 101.714734 28.634377 
L 99.845359 30.275002 
z
" style="fill: #abc9ea"/>
   </g>
   <g id="text_14">
    <path d="M 201.727938 48.553434 
L 205.577313 48.553434 
L 205.577313 50.210934 
L 199.219188 50.210934 
L 199.219188 48.553434 
L 202.412313 45.733434 
Q 202.841688 45.347184 203.046063 44.977809 
Q 203.250438 44.608434 203.250438 44.210934 
Q 203.250438 43.595934 202.837938 43.220934 
Q 202.425438 42.845934 201.739188 42.845934 
Q 201.212313 42.845934 200.584188 43.070934 
Q 199.957938 43.295934 199.243563 43.742184 
L 199.243563 41.820309 
Q 200.004813 41.569059 200.749188 41.437809 
Q 201.493563 41.304684 202.207938 41.304684 
Q 203.779188 41.304684 204.649188 41.996559 
Q 205.519188 42.686559 205.519188 43.924059 
Q 205.519188 44.638434 205.149813 45.257184 
Q 204.780438 45.874059 203.597313 46.912809 
L 201.727938 48.553434 
z
M 207.821922 50.017809 
L 207.821922 48.399684 
Q 208.360047 48.652809 208.851297 48.778434 
Q 209.344422 48.904059 209.824422 48.904059 
Q 210.833172 48.904059 211.395672 48.345309 
Q 211.958172 47.784684 212.057547 46.684059 
Q 211.660047 46.976559 211.208172 47.122809 
Q 210.756297 47.269059 210.229422 47.269059 
Q 208.886922 47.269059 208.063797 46.487184 
Q 207.240672 45.705309 207.240672 44.428434 
Q 207.240672 43.014684 208.157547 42.165309 
Q 209.074422 41.315934 210.615672 41.315934 
Q 212.327547 41.315934 213.265047 42.470934 
Q 214.202547 43.624059 214.202547 45.733434 
Q 214.202547 47.902809 213.105672 49.142184 
Q 212.010672 50.381559 210.100047 50.381559 
Q 209.485047 50.381559 208.922547 50.289684 
Q 208.360047 50.199684 207.821922 50.017809 
z
M 210.604422 45.804684 
Q 211.196922 45.804684 211.495047 45.422184 
Q 211.793172 45.037809 211.793172 44.269059 
Q 211.793172 43.507809 211.495047 43.121559 
Q 211.196922 42.733434 210.604422 42.733434 
Q 210.011922 42.733434 209.713797 43.121559 
Q 209.415672 43.507809 209.415672 44.269059 
Q 209.415672 45.037809 209.713797 45.422184 
Q 210.011922 45.804684 210.604422 45.804684 
z
M 216.194031 47.944059 
L 218.303406 47.944059 
L 218.303406 50.210934 
L 216.194031 50.210934 
L 216.194031 47.944059 
z
M 220.730125 50.017809 
L 220.730125 48.399684 
Q 221.26825 48.652809 221.7595 48.778434 
Q 222.252625 48.904059 222.732625 48.904059 
Q 223.741375 48.904059 224.303875 48.345309 
Q 224.866375 47.784684 224.96575 46.684059 
Q 224.56825 46.976559 224.116375 47.122809 
Q 223.6645 47.269059 223.137625 47.269059 
Q 221.795125 47.269059 220.972 46.487184 
Q 220.148875 45.705309 220.148875 44.428434 
Q 220.148875 43.014684 221.06575 42.165309 
Q 221.982625 41.315934 223.523875 41.315934 
Q 225.23575 41.315934 226.17325 42.470934 
Q 227.11075 43.624059 227.11075 45.733434 
Q 227.11075 47.902809 226.013875 49.142184 
Q 224.918875 50.381559 223.00825 50.381559 
Q 222.39325 50.381559 221.83075 50.289684 
Q 221.26825 50.199684 220.730125 50.017809 
z
M 223.512625 45.804684 
Q 224.105125 45.804684 224.40325 45.422184 
Q 224.701375 45.037809 224.701375 44.269059 
Q 224.701375 43.507809 224.40325 43.121559 
Q 224.105125 42.733434 223.512625 42.733434 
Q 222.920125 42.733434 222.622 43.121559 
Q 222.323875 43.507809 222.323875 44.269059 
Q 222.323875 45.037809 222.622 45.422184 
Q 222.920125 45.804684 223.512625 45.804684 
z
M 233.397859 45.827184 
Q 233.397859 44.186559 233.090359 43.517184 
Q 232.782859 42.845934 232.055359 42.845934 
Q 231.329734 42.845934 231.018484 43.517184 
Q 230.707234 44.186559 230.707234 45.827184 
Q 230.707234 47.486559 231.018484 48.167184 
Q 231.329734 48.845934 232.055359 48.845934 
Q 232.777234 48.845934 233.086609 48.167184 
Q 233.397859 47.486559 233.397859 45.827184 
z
M 235.653484 45.845934 
Q 235.653484 48.019059 234.715984 49.200309 
Q 233.778484 50.381559 232.055359 50.381559 
Q 230.326609 50.381559 229.389109 49.200309 
Q 228.451609 48.019059 228.451609 45.845934 
Q 228.451609 43.665309 229.389109 42.485934 
Q 230.326609 41.304684 232.055359 41.304684 
Q 233.778484 41.304684 234.715984 42.485934 
Q 235.653484 43.665309 235.653484 45.845934 
z
" style="fill: #abc9ea; stroke: #ffffff; stroke-width: 3"/>
    <path d="M 201.727938 48.553434 
L 205.577313 48.553434 
L 205.577313 50.210934 
L 199.219188 50.210934 
L 199.219188 48.553434 
L 202.412313 45.733434 
Q 202.841688 45.347184 203.046063 44.977809 
Q 203.250438 44.608434 203.250438 44.210934 
Q 203.250438 43.595934 202.837938 43.220934 
Q 202.425438 42.845934 201.739188 42.845934 
Q 201.212313 42.845934 200.584188 43.070934 
Q 199.957938 43.295934 199.243563 43.742184 
L 199.243563 41.820309 
Q 200.004813 41.569059 200.749188 41.437809 
Q 201.493563 41.304684 202.207938 41.304684 
Q 203.779188 41.304684 204.649188 41.996559 
Q 205.519188 42.686559 205.519188 43.924059 
Q 205.519188 44.638434 205.149813 45.257184 
Q 204.780438 45.874059 203.597313 46.912809 
L 201.727938 48.553434 
z
M 207.821922 50.017809 
L 207.821922 48.399684 
Q 208.360047 48.652809 208.851297 48.778434 
Q 209.344422 48.904059 209.824422 48.904059 
Q 210.833172 48.904059 211.395672 48.345309 
Q 211.958172 47.784684 212.057547 46.684059 
Q 211.660047 46.976559 211.208172 47.122809 
Q 210.756297 47.269059 210.229422 47.269059 
Q 208.886922 47.269059 208.063797 46.487184 
Q 207.240672 45.705309 207.240672 44.428434 
Q 207.240672 43.014684 208.157547 42.165309 
Q 209.074422 41.315934 210.615672 41.315934 
Q 212.327547 41.315934 213.265047 42.470934 
Q 214.202547 43.624059 214.202547 45.733434 
Q 214.202547 47.902809 213.105672 49.142184 
Q 212.010672 50.381559 210.100047 50.381559 
Q 209.485047 50.381559 208.922547 50.289684 
Q 208.360047 50.199684 207.821922 50.017809 
z
M 210.604422 45.804684 
Q 211.196922 45.804684 211.495047 45.422184 
Q 211.793172 45.037809 211.793172 44.269059 
Q 211.793172 43.507809 211.495047 43.121559 
Q 211.196922 42.733434 210.604422 42.733434 
Q 210.011922 42.733434 209.713797 43.121559 
Q 209.415672 43.507809 209.415672 44.269059 
Q 209.415672 45.037809 209.713797 45.422184 
Q 210.011922 45.804684 210.604422 45.804684 
z
M 216.194031 47.944059 
L 218.303406 47.944059 
L 218.303406 50.210934 
L 216.194031 50.210934 
L 216.194031 47.944059 
z
M 220.730125 50.017809 
L 220.730125 48.399684 
Q 221.26825 48.652809 221.7595 48.778434 
Q 222.252625 48.904059 222.732625 48.904059 
Q 223.741375 48.904059 224.303875 48.345309 
Q 224.866375 47.784684 224.96575 46.684059 
Q 224.56825 46.976559 224.116375 47.122809 
Q 223.6645 47.269059 223.137625 47.269059 
Q 221.795125 47.269059 220.972 46.487184 
Q 220.148875 45.705309 220.148875 44.428434 
Q 220.148875 43.014684 221.06575 42.165309 
Q 221.982625 41.315934 223.523875 41.315934 
Q 225.23575 41.315934 226.17325 42.470934 
Q 227.11075 43.624059 227.11075 45.733434 
Q 227.11075 47.902809 226.013875 49.142184 
Q 224.918875 50.381559 223.00825 50.381559 
Q 222.39325 50.381559 221.83075 50.289684 
Q 221.26825 50.199684 220.730125 50.017809 
z
M 223.512625 45.804684 
Q 224.105125 45.804684 224.40325 45.422184 
Q 224.701375 45.037809 224.701375 44.269059 
Q 224.701375 43.507809 224.40325 43.121559 
Q 224.105125 42.733434 223.512625 42.733434 
Q 222.920125 42.733434 222.622 43.121559 
Q 222.323875 43.507809 222.323875 44.269059 
Q 222.323875 45.037809 222.622 45.422184 
Q 222.920125 45.804684 223.512625 45.804684 
z
M 233.397859 45.827184 
Q 233.397859 44.186559 233.090359 43.517184 
Q 232.782859 42.845934 232.055359 42.845934 
Q 231.329734 42.845934 231.018484 43.517184 
Q 230.707234 44.186559 230.707234 45.827184 
Q 230.707234 47.486559 231.018484 48.167184 
Q 231.329734 48.845934 232.055359 48.845934 
Q 232.777234 48.845934 233.086609 48.167184 
Q 233.397859 47.486559 233.397859 45.827184 
z
M 235.653484 45.845934 
Q 235.653484 48.019059 234.715984 49.200309 
Q 233.778484 50.381559 232.055359 50.381559 
Q 230.326609 50.381559 229.389109 49.200309 
Q 228.451609 48.019059 228.451609 45.845934 
Q 228.451609 43.665309 229.389109 42.485934 
Q 230.326609 41.304684 232.055359 41.304684 
Q 233.778484 41.304684 234.715984 42.485934 
Q 235.653484 43.665309 235.653484 45.845934 
z
" style="fill: #abc9ea"/>
   </g>
   <g id="text_15">
    <path d="M 333.217937 54.674885 
L 337.067312 54.674885 
L 337.067312 56.332385 
L 330.709187 56.332385 
L 330.709187 54.674885 
L 333.902312 51.854885 
Q 334.331687 51.468635 334.536062 51.09926 
Q 334.740437 50.729885 334.740437 50.332385 
Q 334.740437 49.717385 334.327937 49.342385 
Q 333.915437 48.967385 333.229187 48.967385 
Q 332.702312 48.967385 332.074187 49.192385 
Q 331.447937 49.417385 330.733562 49.863635 
L 330.733562 47.94176 
Q 331.494812 47.69051 332.239187 47.55926 
Q 332.983562 47.426135 333.697937 47.426135 
Q 335.269187 47.426135 336.139187 48.11801 
Q 337.009187 48.80801 337.009187 50.04551 
Q 337.009187 50.759885 336.639812 51.378635 
Q 336.270437 51.99551 335.087312 53.03426 
L 333.217937 54.674885 
z
M 339.311922 56.13926 
L 339.311922 54.521135 
Q 339.850047 54.77426 340.341297 54.899885 
Q 340.834422 55.02551 341.314422 55.02551 
Q 342.323172 55.02551 342.885672 54.46676 
Q 343.448172 53.906135 343.547547 52.80551 
Q 343.150047 53.09801 342.698172 53.24426 
Q 342.246297 53.39051 341.719422 53.39051 
Q 340.376922 53.39051 339.553797 52.608635 
Q 338.730672 51.82676 338.730672 50.549885 
Q 338.730672 49.136135 339.647547 48.28676 
Q 340.564422 47.437385 342.105672 47.437385 
Q 343.817547 47.437385 344.755047 48.592385 
Q 345.692547 49.74551 345.692547 51.854885 
Q 345.692547 54.02426 344.595672 55.263635 
Q 343.500672 56.50301 341.590047 56.50301 
Q 340.975047 56.50301 340.412547 56.411135 
Q 339.850047 56.321135 339.311922 56.13926 
z
M 342.094422 51.926135 
Q 342.686922 51.926135 342.985047 51.543635 
Q 343.283172 51.15926 343.283172 50.39051 
Q 343.283172 49.62926 342.985047 49.24301 
Q 342.686922 48.854885 342.094422 48.854885 
Q 341.501922 48.854885 341.203797 49.24301 
Q 340.905672 49.62926 340.905672 50.39051 
Q 340.905672 51.15926 341.203797 51.543635 
Q 341.501922 51.926135 342.094422 51.926135 
z
M 347.684031 54.06551 
L 349.793406 54.06551 
L 349.793406 56.332385 
L 347.684031 56.332385 
L 347.684031 54.06551 
z
M 352.4245 54.77426 
L 354.417625 54.77426 
L 354.417625 49.11926 
L 352.372 49.541135 
L 352.372 48.00551 
L 354.4045 47.583635 
L 356.5495 47.583635 
L 356.5495 54.77426 
L 358.542625 54.77426 
L 358.542625 56.332385 
L 352.4245 56.332385 
L 352.4245 54.77426 
z
M 362.825359 54.674885 
L 366.674734 54.674885 
L 366.674734 56.332385 
L 360.316609 56.332385 
L 360.316609 54.674885 
L 363.509734 51.854885 
Q 363.939109 51.468635 364.143484 51.09926 
Q 364.347859 50.729885 364.347859 50.332385 
Q 364.347859 49.717385 363.935359 49.342385 
Q 363.522859 48.967385 362.836609 48.967385 
Q 362.309734 48.967385 361.681609 49.192385 
Q 361.055359 49.417385 360.340984 49.863635 
L 360.340984 47.94176 
Q 361.102234 47.69051 361.846609 47.55926 
Q 362.590984 47.426135 363.305359 47.426135 
Q 364.876609 47.426135 365.746609 48.11801 
Q 366.616609 48.80801 366.616609 50.04551 
Q 366.616609 50.759885 366.247234 51.378635 
Q 365.877859 51.99551 364.694734 53.03426 
L 362.825359 54.674885 
z
" style="fill: #abc9ea; stroke: #ffffff; stroke-width: 3"/>
    <path d="M 333.217937 54.674885 
L 337.067312 54.674885 
L 337.067312 56.332385 
L 330.709187 56.332385 
L 330.709187 54.674885 
L 333.902312 51.854885 
Q 334.331687 51.468635 334.536062 51.09926 
Q 334.740437 50.729885 334.740437 50.332385 
Q 334.740437 49.717385 334.327937 49.342385 
Q 333.915437 48.967385 333.229187 48.967385 
Q 332.702312 48.967385 332.074187 49.192385 
Q 331.447937 49.417385 330.733562 49.863635 
L 330.733562 47.94176 
Q 331.494812 47.69051 332.239187 47.55926 
Q 332.983562 47.426135 333.697937 47.426135 
Q 335.269187 47.426135 336.139187 48.11801 
Q 337.009187 48.80801 337.009187 50.04551 
Q 337.009187 50.759885 336.639812 51.378635 
Q 336.270437 51.99551 335.087312 53.03426 
L 333.217937 54.674885 
z
M 339.311922 56.13926 
L 339.311922 54.521135 
Q 339.850047 54.77426 340.341297 54.899885 
Q 340.834422 55.02551 341.314422 55.02551 
Q 342.323172 55.02551 342.885672 54.46676 
Q 343.448172 53.906135 343.547547 52.80551 
Q 343.150047 53.09801 342.698172 53.24426 
Q 342.246297 53.39051 341.719422 53.39051 
Q 340.376922 53.39051 339.553797 52.608635 
Q 338.730672 51.82676 338.730672 50.549885 
Q 338.730672 49.136135 339.647547 48.28676 
Q 340.564422 47.437385 342.105672 47.437385 
Q 343.817547 47.437385 344.755047 48.592385 
Q 345.692547 49.74551 345.692547 51.854885 
Q 345.692547 54.02426 344.595672 55.263635 
Q 343.500672 56.50301 341.590047 56.50301 
Q 340.975047 56.50301 340.412547 56.411135 
Q 339.850047 56.321135 339.311922 56.13926 
z
M 342.094422 51.926135 
Q 342.686922 51.926135 342.985047 51.543635 
Q 343.283172 51.15926 343.283172 50.39051 
Q 343.283172 49.62926 342.985047 49.24301 
Q 342.686922 48.854885 342.094422 48.854885 
Q 341.501922 48.854885 341.203797 49.24301 
Q 340.905672 49.62926 340.905672 50.39051 
Q 340.905672 51.15926 341.203797 51.543635 
Q 341.501922 51.926135 342.094422 51.926135 
z
M 347.684031 54.06551 
L 349.793406 54.06551 
L 349.793406 56.332385 
L 347.684031 56.332385 
L 347.684031 54.06551 
z
M 352.4245 54.77426 
L 354.417625 54.77426 
L 354.417625 49.11926 
L 352.372 49.541135 
L 352.372 48.00551 
L 354.4045 47.583635 
L 356.5495 47.583635 
L 356.5495 54.77426 
L 358.542625 54.77426 
L 358.542625 56.332385 
L 352.4245 56.332385 
L 352.4245 54.77426 
z
M 362.825359 54.674885 
L 366.674734 54.674885 
L 366.674734 56.332385 
L 360.316609 56.332385 
L 360.316609 54.674885 
L 363.509734 51.854885 
Q 363.939109 51.468635 364.143484 51.09926 
Q 364.347859 50.729885 364.347859 50.332385 
Q 364.347859 49.717385 363.935359 49.342385 
Q 363.522859 48.967385 362.836609 48.967385 
Q 362.309734 48.967385 361.681609 49.192385 
Q 361.055359 49.417385 360.340984 49.863635 
L 360.340984 47.94176 
Q 361.102234 47.69051 361.846609 47.55926 
Q 362.590984 47.426135 363.305359 47.426135 
Q 364.876609 47.426135 365.746609 48.11801 
Q 366.616609 48.80801 366.616609 50.04551 
Q 366.616609 50.759885 366.247234 51.378635 
Q 365.877859 51.99551 364.694734 53.03426 
L 362.825359 54.674885 
z
" style="fill: #abc9ea"/>
   </g>
   <g id="text_16">
    <path d="M 127.893625 226.954918 
Q 127.301125 226.954918 127.004875 227.339293 
Q 126.708625 227.721793 126.708625 228.490543 
Q 126.708625 229.257418 127.004875 229.641793 
Q 127.301125 230.024293 127.893625 230.024293 
Q 128.489875 230.024293 128.786125 229.641793 
Q 129.082375 229.257418 129.082375 228.490543 
Q 129.082375 227.721793 128.786125 227.339293 
Q 128.489875 226.954918 127.893625 226.954918 
z
M 130.68175 222.753043 
L 130.68175 224.371168 
Q 130.124875 224.106793 129.63175 223.981168 
Q 129.1405 223.855543 128.67175 223.855543 
Q 127.664875 223.855543 127.102375 224.416168 
Q 126.539875 224.974918 126.446125 226.075543 
Q 126.832375 225.788668 127.282375 225.646168 
Q 127.73425 225.501793 128.268625 225.501793 
Q 129.60925 225.501793 130.432375 226.287418 
Q 131.2555 227.071168 131.2555 228.342418 
Q 131.2555 229.748668 130.334875 230.596168 
Q 129.416125 231.443668 127.86925 231.443668 
Q 126.164875 231.443668 125.22925 230.292418 
Q 124.2955 229.139293 124.2955 227.024293 
Q 124.2955 224.856793 125.388625 223.617418 
Q 126.48175 222.378043 128.384875 222.378043 
Q 128.988625 222.378043 129.55675 222.471793 
Q 130.124875 222.565543 130.68175 222.753043 
z
M 133.125109 229.006168 
L 135.234484 229.006168 
L 135.234484 231.273043 
L 133.125109 231.273043 
L 133.125109 229.006168 
z
M 140.636828 227.358043 
Q 140.004953 227.358043 139.663703 227.704918 
Q 139.324328 228.049918 139.324328 228.694918 
Q 139.324328 229.339918 139.663703 229.683043 
Q 140.004953 230.024293 140.636828 230.024293 
Q 141.264953 230.024293 141.598703 229.683043 
Q 141.932453 229.339918 141.932453 228.694918 
Q 141.932453 228.044293 141.598703 227.701168 
Q 141.264953 227.358043 140.636828 227.358043 
z
M 138.990578 226.615543 
Q 138.193703 226.373668 137.788703 225.876793 
Q 137.385578 225.378043 137.385578 224.633668 
Q 137.385578 223.527418 138.210578 222.948043 
Q 139.037453 222.366793 140.636828 222.366793 
Q 142.224953 222.366793 143.049953 222.944293 
Q 143.876828 223.521793 143.876828 224.633668 
Q 143.876828 225.378043 143.469953 225.876793 
Q 143.063078 226.373668 142.266203 226.615543 
Q 143.156828 226.861168 143.610578 227.414293 
Q 144.064328 227.967418 144.064328 228.811168 
Q 144.064328 230.112418 143.199953 230.778043 
Q 142.335578 231.443668 140.636828 231.443668 
Q 138.932453 231.443668 138.062453 230.778043 
Q 137.192453 230.112418 137.192453 228.811168 
Q 137.192453 227.967418 137.646203 227.414293 
Q 138.099953 226.861168 138.990578 226.615543 
z
M 139.517453 224.862418 
Q 139.517453 225.383668 139.808078 225.664918 
Q 140.098703 225.946168 140.636828 225.946168 
Q 141.163703 225.946168 141.450578 225.664918 
Q 141.739328 225.383668 141.739328 224.862418 
Q 141.739328 224.341168 141.450578 224.063668 
Q 141.163703 223.784293 140.636828 223.784293 
Q 140.098703 223.784293 139.808078 224.065543 
Q 139.517453 224.346793 139.517453 224.862418 
z
M 149.151438 226.954918 
Q 148.558938 226.954918 148.262688 227.339293 
Q 147.966438 227.721793 147.966438 228.490543 
Q 147.966438 229.257418 148.262688 229.641793 
Q 148.558938 230.024293 149.151438 230.024293 
Q 149.747688 230.024293 150.043938 229.641793 
Q 150.340188 229.257418 150.340188 228.490543 
Q 150.340188 227.721793 150.043938 227.339293 
Q 149.747688 226.954918 149.151438 226.954918 
z
M 151.939563 222.753043 
L 151.939563 224.371168 
Q 151.382688 224.106793 150.889563 223.981168 
Q 150.398313 223.855543 149.929563 223.855543 
Q 148.922688 223.855543 148.360188 224.416168 
Q 147.797688 224.974918 147.703938 226.075543 
Q 148.090188 225.788668 148.540188 225.646168 
Q 148.992063 225.501793 149.526438 225.501793 
Q 150.867063 225.501793 151.690188 226.287418 
Q 152.513313 227.071168 152.513313 228.342418 
Q 152.513313 229.748668 151.592688 230.596168 
Q 150.673938 231.443668 149.127063 231.443668 
Q 147.422688 231.443668 146.487063 230.292418 
Q 145.553313 229.139293 145.553313 227.024293 
Q 145.553313 224.856793 146.646438 223.617418 
Q 147.739563 222.378043 149.642688 222.378043 
Q 150.246438 222.378043 150.814563 222.471793 
Q 151.382688 222.565543 151.939563 222.753043 
z
" style="fill: #efb792; stroke: #ffffff; stroke-width: 3"/>
    <path d="M 127.893625 226.954918 
Q 127.301125 226.954918 127.004875 227.339293 
Q 126.708625 227.721793 126.708625 228.490543 
Q 126.708625 229.257418 127.004875 229.641793 
Q 127.301125 230.024293 127.893625 230.024293 
Q 128.489875 230.024293 128.786125 229.641793 
Q 129.082375 229.257418 129.082375 228.490543 
Q 129.082375 227.721793 128.786125 227.339293 
Q 128.489875 226.954918 127.893625 226.954918 
z
M 130.68175 222.753043 
L 130.68175 224.371168 
Q 130.124875 224.106793 129.63175 223.981168 
Q 129.1405 223.855543 128.67175 223.855543 
Q 127.664875 223.855543 127.102375 224.416168 
Q 126.539875 224.974918 126.446125 226.075543 
Q 126.832375 225.788668 127.282375 225.646168 
Q 127.73425 225.501793 128.268625 225.501793 
Q 129.60925 225.501793 130.432375 226.287418 
Q 131.2555 227.071168 131.2555 228.342418 
Q 131.2555 229.748668 130.334875 230.596168 
Q 129.416125 231.443668 127.86925 231.443668 
Q 126.164875 231.443668 125.22925 230.292418 
Q 124.2955 229.139293 124.2955 227.024293 
Q 124.2955 224.856793 125.388625 223.617418 
Q 126.48175 222.378043 128.384875 222.378043 
Q 128.988625 222.378043 129.55675 222.471793 
Q 130.124875 222.565543 130.68175 222.753043 
z
M 133.125109 229.006168 
L 135.234484 229.006168 
L 135.234484 231.273043 
L 133.125109 231.273043 
L 133.125109 229.006168 
z
M 140.636828 227.358043 
Q 140.004953 227.358043 139.663703 227.704918 
Q 139.324328 228.049918 139.324328 228.694918 
Q 139.324328 229.339918 139.663703 229.683043 
Q 140.004953 230.024293 140.636828 230.024293 
Q 141.264953 230.024293 141.598703 229.683043 
Q 141.932453 229.339918 141.932453 228.694918 
Q 141.932453 228.044293 141.598703 227.701168 
Q 141.264953 227.358043 140.636828 227.358043 
z
M 138.990578 226.615543 
Q 138.193703 226.373668 137.788703 225.876793 
Q 137.385578 225.378043 137.385578 224.633668 
Q 137.385578 223.527418 138.210578 222.948043 
Q 139.037453 222.366793 140.636828 222.366793 
Q 142.224953 222.366793 143.049953 222.944293 
Q 143.876828 223.521793 143.876828 224.633668 
Q 143.876828 225.378043 143.469953 225.876793 
Q 143.063078 226.373668 142.266203 226.615543 
Q 143.156828 226.861168 143.610578 227.414293 
Q 144.064328 227.967418 144.064328 228.811168 
Q 144.064328 230.112418 143.199953 230.778043 
Q 142.335578 231.443668 140.636828 231.443668 
Q 138.932453 231.443668 138.062453 230.778043 
Q 137.192453 230.112418 137.192453 228.811168 
Q 137.192453 227.967418 137.646203 227.414293 
Q 138.099953 226.861168 138.990578 226.615543 
z
M 139.517453 224.862418 
Q 139.517453 225.383668 139.808078 225.664918 
Q 140.098703 225.946168 140.636828 225.946168 
Q 141.163703 225.946168 141.450578 225.664918 
Q 141.739328 225.383668 141.739328 224.862418 
Q 141.739328 224.341168 141.450578 224.063668 
Q 141.163703 223.784293 140.636828 223.784293 
Q 140.098703 223.784293 139.808078 224.065543 
Q 139.517453 224.346793 139.517453 224.862418 
z
M 149.151438 226.954918 
Q 148.558938 226.954918 148.262688 227.339293 
Q 147.966438 227.721793 147.966438 228.490543 
Q 147.966438 229.257418 148.262688 229.641793 
Q 148.558938 230.024293 149.151438 230.024293 
Q 149.747688 230.024293 150.043938 229.641793 
Q 150.340188 229.257418 150.340188 228.490543 
Q 150.340188 227.721793 150.043938 227.339293 
Q 149.747688 226.954918 149.151438 226.954918 
z
M 151.939563 222.753043 
L 151.939563 224.371168 
Q 151.382688 224.106793 150.889563 223.981168 
Q 150.398313 223.855543 149.929563 223.855543 
Q 148.922688 223.855543 148.360188 224.416168 
Q 147.797688 224.974918 147.703938 226.075543 
Q 148.090188 225.788668 148.540188 225.646168 
Q 148.992063 225.501793 149.526438 225.501793 
Q 150.867063 225.501793 151.690188 226.287418 
Q 152.513313 227.071168 152.513313 228.342418 
Q 152.513313 229.748668 151.592688 230.596168 
Q 150.673938 231.443668 149.127063 231.443668 
Q 147.422688 231.443668 146.487063 230.292418 
Q 145.553313 229.139293 145.553313 227.024293 
Q 145.553313 224.856793 146.646438 223.617418 
Q 147.739563 222.378043 149.642688 222.378043 
Q 150.246438 222.378043 150.814563 222.471793 
Q 151.382688 222.565543 151.939563 222.753043 
z
" style="fill: #efb792"/>
   </g>
   <g id="text_17">
    <path d="M 259.383625 226.678816 
Q 258.791125 226.678816 258.494875 227.063191 
Q 258.198625 227.445691 258.198625 228.214441 
Q 258.198625 228.981316 258.494875 229.365691 
Q 258.791125 229.748191 259.383625 229.748191 
Q 259.979875 229.748191 260.276125 229.365691 
Q 260.572375 228.981316 260.572375 228.214441 
Q 260.572375 227.445691 260.276125 227.063191 
Q 259.979875 226.678816 259.383625 226.678816 
z
M 262.17175 222.476941 
L 262.17175 224.095066 
Q 261.614875 223.830691 261.12175 223.705066 
Q 260.6305 223.579441 260.16175 223.579441 
Q 259.154875 223.579441 258.592375 224.140066 
Q 258.029875 224.698816 257.936125 225.799441 
Q 258.322375 225.512566 258.772375 225.370066 
Q 259.22425 225.225691 259.758625 225.225691 
Q 261.09925 225.225691 261.922375 226.011316 
Q 262.7455 226.795066 262.7455 228.066316 
Q 262.7455 229.472566 261.824875 230.320066 
Q 260.906125 231.167566 259.35925 231.167566 
Q 257.654875 231.167566 256.71925 230.016316 
Q 255.7855 228.863191 255.7855 226.748191 
Q 255.7855 224.580691 256.878625 223.341316 
Q 257.97175 222.101941 259.874875 222.101941 
Q 260.478625 222.101941 261.04675 222.195691 
Q 261.614875 222.289441 262.17175 222.476941 
z
M 264.615109 228.730066 
L 266.724484 228.730066 
L 266.724484 230.996941 
L 264.615109 230.996941 
L 264.615109 228.730066 
z
M 272.126828 227.081941 
Q 271.494953 227.081941 271.153703 227.428816 
Q 270.814328 227.773816 270.814328 228.418816 
Q 270.814328 229.063816 271.153703 229.406941 
Q 271.494953 229.748191 272.126828 229.748191 
Q 272.754953 229.748191 273.088703 229.406941 
Q 273.422453 229.063816 273.422453 228.418816 
Q 273.422453 227.768191 273.088703 227.425066 
Q 272.754953 227.081941 272.126828 227.081941 
z
M 270.480578 226.339441 
Q 269.683703 226.097566 269.278703 225.600691 
Q 268.875578 225.101941 268.875578 224.357566 
Q 268.875578 223.251316 269.700578 222.671941 
Q 270.527453 222.090691 272.126828 222.090691 
Q 273.714953 222.090691 274.539953 222.668191 
Q 275.366828 223.245691 275.366828 224.357566 
Q 275.366828 225.101941 274.959953 225.600691 
Q 274.553078 226.097566 273.756203 226.339441 
Q 274.646828 226.585066 275.100578 227.138191 
Q 275.554328 227.691316 275.554328 228.535066 
Q 275.554328 229.836316 274.689953 230.501941 
Q 273.825578 231.167566 272.126828 231.167566 
Q 270.422453 231.167566 269.552453 230.501941 
Q 268.682453 229.836316 268.682453 228.535066 
Q 268.682453 227.691316 269.136203 227.138191 
Q 269.589953 226.585066 270.480578 226.339441 
z
M 271.007453 224.586316 
Q 271.007453 225.107566 271.298078 225.388816 
Q 271.588703 225.670066 272.126828 225.670066 
Q 272.653703 225.670066 272.940578 225.388816 
Q 273.229328 225.107566 273.229328 224.586316 
Q 273.229328 224.065066 272.940578 223.787566 
Q 272.653703 223.508191 272.126828 223.508191 
Q 271.588703 223.508191 271.298078 223.789441 
Q 271.007453 224.070691 271.007453 224.586316 
z
M 277.500813 230.803816 
L 277.500813 229.185691 
Q 278.038938 229.438816 278.530188 229.564441 
Q 279.023313 229.690066 279.503313 229.690066 
Q 280.512063 229.690066 281.074563 229.131316 
Q 281.637063 228.570691 281.736438 227.470066 
Q 281.338938 227.762566 280.887063 227.908816 
Q 280.435188 228.055066 279.908313 228.055066 
Q 278.565813 228.055066 277.742688 227.273191 
Q 276.919563 226.491316 276.919563 225.214441 
Q 276.919563 223.800691 277.836438 222.951316 
Q 278.753313 222.101941 280.294563 222.101941 
Q 282.006438 222.101941 282.943938 223.256941 
Q 283.881438 224.410066 283.881438 226.519441 
Q 283.881438 228.688816 282.784563 229.928191 
Q 281.689563 231.167566 279.778938 231.167566 
Q 279.163938 231.167566 278.601438 231.075691 
Q 278.038938 230.985691 277.500813 230.803816 
z
M 280.283313 226.590691 
Q 280.875813 226.590691 281.173938 226.208191 
Q 281.472063 225.823816 281.472063 225.055066 
Q 281.472063 224.293816 281.173938 223.907566 
Q 280.875813 223.519441 280.283313 223.519441 
Q 279.690813 223.519441 279.392688 223.907566 
Q 279.094563 224.293816 279.094563 225.055066 
Q 279.094563 225.823816 279.392688 226.208191 
Q 279.690813 226.590691 280.283313 226.590691 
z
" style="fill: #efb792; stroke: #ffffff; stroke-width: 3"/>
    <path d="M 259.383625 226.678816 
Q 258.791125 226.678816 258.494875 227.063191 
Q 258.198625 227.445691 258.198625 228.214441 
Q 258.198625 228.981316 258.494875 229.365691 
Q 258.791125 229.748191 259.383625 229.748191 
Q 259.979875 229.748191 260.276125 229.365691 
Q 260.572375 228.981316 260.572375 228.214441 
Q 260.572375 227.445691 260.276125 227.063191 
Q 259.979875 226.678816 259.383625 226.678816 
z
M 262.17175 222.476941 
L 262.17175 224.095066 
Q 261.614875 223.830691 261.12175 223.705066 
Q 260.6305 223.579441 260.16175 223.579441 
Q 259.154875 223.579441 258.592375 224.140066 
Q 258.029875 224.698816 257.936125 225.799441 
Q 258.322375 225.512566 258.772375 225.370066 
Q 259.22425 225.225691 259.758625 225.225691 
Q 261.09925 225.225691 261.922375 226.011316 
Q 262.7455 226.795066 262.7455 228.066316 
Q 262.7455 229.472566 261.824875 230.320066 
Q 260.906125 231.167566 259.35925 231.167566 
Q 257.654875 231.167566 256.71925 230.016316 
Q 255.7855 228.863191 255.7855 226.748191 
Q 255.7855 224.580691 256.878625 223.341316 
Q 257.97175 222.101941 259.874875 222.101941 
Q 260.478625 222.101941 261.04675 222.195691 
Q 261.614875 222.289441 262.17175 222.476941 
z
M 264.615109 228.730066 
L 266.724484 228.730066 
L 266.724484 230.996941 
L 264.615109 230.996941 
L 264.615109 228.730066 
z
M 272.126828 227.081941 
Q 271.494953 227.081941 271.153703 227.428816 
Q 270.814328 227.773816 270.814328 228.418816 
Q 270.814328 229.063816 271.153703 229.406941 
Q 271.494953 229.748191 272.126828 229.748191 
Q 272.754953 229.748191 273.088703 229.406941 
Q 273.422453 229.063816 273.422453 228.418816 
Q 273.422453 227.768191 273.088703 227.425066 
Q 272.754953 227.081941 272.126828 227.081941 
z
M 270.480578 226.339441 
Q 269.683703 226.097566 269.278703 225.600691 
Q 268.875578 225.101941 268.875578 224.357566 
Q 268.875578 223.251316 269.700578 222.671941 
Q 270.527453 222.090691 272.126828 222.090691 
Q 273.714953 222.090691 274.539953 222.668191 
Q 275.366828 223.245691 275.366828 224.357566 
Q 275.366828 225.101941 274.959953 225.600691 
Q 274.553078 226.097566 273.756203 226.339441 
Q 274.646828 226.585066 275.100578 227.138191 
Q 275.554328 227.691316 275.554328 228.535066 
Q 275.554328 229.836316 274.689953 230.501941 
Q 273.825578 231.167566 272.126828 231.167566 
Q 270.422453 231.167566 269.552453 230.501941 
Q 268.682453 229.836316 268.682453 228.535066 
Q 268.682453 227.691316 269.136203 227.138191 
Q 269.589953 226.585066 270.480578 226.339441 
z
M 271.007453 224.586316 
Q 271.007453 225.107566 271.298078 225.388816 
Q 271.588703 225.670066 272.126828 225.670066 
Q 272.653703 225.670066 272.940578 225.388816 
Q 273.229328 225.107566 273.229328 224.586316 
Q 273.229328 224.065066 272.940578 223.787566 
Q 272.653703 223.508191 272.126828 223.508191 
Q 271.588703 223.508191 271.298078 223.789441 
Q 271.007453 224.070691 271.007453 224.586316 
z
M 277.500813 230.803816 
L 277.500813 229.185691 
Q 278.038938 229.438816 278.530188 229.564441 
Q 279.023313 229.690066 279.503313 229.690066 
Q 280.512063 229.690066 281.074563 229.131316 
Q 281.637063 228.570691 281.736438 227.470066 
Q 281.338938 227.762566 280.887063 227.908816 
Q 280.435188 228.055066 279.908313 228.055066 
Q 278.565813 228.055066 277.742688 227.273191 
Q 276.919563 226.491316 276.919563 225.214441 
Q 276.919563 223.800691 277.836438 222.951316 
Q 278.753313 222.101941 280.294563 222.101941 
Q 282.006438 222.101941 282.943938 223.256941 
Q 283.881438 224.410066 283.881438 226.519441 
Q 283.881438 228.688816 282.784563 229.928191 
Q 281.689563 231.167566 279.778938 231.167566 
Q 279.163938 231.167566 278.601438 231.075691 
Q 278.038938 230.985691 277.500813 230.803816 
z
M 280.283313 226.590691 
Q 280.875813 226.590691 281.173938 226.208191 
Q 281.472063 225.823816 281.472063 225.055066 
Q 281.472063 224.293816 281.173938 223.907566 
Q 280.875813 223.519441 280.283313 223.519441 
Q 279.690813 223.519441 279.392688 223.907566 
Q 279.094563 224.293816 279.094563 225.055066 
Q 279.094563 225.823816 279.392688 226.208191 
Q 279.690813 226.590691 280.283313 226.590691 
z
" style="fill: #efb792"/>
   </g>
   <g id="text_18">
    <path d="M 390.873625 230.555036 
Q 390.281125 230.555036 389.984875 230.939411 
Q 389.688625 231.321911 389.688625 232.090661 
Q 389.688625 232.857536 389.984875 233.241911 
Q 390.281125 233.624411 390.873625 233.624411 
Q 391.469875 233.624411 391.766125 233.241911 
Q 392.062375 232.857536 392.062375 232.090661 
Q 392.062375 231.321911 391.766125 230.939411 
Q 391.469875 230.555036 390.873625 230.555036 
z
M 393.66175 226.353161 
L 393.66175 227.971286 
Q 393.104875 227.706911 392.61175 227.581286 
Q 392.1205 227.455661 391.65175 227.455661 
Q 390.644875 227.455661 390.082375 228.016286 
Q 389.519875 228.575036 389.426125 229.675661 
Q 389.812375 229.388786 390.262375 229.246286 
Q 390.71425 229.101911 391.248625 229.101911 
Q 392.58925 229.101911 393.412375 229.887536 
Q 394.2355 230.671286 394.2355 231.942536 
Q 394.2355 233.348786 393.314875 234.196286 
Q 392.396125 235.043786 390.84925 235.043786 
Q 389.144875 235.043786 388.20925 233.892536 
Q 387.2755 232.739411 387.2755 230.624411 
Q 387.2755 228.456911 388.368625 227.217536 
Q 389.46175 225.978161 391.364875 225.978161 
Q 391.968625 225.978161 392.53675 226.071911 
Q 393.104875 226.165661 393.66175 226.353161 
z
M 396.105109 232.606286 
L 398.214484 232.606286 
L 398.214484 234.873161 
L 396.105109 234.873161 
L 396.105109 232.606286 
z
M 403.856828 227.982536 
L 401.385578 231.644411 
L 403.856828 231.644411 
L 403.856828 227.982536 
z
M 403.481828 226.124411 
L 405.990578 226.124411 
L 405.990578 231.644411 
L 407.237453 231.644411 
L 407.237453 233.279411 
L 405.990578 233.279411 
L 405.990578 234.873161 
L 403.856828 234.873161 
L 403.856828 233.279411 
L 399.979328 233.279411 
L 399.979328 231.346286 
L 403.481828 226.124411 
z
M 413.308937 230.489411 
Q 413.308937 228.848786 413.001437 228.179411 
Q 412.693937 227.508161 411.966437 227.508161 
Q 411.240812 227.508161 410.929562 228.179411 
Q 410.618313 228.848786 410.618313 230.489411 
Q 410.618313 232.148786 410.929562 232.829411 
Q 411.240812 233.508161 411.966437 233.508161 
Q 412.688312 233.508161 412.997687 232.829411 
Q 413.308937 232.148786 413.308937 230.489411 
z
M 415.564562 230.508161 
Q 415.564562 232.681286 414.627062 233.862536 
Q 413.689562 235.043786 411.966437 235.043786 
Q 410.237687 235.043786 409.300187 233.862536 
Q 408.362687 232.681286 408.362687 230.508161 
Q 408.362687 228.327536 409.300187 227.148161 
Q 410.237687 225.966911 411.966437 225.966911 
Q 413.689562 225.966911 414.627062 227.148161 
Q 415.564562 228.327536 415.564562 230.508161 
z
" style="fill: #efb792; stroke: #ffffff; stroke-width: 3"/>
    <path d="M 390.873625 230.555036 
Q 390.281125 230.555036 389.984875 230.939411 
Q 389.688625 231.321911 389.688625 232.090661 
Q 389.688625 232.857536 389.984875 233.241911 
Q 390.281125 233.624411 390.873625 233.624411 
Q 391.469875 233.624411 391.766125 233.241911 
Q 392.062375 232.857536 392.062375 232.090661 
Q 392.062375 231.321911 391.766125 230.939411 
Q 391.469875 230.555036 390.873625 230.555036 
z
M 393.66175 226.353161 
L 393.66175 227.971286 
Q 393.104875 227.706911 392.61175 227.581286 
Q 392.1205 227.455661 391.65175 227.455661 
Q 390.644875 227.455661 390.082375 228.016286 
Q 389.519875 228.575036 389.426125 229.675661 
Q 389.812375 229.388786 390.262375 229.246286 
Q 390.71425 229.101911 391.248625 229.101911 
Q 392.58925 229.101911 393.412375 229.887536 
Q 394.2355 230.671286 394.2355 231.942536 
Q 394.2355 233.348786 393.314875 234.196286 
Q 392.396125 235.043786 390.84925 235.043786 
Q 389.144875 235.043786 388.20925 233.892536 
Q 387.2755 232.739411 387.2755 230.624411 
Q 387.2755 228.456911 388.368625 227.217536 
Q 389.46175 225.978161 391.364875 225.978161 
Q 391.968625 225.978161 392.53675 226.071911 
Q 393.104875 226.165661 393.66175 226.353161 
z
M 396.105109 232.606286 
L 398.214484 232.606286 
L 398.214484 234.873161 
L 396.105109 234.873161 
L 396.105109 232.606286 
z
M 403.856828 227.982536 
L 401.385578 231.644411 
L 403.856828 231.644411 
L 403.856828 227.982536 
z
M 403.481828 226.124411 
L 405.990578 226.124411 
L 405.990578 231.644411 
L 407.237453 231.644411 
L 407.237453 233.279411 
L 405.990578 233.279411 
L 405.990578 234.873161 
L 403.856828 234.873161 
L 403.856828 233.279411 
L 399.979328 233.279411 
L 399.979328 231.346286 
L 403.481828 226.124411 
z
M 413.308937 230.489411 
Q 413.308937 228.848786 413.001437 228.179411 
Q 412.693937 227.508161 411.966437 227.508161 
Q 411.240812 227.508161 410.929562 228.179411 
Q 410.618313 228.848786 410.618313 230.489411 
Q 410.618313 232.148786 410.929562 232.829411 
Q 411.240812 233.508161 411.966437 233.508161 
Q 412.688312 233.508161 412.997687 232.829411 
Q 413.308937 232.148786 413.308937 230.489411 
z
M 415.564562 230.508161 
Q 415.564562 232.681286 414.627062 233.862536 
Q 413.689562 235.043786 411.966437 235.043786 
Q 410.237687 235.043786 409.300187 233.862536 
Q 408.362687 232.681286 408.362687 230.508161 
Q 408.362687 228.327536 409.300187 227.148161 
Q 410.237687 225.966911 411.966437 225.966911 
Q 413.689562 225.966911 414.627062 227.148161 
Q 415.564562 228.327536 415.564562 230.508161 
z
" style="fill: #efb792"/>
   </g>
   <g id="text_19">
    <!-- Update -->
    <g style="fill: #262626" transform="translate(221.815938 16.318125) scale(0.12 -0.12)">
     <defs>
      <path id="DejaVuSans-55" d="M 556 4666 
L 1191 4666 
L 1191 1831 
Q 1191 1081 1462 751 
Q 1734 422 2344 422 
Q 2950 422 3222 751 
Q 3494 1081 3494 1831 
L 3494 4666 
L 4128 4666 
L 4128 1753 
Q 4128 841 3676 375 
Q 3225 -91 2344 -91 
Q 1459 -91 1007 375 
Q 556 841 556 1753 
L 556 4666 
z
" transform="scale(0.015625)"/>
      <path id="DejaVuSans-70" d="M 1159 525 
L 1159 -1331 
L 581 -1331 
L 581 3500 
L 1159 3500 
L 1159 2969 
Q 1341 3281 1617 3432 
Q 1894 3584 2278 3584 
Q 2916 3584 3314 3078 
Q 3713 2572 3713 1747 
Q 3713 922 3314 415 
Q 2916 -91 2278 -91 
Q 1894 -91 1617 61 
Q 1341 213 1159 525 
z
M 3116 1747 
Q 3116 2381 2855 2742 
Q 2594 3103 2138 3103 
Q 1681 3103 1420 2742 
Q 1159 2381 1159 1747 
Q 1159 1113 1420 752 
Q 1681 391 2138 391 
Q 2594 391 2855 752 
Q 3116 1113 3116 1747 
z
" transform="scale(0.015625)"/>
      <path id="DejaVuSans-64" d="M 2906 2969 
L 2906 4863 
L 3481 4863 
L 3481 0 
L 2906 0 
L 2906 525 
Q 2725 213 2448 61 
Q 2172 -91 1784 -91 
Q 1150 -91 751 415 
Q 353 922 353 1747 
Q 353 2572 751 3078 
Q 1150 3584 1784 3584 
Q 2172 3584 2448 3432 
Q 2725 3281 2906 2969 
z
M 947 1747 
Q 947 1113 1208 752 
Q 1469 391 1925 391 
Q 2381 391 2643 752 
Q 2906 1113 2906 1747 
Q 2906 2381 2643 2742 
Q 2381 3103 1925 3103 
Q 1469 3103 1208 2742 
Q 947 2381 947 1747 
z
" transform="scale(0.015625)"/>
      <path id="DejaVuSans-61" d="M 2194 1759 
Q 1497 1759 1228 1600 
Q 959 1441 959 1056 
Q 959 750 1161 570 
Q 1363 391 1709 391 
Q 2188 391 2477 730 
Q 2766 1069 2766 1631 
L 2766 1759 
L 2194 1759 
z
M 3341 1997 
L 3341 0 
L 2766 0 
L 2766 531 
Q 2569 213 2275 61 
Q 1981 -91 1556 -91 
Q 1019 -91 701 211 
Q 384 513 384 1019 
Q 384 1609 779 1909 
Q 1175 2209 1959 2209 
L 2766 2209 
L 2766 2266 
Q 2766 2663 2505 2880 
Q 2244 3097 1772 3097 
Q 1472 3097 1187 3025 
Q 903 2953 641 2809 
L 641 3341 
Q 956 3463 1253 3523 
Q 1550 3584 1831 3584 
Q 2591 3584 2966 3190 
Q 3341 2797 3341 1997 
z
" transform="scale(0.015625)"/>
     </defs>
     <use xlink:href="#DejaVuSans-55"/>
     <use xlink:href="#DejaVuSans-70" x="73.193359"/>
     <use xlink:href="#DejaVuSans-64" x="136.669922"/>
     <use xlink:href="#DejaVuSans-61" x="200.146484"/>
     <use xlink:href="#DejaVuSans-74" x="261.425781"/>
     <use xlink:href="#DejaVuSans-65" x="300.634766"/>
    </g>
   </g>
   <g id="legend_1">
    <g id="patch_11">
     <path d="M 361.685625 182.007812 
L 433.08125 182.007812 
Q 435.28125 182.007812 435.28125 179.807812 
L 435.28125 131.168437 
Q 435.28125 128.968437 433.08125 128.968437 
L 361.685625 128.968437 
Q 359.485625 128.968437 359.485625 131.168437 
L 359.485625 179.807812 
Q 359.485625 182.007812 361.685625 182.007812 
z
" style="fill: #eaeaf2; opacity: 0.8; stroke: #cccccc; stroke-linejoin: miter"/>
    </g>
    <g id="text_20">
     <!-- with_cache -->
     <g style="fill: #262626" transform="translate(363.885625 142.486562) scale(0.12 -0.12)">
      <defs>
       <path id="DejaVuSans-77" d="M 269 3500 
L 844 3500 
L 1563 769 
L 2278 3500 
L 2956 3500 
L 3675 769 
L 4391 3500 
L 4966 3500 
L 4050 0 
L 3372 0 
L 2619 2869 
L 1863 0 
L 1184 0 
L 269 3500 
z
" transform="scale(0.015625)"/>
       <path id="DejaVuSans-5f" d="M 3263 -1063 
L 3263 -1509 
L -63 -1509 
L -63 -1063 
L 3263 -1063 
z
" transform="scale(0.015625)"/>
       <path id="DejaVuSans-63" d="M 3122 3366 
L 3122 2828 
Q 2878 2963 2633 3030 
Q 2388 3097 2138 3097 
Q 1578 3097 1268 2742 
Q 959 2388 959 1747 
Q 959 1106 1268 751 
Q 1578 397 2138 397 
Q 2388 397 2633 464 
Q 2878 531 3122 666 
L 3122 134 
Q 2881 22 2623 -34 
Q 2366 -91 2075 -91 
Q 1284 -91 818 406 
Q 353 903 353 1747 
Q 353 2603 823 3093 
Q 1294 3584 2113 3584 
Q 2378 3584 2631 3529 
Q 2884 3475 3122 3366 
z
" transform="scale(0.015625)"/>
      </defs>
      <use xlink:href="#DejaVuSans-77"/>
      <use xlink:href="#DejaVuSans-69" x="81.787109"/>
      <use xlink:href="#DejaVuSans-74" x="109.570312"/>
      <use xlink:href="#DejaVuSans-68" x="148.779297"/>
      <use xlink:href="#DejaVuSans-5f" x="212.158203"/>
      <use xlink:href="#DejaVuSans-63" x="262.158203"/>
      <use xlink:href="#DejaVuSans-61" x="317.138672"/>
      <use xlink:href="#DejaVuSans-63" x="378.417969"/>
      <use xlink:href="#DejaVuSans-68" x="433.398438"/>
      <use xlink:href="#DejaVuSans-65" x="496.777344"/>
     </g>
    </g>
    <g id="patch_12">
     <path d="M 368.174141 159.174219 
L 390.174141 159.174219 
L 390.174141 151.474219 
L 368.174141 151.474219 
z
" style="fill: #abc9ea; stroke: #ffffff; stroke-linejoin: miter"/>
    </g>
    <g id="text_21">
     <!-- False -->
     <g style="fill: #262626" transform="translate(398.974141 159.174219) scale(0.11 -0.11)">
      <defs>
       <path id="DejaVuSans-46" d="M 628 4666 
L 3309 4666 
L 3309 4134 
L 1259 4134 
L 1259 2759 
L 3109 2759 
L 3109 2228 
L 1259 2228 
L 1259 0 
L 628 0 
L 628 4666 
z
" transform="scale(0.015625)"/>
       <path id="DejaVuSans-6c" d="M 603 4863 
L 1178 4863 
L 1178 0 
L 603 0 
L 603 4863 
z
" transform="scale(0.015625)"/>
      </defs>
      <use xlink:href="#DejaVuSans-46"/>
      <use xlink:href="#DejaVuSans-61" x="48.394531"/>
      <use xlink:href="#DejaVuSans-6c" x="109.673828"/>
      <use xlink:href="#DejaVuSans-73" x="137.457031"/>
      <use xlink:href="#DejaVuSans-65" x="189.556641"/>
     </g>
    </g>
    <g id="patch_13">
     <path d="M 368.174141 175.320156 
L 390.174141 175.320156 
L 390.174141 167.620156 
L 368.174141 167.620156 
z
" style="fill: #efb792; stroke: #ffffff; stroke-linejoin: miter"/>
    </g>
    <g id="text_22">
     <!-- True -->
     <g style="fill: #262626" transform="translate(398.974141 175.320156) scale(0.11 -0.11)">
      <defs>
       <path id="DejaVuSans-75" d="M 544 1381 
L 544 3500 
L 1119 3500 
L 1119 1403 
Q 1119 906 1312 657 
Q 1506 409 1894 409 
Q 2359 409 2629 706 
Q 2900 1003 2900 1516 
L 2900 3500 
L 3475 3500 
L 3475 0 
L 2900 0 
L 2900 538 
Q 2691 219 2414 64 
Q 2138 -91 1772 -91 
Q 1169 -91 856 284 
Q 544 659 544 1381 
z
M 1991 3584 
L 1991 3584 
z
" transform="scale(0.015625)"/>
      </defs>
      <use xlink:href="#DejaVuSans-54"/>
      <use xlink:href="#DejaVuSans-72" x="46.333984"/>
      <use xlink:href="#DejaVuSans-75" x="87.447266"/>
      <use xlink:href="#DejaVuSans-65" x="150.826172"/>
     </g>
    </g>
   </g>
  </g>
 </g>
 <defs>
  <clipPath id="p8d2aecfede">
   <rect x="46.31125" y="22.318125" width="394.47" height="266.34"/>
  </clipPath>
 </defs>
</svg>
