<?xml version="1.0" encoding="utf-8" standalone="no"?>
<!DOCTYPE svg PUBLIC "-//W3C//DTD SVG 1.1//EN"
  "http://www.w3.org/Graphics/SVG/1.1/DTD/svg11.dtd">
<svg xmlns:xlink="http://www.w3.org/1999/xlink" width="448.07125pt" height="331.617812pt" viewBox="0 0 448.07125 331.617812" xmlns="http://www.w3.org/2000/svg" version="1.1">
 <metadata>
  <rdf:RDF xmlns:dc="http://purl.org/dc/elements/1.1/" xmlns:cc="http://creativecommons.org/ns#" xmlns:rdf="http://www.w3.org/1999/02/22-rdf-syntax-ns#">
   <cc:Work>
    <dc:type rdf:resource="http://purl.org/dc/dcmitype/StillImage"/>
    <dc:date>2024-10-22T16:20:15.598902</dc:date>
    <dc:format>image/svg+xml</dc:format>
    <dc:creator>
     <cc:Agent>
      <dc:title>Matplotlib v3.9.2, https://matplotlib.org/</dc:title>
     </cc:Agent>
    </dc:creator>
   </cc:Work>
  </rdf:RDF>
 </metadata>
 <defs>
  <style type="text/css">*{stroke-linejoin: round; stroke-linecap: butt}</style>
 </defs>
 <g id="figure_1">
  <g id="patch_1">
   <path d="M 0 331.617812 
L 448.07125 331.617812 
L 448.07125 0 
L 0 0 
L 0 331.617812 
z
" style="fill: none"/>
  </g>
  <g id="axes_1">
   <g id="patch_2">
    <path d="M 46.31125 288.658125 
L 440.87125 288.658125 
L 440.87125 22.318125 
L 46.31125 22.318125 
L 46.31125 288.658125 
z
" style="fill: none"/>
   </g>
   <g id="matplotlib.axis_1">
    <g id="xtick_1">
     <g id="text_1">
      <!-- 3.11 -->
      <g style="fill: #262626" transform="translate(99.825156 306.516406) scale(0.11 -0.11)">
       <defs>
        <path id="DejaVuSans-33" d="M 2597 2516 
Q 3050 2419 3304 2112 
Q 3559 1806 3559 1356 
Q 3559 666 3084 287 
Q 2609 -91 1734 -91 
Q 1441 -91 1130 -33 
Q 819 25 488 141 
L 488 750 
Q 750 597 1062 519 
Q 1375 441 1716 441 
Q 2309 441 2620 675 
Q 2931 909 2931 1356 
Q 2931 1769 2642 2001 
Q 2353 2234 1838 2234 
L 1294 2234 
L 1294 2753 
L 1863 2753 
Q 2328 2753 2575 2939 
Q 2822 3125 2822 3475 
Q 2822 3834 2567 4026 
Q 2313 4219 1838 4219 
Q 1578 4219 1281 4162 
Q 984 4106 628 3988 
L 628 4550 
Q 988 4650 1302 4700 
Q 1616 4750 1894 4750 
Q 2613 4750 3031 4423 
Q 3450 4097 3450 3541 
Q 3450 3153 3228 2886 
Q 3006 2619 2597 2516 
z
" transform="scale(0.015625)"/>
        <path id="DejaVuSans-2e" d="M 684 794 
L 1344 794 
L 1344 0 
L 684 0 
L 684 794 
z
" transform="scale(0.015625)"/>
        <path id="DejaVuSans-31" d="M 794 531 
L 1825 531 
L 1825 4091 
L 703 3866 
L 703 4441 
L 1819 4666 
L 2450 4666 
L 2450 531 
L 3481 531 
L 3481 0 
L 794 0 
L 794 531 
z
" transform="scale(0.015625)"/>
       </defs>
       <use xlink:href="#DejaVuSans-33"/>
       <use xlink:href="#DejaVuSans-2e" x="63.623047"/>
       <use xlink:href="#DejaVuSans-31" x="95.410156"/>
       <use xlink:href="#DejaVuSans-31" x="159.033203"/>
      </g>
     </g>
    </g>
    <g id="xtick_2">
     <g id="text_2">
      <!-- 3.12 -->
      <g style="fill: #262626" transform="translate(231.345156 306.516406) scale(0.11 -0.11)">
       <defs>
        <path id="DejaVuSans-32" d="M 1228 531 
L 3431 531 
L 3431 0 
L 469 0 
L 469 531 
Q 828 903 1448 1529 
Q 2069 2156 2228 2338 
Q 2531 2678 2651 2914 
Q 2772 3150 2772 3378 
Q 2772 3750 2511 3984 
Q 2250 4219 1831 4219 
Q 1534 4219 1204 4116 
Q 875 4013 500 3803 
L 500 4441 
Q 881 4594 1212 4672 
Q 1544 4750 1819 4750 
Q 2544 4750 2975 4387 
Q 3406 4025 3406 3419 
Q 3406 3131 3298 2873 
Q 3191 2616 2906 2266 
Q 2828 2175 2409 1742 
Q 1991 1309 1228 531 
z
" transform="scale(0.015625)"/>
       </defs>
       <use xlink:href="#DejaVuSans-33"/>
       <use xlink:href="#DejaVuSans-2e" x="63.623047"/>
       <use xlink:href="#DejaVuSans-31" x="95.410156"/>
       <use xlink:href="#DejaVuSans-32" x="159.033203"/>
      </g>
     </g>
    </g>
    <g id="xtick_3">
     <g id="text_3">
      <!-- 3.13 -->
      <g style="fill: #262626" transform="translate(362.865156 306.516406) scale(0.11 -0.11)">
       <use xlink:href="#DejaVuSans-33"/>
       <use xlink:href="#DejaVuSans-2e" x="63.623047"/>
       <use xlink:href="#DejaVuSans-31" x="95.410156"/>
       <use xlink:href="#DejaVuSans-33" x="159.033203"/>
      </g>
     </g>
    </g>
    <g id="text_4">
     <!-- Python Version -->
     <g style="fill: #262626" transform="translate(198.822812 321.922187) scale(0.12 -0.12)">
      <defs>
       <path id="DejaVuSans-50" d="M 1259 4147 
L 1259 2394 
L 2053 2394 
Q 2494 2394 2734 2622 
Q 2975 2850 2975 3272 
Q 2975 3691 2734 3919 
Q 2494 4147 2053 4147 
L 1259 4147 
z
M 628 4666 
L 2053 4666 
Q 2838 4666 3239 4311 
Q 3641 3956 3641 3272 
Q 3641 2581 3239 2228 
Q 2838 1875 2053 1875 
L 1259 1875 
L 1259 0 
L 628 0 
L 628 4666 
z
" transform="scale(0.015625)"/>
       <path id="DejaVuSans-79" d="M 2059 -325 
Q 1816 -950 1584 -1140 
Q 1353 -1331 966 -1331 
L 506 -1331 
L 506 -850 
L 844 -850 
Q 1081 -850 1212 -737 
Q 1344 -625 1503 -206 
L 1606 56 
L 191 3500 
L 800 3500 
L 1894 763 
L 2988 3500 
L 3597 3500 
L 2059 -325 
z
" transform="scale(0.015625)"/>
       <path id="DejaVuSans-74" d="M 1172 4494 
L 1172 3500 
L 2356 3500 
L 2356 3053 
L 1172 3053 
L 1172 1153 
Q 1172 725 1289 603 
Q 1406 481 1766 481 
L 2356 481 
L 2356 0 
L 1766 0 
Q 1100 0 847 248 
Q 594 497 594 1153 
L 594 3053 
L 172 3053 
L 172 3500 
L 594 3500 
L 594 4494 
L 1172 4494 
z
" transform="scale(0.015625)"/>
       <path id="DejaVuSans-68" d="M 3513 2113 
L 3513 0 
L 2938 0 
L 2938 2094 
Q 2938 2591 2744 2837 
Q 2550 3084 2163 3084 
Q 1697 3084 1428 2787 
Q 1159 2491 1159 1978 
L 1159 0 
L 581 0 
L 581 4863 
L 1159 4863 
L 1159 2956 
Q 1366 3272 1645 3428 
Q 1925 3584 2291 3584 
Q 2894 3584 3203 3211 
Q 3513 2838 3513 2113 
z
" transform="scale(0.015625)"/>
       <path id="DejaVuSans-6f" d="M 1959 3097 
Q 1497 3097 1228 2736 
Q 959 2375 959 1747 
Q 959 1119 1226 758 
Q 1494 397 1959 397 
Q 2419 397 2687 759 
Q 2956 1122 2956 1747 
Q 2956 2369 2687 2733 
Q 2419 3097 1959 3097 
z
M 1959 3584 
Q 2709 3584 3137 3096 
Q 3566 2609 3566 1747 
Q 3566 888 3137 398 
Q 2709 -91 1959 -91 
Q 1206 -91 779 398 
Q 353 888 353 1747 
Q 353 2609 779 3096 
Q 1206 3584 1959 3584 
z
" transform="scale(0.015625)"/>
       <path id="DejaVuSans-6e" d="M 3513 2113 
L 3513 0 
L 2938 0 
L 2938 2094 
Q 2938 2591 2744 2837 
Q 2550 3084 2163 3084 
Q 1697 3084 1428 2787 
Q 1159 2491 1159 1978 
L 1159 0 
L 581 0 
L 581 3500 
L 1159 3500 
L 1159 2956 
Q 1366 3272 1645 3428 
Q 1925 3584 2291 3584 
Q 2894 3584 3203 3211 
Q 3513 2838 3513 2113 
z
" transform="scale(0.015625)"/>
       <path id="DejaVuSans-20" transform="scale(0.015625)"/>
       <path id="DejaVuSans-56" d="M 1831 0 
L 50 4666 
L 709 4666 
L 2188 738 
L 3669 4666 
L 4325 4666 
L 2547 0 
L 1831 0 
z
" transform="scale(0.015625)"/>
       <path id="DejaVuSans-65" d="M 3597 1894 
L 3597 1613 
L 953 1613 
Q 991 1019 1311 708 
Q 1631 397 2203 397 
Q 2534 397 2845 478 
Q 3156 559 3463 722 
L 3463 178 
Q 3153 47 2828 -22 
Q 2503 -91 2169 -91 
Q 1331 -91 842 396 
Q 353 884 353 1716 
Q 353 2575 817 3079 
Q 1281 3584 2069 3584 
Q 2775 3584 3186 3129 
Q 3597 2675 3597 1894 
z
M 3022 2063 
Q 3016 2534 2758 2815 
Q 2500 3097 2075 3097 
Q 1594 3097 1305 2825 
Q 1016 2553 972 2059 
L 3022 2063 
z
" transform="scale(0.015625)"/>
       <path id="DejaVuSans-72" d="M 2631 2963 
Q 2534 3019 2420 3045 
Q 2306 3072 2169 3072 
Q 1681 3072 1420 2755 
Q 1159 2438 1159 1844 
L 1159 0 
L 581 0 
L 581 3500 
L 1159 3500 
L 1159 2956 
Q 1341 3275 1631 3429 
Q 1922 3584 2338 3584 
Q 2397 3584 2469 3576 
Q 2541 3569 2628 3553 
L 2631 2963 
z
" transform="scale(0.015625)"/>
       <path id="DejaVuSans-73" d="M 2834 3397 
L 2834 2853 
Q 2591 2978 2328 3040 
Q 2066 3103 1784 3103 
Q 1356 3103 1142 2972 
Q 928 2841 928 2578 
Q 928 2378 1081 2264 
Q 1234 2150 1697 2047 
L 1894 2003 
Q 2506 1872 2764 1633 
Q 3022 1394 3022 966 
Q 3022 478 2636 193 
Q 2250 -91 1575 -91 
Q 1294 -91 989 -36 
Q 684 19 347 128 
L 347 722 
Q 666 556 975 473 
Q 1284 391 1588 391 
Q 1994 391 2212 530 
Q 2431 669 2431 922 
Q 2431 1156 2273 1281 
Q 2116 1406 1581 1522 
L 1381 1569 
Q 847 1681 609 1914 
Q 372 2147 372 2553 
Q 372 3047 722 3315 
Q 1072 3584 1716 3584 
Q 2034 3584 2315 3537 
Q 2597 3491 2834 3397 
z
" transform="scale(0.015625)"/>
       <path id="DejaVuSans-69" d="M 603 3500 
L 1178 3500 
L 1178 0 
L 603 0 
L 603 3500 
z
M 603 4863 
L 1178 4863 
L 1178 4134 
L 603 4134 
L 603 4863 
z
" transform="scale(0.015625)"/>
      </defs>
      <use xlink:href="#DejaVuSans-50"/>
      <use xlink:href="#DejaVuSans-79" x="60.302734"/>
      <use xlink:href="#DejaVuSans-74" x="119.482422"/>
      <use xlink:href="#DejaVuSans-68" x="158.691406"/>
      <use xlink:href="#DejaVuSans-6f" x="222.070312"/>
      <use xlink:href="#DejaVuSans-6e" x="283.251953"/>
      <use xlink:href="#DejaVuSans-20" x="346.630859"/>
      <use xlink:href="#DejaVuSans-56" x="378.417969"/>
      <use xlink:href="#DejaVuSans-65" x="439.076172"/>
      <use xlink:href="#DejaVuSans-72" x="500.599609"/>
      <use xlink:href="#DejaVuSans-73" x="541.712891"/>
      <use xlink:href="#DejaVuSans-69" x="593.8125"/>
      <use xlink:href="#DejaVuSans-6f" x="621.595703"/>
      <use xlink:href="#DejaVuSans-6e" x="682.777344"/>
     </g>
    </g>
   </g>
   <g id="matplotlib.axis_2">
    <g id="ytick_1">
     <g id="text_5">
      <!-- 0 -->
      <g style="fill: #262626" transform="translate(29.8125 292.837266) scale(0.11 -0.11)">
       <defs>
        <path id="DejaVuSans-30" d="M 2034 4250 
Q 1547 4250 1301 3770 
Q 1056 3291 1056 2328 
Q 1056 1369 1301 889 
Q 1547 409 2034 409 
Q 2525 409 2770 889 
Q 3016 1369 3016 2328 
Q 3016 3291 2770 3770 
Q 2525 4250 2034 4250 
z
M 2034 4750 
Q 2819 4750 3233 4129 
Q 3647 3509 3647 2328 
Q 3647 1150 3233 529 
Q 2819 -91 2034 -91 
Q 1250 -91 836 529 
Q 422 1150 422 2328 
Q 422 3509 836 4129 
Q 1250 4750 2034 4750 
z
" transform="scale(0.015625)"/>
       </defs>
       <use xlink:href="#DejaVuSans-30"/>
      </g>
     </g>
    </g>
    <g id="ytick_2">
     <g id="text_6">
      <!-- 2 -->
      <g style="fill: #262626" transform="translate(29.8125 258.732984) scale(0.11 -0.11)">
       <use xlink:href="#DejaVuSans-32"/>
      </g>
     </g>
    </g>
    <g id="ytick_3">
     <g id="text_7">
      <!-- 4 -->
      <g style="fill: #262626" transform="translate(29.8125 224.628703) scale(0.11 -0.11)">
       <defs>
        <path id="DejaVuSans-34" d="M 2419 4116 
L 825 1625 
L 2419 1625 
L 2419 4116 
z
M 2253 4666 
L 3047 4666 
L 3047 1625 
L 3713 1625 
L 3713 1100 
L 3047 1100 
L 3047 0 
L 2419 0 
L 2419 1100 
L 313 1100 
L 313 1709 
L 2253 4666 
z
" transform="scale(0.015625)"/>
       </defs>
       <use xlink:href="#DejaVuSans-34"/>
      </g>
     </g>
    </g>
    <g id="ytick_4">
     <g id="text_8">
      <!-- 6 -->
      <g style="fill: #262626" transform="translate(29.8125 190.524422) scale(0.11 -0.11)">
       <defs>
        <path id="DejaVuSans-36" d="M 2113 2584 
Q 1688 2584 1439 2293 
Q 1191 2003 1191 1497 
Q 1191 994 1439 701 
Q 1688 409 2113 409 
Q 2538 409 2786 701 
Q 3034 994 3034 1497 
Q 3034 2003 2786 2293 
Q 2538 2584 2113 2584 
z
M 3366 4563 
L 3366 3988 
Q 3128 4100 2886 4159 
Q 2644 4219 2406 4219 
Q 1781 4219 1451 3797 
Q 1122 3375 1075 2522 
Q 1259 2794 1537 2939 
Q 1816 3084 2150 3084 
Q 2853 3084 3261 2657 
Q 3669 2231 3669 1497 
Q 3669 778 3244 343 
Q 2819 -91 2113 -91 
Q 1303 -91 875 529 
Q 447 1150 447 2328 
Q 447 3434 972 4092 
Q 1497 4750 2381 4750 
Q 2619 4750 2861 4703 
Q 3103 4656 3366 4563 
z
" transform="scale(0.015625)"/>
       </defs>
       <use xlink:href="#DejaVuSans-36"/>
      </g>
     </g>
    </g>
    <g id="ytick_5">
     <g id="text_9">
      <!-- 8 -->
      <g style="fill: #262626" transform="translate(29.8125 156.420141) scale(0.11 -0.11)">
       <defs>
        <path id="DejaVuSans-38" d="M 2034 2216 
Q 1584 2216 1326 1975 
Q 1069 1734 1069 1313 
Q 1069 891 1326 650 
Q 1584 409 2034 409 
Q 2484 409 2743 651 
Q 3003 894 3003 1313 
Q 3003 1734 2745 1975 
Q 2488 2216 2034 2216 
z
M 1403 2484 
Q 997 2584 770 2862 
Q 544 3141 544 3541 
Q 544 4100 942 4425 
Q 1341 4750 2034 4750 
Q 2731 4750 3128 4425 
Q 3525 4100 3525 3541 
Q 3525 3141 3298 2862 
Q 3072 2584 2669 2484 
Q 3125 2378 3379 2068 
Q 3634 1759 3634 1313 
Q 3634 634 3220 271 
Q 2806 -91 2034 -91 
Q 1263 -91 848 271 
Q 434 634 434 1313 
Q 434 1759 690 2068 
Q 947 2378 1403 2484 
z
M 1172 3481 
Q 1172 3119 1398 2916 
Q 1625 2713 2034 2713 
Q 2441 2713 2670 2916 
Q 2900 3119 2900 3481 
Q 2900 3844 2670 4047 
Q 2441 4250 2034 4250 
Q 1625 4250 1398 4047 
Q 1172 3844 1172 3481 
z
" transform="scale(0.015625)"/>
       </defs>
       <use xlink:href="#DejaVuSans-38"/>
      </g>
     </g>
    </g>
    <g id="ytick_6">
     <g id="text_10">
      <!-- 10 -->
      <g style="fill: #262626" transform="translate(22.81375 122.31586) scale(0.11 -0.11)">
       <use xlink:href="#DejaVuSans-31"/>
       <use xlink:href="#DejaVuSans-30" x="63.623047"/>
      </g>
     </g>
    </g>
    <g id="ytick_7">
     <g id="text_11">
      <!-- 12 -->
      <g style="fill: #262626" transform="translate(22.81375 88.211578) scale(0.11 -0.11)">
       <use xlink:href="#DejaVuSans-31"/>
       <use xlink:href="#DejaVuSans-32" x="63.623047"/>
      </g>
     </g>
    </g>
    <g id="ytick_8">
     <g id="text_12">
      <!-- 14 -->
      <g style="fill: #262626" transform="translate(22.81375 54.107297) scale(0.11 -0.11)">
       <use xlink:href="#DejaVuSans-31"/>
       <use xlink:href="#DejaVuSans-34" x="63.623047"/>
      </g>
     </g>
    </g>
    <g id="text_13">
     <!-- Time (s) -->
     <g style="fill: #262626" transform="translate(16.318125 179.882812) rotate(-90) scale(0.12 -0.12)">
      <defs>
       <path id="DejaVuSans-54" d="M -19 4666 
L 3928 4666 
L 3928 4134 
L 2272 4134 
L 2272 0 
L 1638 0 
L 1638 4134 
L -19 4134 
L -19 4666 
z
" transform="scale(0.015625)"/>
       <path id="DejaVuSans-6d" d="M 3328 2828 
Q 3544 3216 3844 3400 
Q 4144 3584 4550 3584 
Q 5097 3584 5394 3201 
Q 5691 2819 5691 2113 
L 5691 0 
L 5113 0 
L 5113 2094 
Q 5113 2597 4934 2840 
Q 4756 3084 4391 3084 
Q 3944 3084 3684 2787 
Q 3425 2491 3425 1978 
L 3425 0 
L 2847 0 
L 2847 2094 
Q 2847 2600 2669 2842 
Q 2491 3084 2119 3084 
Q 1678 3084 1418 2786 
Q 1159 2488 1159 1978 
L 1159 0 
L 581 0 
L 581 3500 
L 1159 3500 
L 1159 2956 
Q 1356 3278 1631 3431 
Q 1906 3584 2284 3584 
Q 2666 3584 2933 3390 
Q 3200 3197 3328 2828 
z
" transform="scale(0.015625)"/>
       <path id="DejaVuSans-28" d="M 1984 4856 
Q 1566 4138 1362 3434 
Q 1159 2731 1159 2009 
Q 1159 1288 1364 580 
Q 1569 -128 1984 -844 
L 1484 -844 
Q 1016 -109 783 600 
Q 550 1309 550 2009 
Q 550 2706 781 3412 
Q 1013 4119 1484 4856 
L 1984 4856 
z
" transform="scale(0.015625)"/>
       <path id="DejaVuSans-29" d="M 513 4856 
L 1013 4856 
Q 1481 4119 1714 3412 
Q 1947 2706 1947 2009 
Q 1947 1309 1714 600 
Q 1481 -109 1013 -844 
L 513 -844 
Q 928 -128 1133 580 
Q 1338 1288 1338 2009 
Q 1338 2731 1133 3434 
Q 928 4138 513 4856 
z
" transform="scale(0.015625)"/>
      </defs>
      <use xlink:href="#DejaVuSans-54"/>
      <use xlink:href="#DejaVuSans-69" x="57.958984"/>
      <use xlink:href="#DejaVuSans-6d" x="85.742188"/>
      <use xlink:href="#DejaVuSans-65" x="183.154297"/>
      <use xlink:href="#DejaVuSans-20" x="244.677734"/>
      <use xlink:href="#DejaVuSans-28" x="276.464844"/>
      <use xlink:href="#DejaVuSans-73" x="315.478516"/>
      <use xlink:href="#DejaVuSans-29" x="367.578125"/>
     </g>
    </g>
   </g>
   <g id="patch_3">
    <path d="M 59.46325 288.658125 
L 112.07125 288.658125 
L 112.07125 134.957928 
L 59.46325 134.957928 
z
" clip-path="url(#p28b9046840)" style="fill: #abc9ea; stroke: #ffffff; stroke-linejoin: miter"/>
   </g>
   <g id="patch_4">
    <path d="M 190.98325 288.658125 
L 243.59125 288.658125 
L 243.59125 127.660427 
L 190.98325 127.660427 
z
" clip-path="url(#p28b9046840)" style="fill: #abc9ea; stroke: #ffffff; stroke-linejoin: miter"/>
   </g>
   <g id="patch_5">
    <path d="M 322.50325 288.658125 
L 375.11125 288.658125 
L 375.11125 121.612801 
L 322.50325 121.612801 
z
" clip-path="url(#p28b9046840)" style="fill: #abc9ea; stroke: #ffffff; stroke-linejoin: miter"/>
   </g>
   <g id="patch_6">
    <path d="M 112.07125 288.658125 
L 164.67925 288.658125 
L 164.67925 171.67227 
L 112.07125 171.67227 
z
" clip-path="url(#p28b9046840)" style="fill: #efb792; stroke: #ffffff; stroke-linejoin: miter"/>
   </g>
   <g id="patch_7">
    <path d="M 243.59125 288.658125 
L 296.19925 288.658125 
L 296.19925 163.151077 
L 243.59125 163.151077 
z
" clip-path="url(#p28b9046840)" style="fill: #efb792; stroke: #ffffff; stroke-linejoin: miter"/>
   </g>
   <g id="patch_8">
    <path d="M 375.11125 288.658125 
L 427.71925 288.658125 
L 427.71925 166.119327 
L 375.11125 166.119327 
z
" clip-path="url(#p28b9046840)" style="fill: #efb792; stroke: #ffffff; stroke-linejoin: miter"/>
   </g>
   <g id="patch_9">
    <path d="M 112.07125 288.658125 
L 112.07125 288.658125 
L 112.07125 288.658125 
L 112.07125 288.658125 
z
" clip-path="url(#p28b9046840)" style="fill: #abc9ea; stroke: #ffffff; stroke-linejoin: miter"/>
   </g>
   <g id="patch_10">
    <path d="M 112.07125 288.658125 
L 112.07125 288.658125 
L 112.07125 288.658125 
L 112.07125 288.658125 
z
" clip-path="url(#p28b9046840)" style="fill: #efb792; stroke: #ffffff; stroke-linejoin: miter"/>
   </g>
   <g id="line2d_1">
    <path d="M 85.76725 170.208449 
L 85.76725 65.287872 
" clip-path="url(#p28b9046840)" style="fill: none; stroke: #424242; stroke-width: 2.25; stroke-linecap: round"/>
   </g>
   <g id="line2d_2">
    <path d="M 217.28725 162.708233 
L 217.28725 58.099868 
" clip-path="url(#p28b9046840)" style="fill: none; stroke: #424242; stroke-width: 2.25; stroke-linecap: round"/>
   </g>
   <g id="line2d_3">
    <path d="M 348.80725 165.29798 
L 348.80725 35.000982 
" clip-path="url(#p28b9046840)" style="fill: none; stroke: #424242; stroke-width: 2.25; stroke-linecap: round"/>
   </g>
   <g id="line2d_4">
    <path d="M 138.37525 172.087662 
L 138.37525 171.251328 
" clip-path="url(#p28b9046840)" style="fill: none; stroke: #424242; stroke-width: 2.25; stroke-linecap: round"/>
   </g>
   <g id="line2d_5">
    <path d="M 269.89525 163.925297 
L 269.89525 162.380531 
" clip-path="url(#p28b9046840)" style="fill: none; stroke: #424242; stroke-width: 2.25; stroke-linecap: round"/>
   </g>
   <g id="line2d_6">
    <path d="M 401.41525 166.688298 
L 401.41525 165.577007 
" clip-path="url(#p28b9046840)" style="fill: none; stroke: #424242; stroke-width: 2.25; stroke-linecap: round"/>
   </g>
   <g id="text_14">
    <path d="M 72.166 131.269178 
L 72.166 129.651053 
Q 72.704125 129.904178 73.195375 130.029803 
Q 73.6885 130.155428 74.1685 130.155428 
Q 75.17725 130.155428 75.73975 129.596678 
Q 76.30225 129.036053 76.401625 127.935428 
Q 76.004125 128.227928 75.55225 128.374178 
Q 75.100375 128.520428 74.5735 128.520428 
Q 73.231 128.520428 72.407875 127.738553 
Q 71.58475 126.956678 71.58475 125.679803 
Q 71.58475 124.266053 72.501625 123.416678 
Q 73.4185 122.567303 74.95975 122.567303 
Q 76.671625 122.567303 77.609125 123.722303 
Q 78.546625 124.875428 78.546625 126.984803 
Q 78.546625 129.154178 77.44975 130.393553 
Q 76.35475 131.632928 74.444125 131.632928 
Q 73.829125 131.632928 73.266625 131.541053 
Q 72.704125 131.451053 72.166 131.269178 
z
M 74.9485 127.056053 
Q 75.541 127.056053 75.839125 126.673553 
Q 76.13725 126.289178 76.13725 125.520428 
Q 76.13725 124.759178 75.839125 124.372928 
Q 75.541 123.984803 74.9485 123.984803 
Q 74.356 123.984803 74.057875 124.372928 
Q 73.75975 124.759178 73.75975 125.520428 
Q 73.75975 126.289178 74.057875 126.673553 
Q 74.356 127.056053 74.9485 127.056053 
z
M 80.538109 129.195428 
L 82.647484 129.195428 
L 82.647484 131.462303 
L 80.538109 131.462303 
L 80.538109 129.195428 
z
M 89.392328 127.078553 
Q 89.392328 125.437928 89.084828 124.768553 
Q 88.777328 124.097303 88.049828 124.097303 
Q 87.324203 124.097303 87.012953 124.768553 
Q 86.701703 125.437928 86.701703 127.078553 
Q 86.701703 128.737928 87.012953 129.418553 
Q 87.324203 130.097303 88.049828 130.097303 
Q 88.771703 130.097303 89.081078 129.418553 
Q 89.392328 128.737928 89.392328 127.078553 
z
M 91.647953 127.097303 
Q 91.647953 129.270428 90.710453 130.451678 
Q 89.772953 131.632928 88.049828 131.632928 
Q 86.321078 131.632928 85.383578 130.451678 
Q 84.446078 129.270428 84.446078 127.097303 
Q 84.446078 124.916678 85.383578 123.737303 
Q 86.321078 122.556053 88.049828 122.556053 
Q 89.772953 122.556053 90.710453 123.737303 
Q 91.647953 124.916678 91.647953 127.097303 
z
M 93.628187 129.904178 
L 95.621312 129.904178 
L 95.621312 124.249178 
L 93.575687 124.671053 
L 93.575687 123.135428 
L 95.608187 122.713553 
L 97.753187 122.713553 
L 97.753187 129.904178 
L 99.746312 129.904178 
L 99.746312 131.462303 
L 93.628187 131.462303 
L 93.628187 129.904178 
z
" style="fill: #abc9ea; stroke: #ffffff; stroke-width: 3"/>
    <path d="M 72.166 131.269178 
L 72.166 129.651053 
Q 72.704125 129.904178 73.195375 130.029803 
Q 73.6885 130.155428 74.1685 130.155428 
Q 75.17725 130.155428 75.73975 129.596678 
Q 76.30225 129.036053 76.401625 127.935428 
Q 76.004125 128.227928 75.55225 128.374178 
Q 75.100375 128.520428 74.5735 128.520428 
Q 73.231 128.520428 72.407875 127.738553 
Q 71.58475 126.956678 71.58475 125.679803 
Q 71.58475 124.266053 72.501625 123.416678 
Q 73.4185 122.567303 74.95975 122.567303 
Q 76.671625 122.567303 77.609125 123.722303 
Q 78.546625 124.875428 78.546625 126.984803 
Q 78.546625 129.154178 77.44975 130.393553 
Q 76.35475 131.632928 74.444125 131.632928 
Q 73.829125 131.632928 73.266625 131.541053 
Q 72.704125 131.451053 72.166 131.269178 
z
M 74.9485 127.056053 
Q 75.541 127.056053 75.839125 126.673553 
Q 76.13725 126.289178 76.13725 125.520428 
Q 76.13725 124.759178 75.839125 124.372928 
Q 75.541 123.984803 74.9485 123.984803 
Q 74.356 123.984803 74.057875 124.372928 
Q 73.75975 124.759178 73.75975 125.520428 
Q 73.75975 126.289178 74.057875 126.673553 
Q 74.356 127.056053 74.9485 127.056053 
z
M 80.538109 129.195428 
L 82.647484 129.195428 
L 82.647484 131.462303 
L 80.538109 131.462303 
L 80.538109 129.195428 
z
M 89.392328 127.078553 
Q 89.392328 125.437928 89.084828 124.768553 
Q 88.777328 124.097303 88.049828 124.097303 
Q 87.324203 124.097303 87.012953 124.768553 
Q 86.701703 125.437928 86.701703 127.078553 
Q 86.701703 128.737928 87.012953 129.418553 
Q 87.324203 130.097303 88.049828 130.097303 
Q 88.771703 130.097303 89.081078 129.418553 
Q 89.392328 128.737928 89.392328 127.078553 
z
M 91.647953 127.097303 
Q 91.647953 129.270428 90.710453 130.451678 
Q 89.772953 131.632928 88.049828 131.632928 
Q 86.321078 131.632928 85.383578 130.451678 
Q 84.446078 129.270428 84.446078 127.097303 
Q 84.446078 124.916678 85.383578 123.737303 
Q 86.321078 122.556053 88.049828 122.556053 
Q 89.772953 122.556053 90.710453 123.737303 
Q 91.647953 124.916678 91.647953 127.097303 
z
M 93.628187 129.904178 
L 95.621312 129.904178 
L 95.621312 124.249178 
L 93.575687 124.671053 
L 93.575687 123.135428 
L 95.608187 122.713553 
L 97.753187 122.713553 
L 97.753187 129.904178 
L 99.746312 129.904178 
L 99.746312 131.462303 
L 93.628187 131.462303 
L 93.628187 129.904178 
z
" style="fill: #abc9ea"/>
   </g>
   <g id="text_15">
    <path d="M 203.686 123.971677 
L 203.686 122.353552 
Q 204.224125 122.606677 204.715375 122.732302 
Q 205.2085 122.857927 205.6885 122.857927 
Q 206.69725 122.857927 207.25975 122.299177 
Q 207.82225 121.738552 207.921625 120.637927 
Q 207.524125 120.930427 207.07225 121.076677 
Q 206.620375 121.222927 206.0935 121.222927 
Q 204.751 121.222927 203.927875 120.441052 
Q 203.10475 119.659177 203.10475 118.382302 
Q 203.10475 116.968552 204.021625 116.119177 
Q 204.9385 115.269802 206.47975 115.269802 
Q 208.191625 115.269802 209.129125 116.424802 
Q 210.066625 117.577927 210.066625 119.687302 
Q 210.066625 121.856677 208.96975 123.096052 
Q 207.87475 124.335427 205.964125 124.335427 
Q 205.349125 124.335427 204.786625 124.243552 
Q 204.224125 124.153552 203.686 123.971677 
z
M 206.4685 119.758552 
Q 207.061 119.758552 207.359125 119.376052 
Q 207.65725 118.991677 207.65725 118.222927 
Q 207.65725 117.461677 207.359125 117.075427 
Q 207.061 116.687302 206.4685 116.687302 
Q 205.876 116.687302 205.577875 117.075427 
Q 205.27975 117.461677 205.27975 118.222927 
Q 205.27975 118.991677 205.577875 119.376052 
Q 205.876 119.758552 206.4685 119.758552 
z
M 212.058109 121.897927 
L 214.167484 121.897927 
L 214.167484 124.164802 
L 212.058109 124.164802 
L 212.058109 121.897927 
z
M 219.809828 117.274177 
L 217.338578 120.936052 
L 219.809828 120.936052 
L 219.809828 117.274177 
z
M 219.434828 115.416052 
L 221.943578 115.416052 
L 221.943578 120.936052 
L 223.190453 120.936052 
L 223.190453 122.571052 
L 221.943578 122.571052 
L 221.943578 124.164802 
L 219.809828 124.164802 
L 219.809828 122.571052 
L 215.932328 122.571052 
L 215.932328 120.637927 
L 219.434828 115.416052 
z
M 228.159437 117.274177 
L 225.688187 120.936052 
L 228.159437 120.936052 
L 228.159437 117.274177 
z
M 227.784437 115.416052 
L 230.293187 115.416052 
L 230.293187 120.936052 
L 231.540062 120.936052 
L 231.540062 122.571052 
L 230.293187 122.571052 
L 230.293187 124.164802 
L 228.159437 124.164802 
L 228.159437 122.571052 
L 224.281937 122.571052 
L 224.281937 120.637927 
L 227.784437 115.416052 
z
" style="fill: #abc9ea; stroke: #ffffff; stroke-width: 3"/>
    <path d="M 203.686 123.971677 
L 203.686 122.353552 
Q 204.224125 122.606677 204.715375 122.732302 
Q 205.2085 122.857927 205.6885 122.857927 
Q 206.69725 122.857927 207.25975 122.299177 
Q 207.82225 121.738552 207.921625 120.637927 
Q 207.524125 120.930427 207.07225 121.076677 
Q 206.620375 121.222927 206.0935 121.222927 
Q 204.751 121.222927 203.927875 120.441052 
Q 203.10475 119.659177 203.10475 118.382302 
Q 203.10475 116.968552 204.021625 116.119177 
Q 204.9385 115.269802 206.47975 115.269802 
Q 208.191625 115.269802 209.129125 116.424802 
Q 210.066625 117.577927 210.066625 119.687302 
Q 210.066625 121.856677 208.96975 123.096052 
Q 207.87475 124.335427 205.964125 124.335427 
Q 205.349125 124.335427 204.786625 124.243552 
Q 204.224125 124.153552 203.686 123.971677 
z
M 206.4685 119.758552 
Q 207.061 119.758552 207.359125 119.376052 
Q 207.65725 118.991677 207.65725 118.222927 
Q 207.65725 117.461677 207.359125 117.075427 
Q 207.061 116.687302 206.4685 116.687302 
Q 205.876 116.687302 205.577875 117.075427 
Q 205.27975 117.461677 205.27975 118.222927 
Q 205.27975 118.991677 205.577875 119.376052 
Q 205.876 119.758552 206.4685 119.758552 
z
M 212.058109 121.897927 
L 214.167484 121.897927 
L 214.167484 124.164802 
L 212.058109 124.164802 
L 212.058109 121.897927 
z
M 219.809828 117.274177 
L 217.338578 120.936052 
L 219.809828 120.936052 
L 219.809828 117.274177 
z
M 219.434828 115.416052 
L 221.943578 115.416052 
L 221.943578 120.936052 
L 223.190453 120.936052 
L 223.190453 122.571052 
L 221.943578 122.571052 
L 221.943578 124.164802 
L 219.809828 124.164802 
L 219.809828 122.571052 
L 215.932328 122.571052 
L 215.932328 120.637927 
L 219.434828 115.416052 
z
M 228.159437 117.274177 
L 225.688187 120.936052 
L 228.159437 120.936052 
L 228.159437 117.274177 
z
M 227.784437 115.416052 
L 230.293187 115.416052 
L 230.293187 120.936052 
L 231.540062 120.936052 
L 231.540062 122.571052 
L 230.293187 122.571052 
L 230.293187 124.164802 
L 228.159437 124.164802 
L 228.159437 122.571052 
L 224.281937 122.571052 
L 224.281937 120.637927 
L 227.784437 115.416052 
z
" style="fill: #abc9ea"/>
   </g>
   <g id="text_16">
    <path d="M 335.206 117.924051 
L 335.206 116.305926 
Q 335.744125 116.559051 336.235375 116.684676 
Q 336.7285 116.810301 337.2085 116.810301 
Q 338.21725 116.810301 338.77975 116.251551 
Q 339.34225 115.690926 339.441625 114.590301 
Q 339.044125 114.882801 338.59225 115.029051 
Q 338.140375 115.175301 337.6135 115.175301 
Q 336.271 115.175301 335.447875 114.393426 
Q 334.62475 113.611551 334.62475 112.334676 
Q 334.62475 110.920926 335.541625 110.071551 
Q 336.4585 109.222176 337.99975 109.222176 
Q 339.711625 109.222176 340.649125 110.377176 
Q 341.586625 111.530301 341.586625 113.639676 
Q 341.586625 115.809051 340.48975 117.048426 
Q 339.39475 118.287801 337.484125 118.287801 
Q 336.869125 118.287801 336.306625 118.195926 
Q 335.744125 118.105926 335.206 117.924051 
z
M 337.9885 113.710926 
Q 338.581 113.710926 338.879125 113.328426 
Q 339.17725 112.944051 339.17725 112.175301 
Q 339.17725 111.414051 338.879125 111.027801 
Q 338.581 110.639676 337.9885 110.639676 
Q 337.396 110.639676 337.097875 111.027801 
Q 336.79975 111.414051 336.79975 112.175301 
Q 336.79975 112.944051 337.097875 113.328426 
Q 337.396 113.710926 337.9885 113.710926 
z
M 343.578109 115.850301 
L 345.687484 115.850301 
L 345.687484 118.117176 
L 343.578109 118.117176 
L 343.578109 115.850301 
z
M 351.089828 114.202176 
Q 350.457953 114.202176 350.116703 114.549051 
Q 349.777328 114.894051 349.777328 115.539051 
Q 349.777328 116.184051 350.116703 116.527176 
Q 350.457953 116.868426 351.089828 116.868426 
Q 351.717953 116.868426 352.051703 116.527176 
Q 352.385453 116.184051 352.385453 115.539051 
Q 352.385453 114.888426 352.051703 114.545301 
Q 351.717953 114.202176 351.089828 114.202176 
z
M 349.443578 113.459676 
Q 348.646703 113.217801 348.241703 112.720926 
Q 347.838578 112.222176 347.838578 111.477801 
Q 347.838578 110.371551 348.663578 109.792176 
Q 349.490453 109.210926 351.089828 109.210926 
Q 352.677953 109.210926 353.502953 109.788426 
Q 354.329828 110.365926 354.329828 111.477801 
Q 354.329828 112.222176 353.922953 112.720926 
Q 353.516078 113.217801 352.719203 113.459676 
Q 353.609828 113.705301 354.063578 114.258426 
Q 354.517328 114.811551 354.517328 115.655301 
Q 354.517328 116.956551 353.652953 117.622176 
Q 352.788578 118.287801 351.089828 118.287801 
Q 349.385453 118.287801 348.515453 117.622176 
Q 347.645453 116.956551 347.645453 115.655301 
Q 347.645453 114.811551 348.099203 114.258426 
Q 348.552953 113.705301 349.443578 113.459676 
z
M 349.970453 111.706551 
Q 349.970453 112.227801 350.261078 112.509051 
Q 350.551703 112.790301 351.089828 112.790301 
Q 351.616703 112.790301 351.903578 112.509051 
Q 352.192328 112.227801 352.192328 111.706551 
Q 352.192328 111.185301 351.903578 110.907801 
Q 351.616703 110.628426 351.089828 110.628426 
Q 350.551703 110.628426 350.261078 110.909676 
Q 349.970453 111.190926 349.970453 111.706551 
z
M 360.781937 113.733426 
Q 360.781937 112.092801 360.474437 111.423426 
Q 360.166937 110.752176 359.439437 110.752176 
Q 358.713812 110.752176 358.402562 111.423426 
Q 358.091312 112.092801 358.091312 113.733426 
Q 358.091312 115.392801 358.402562 116.073426 
Q 358.713812 116.752176 359.439437 116.752176 
Q 360.161312 116.752176 360.470687 116.073426 
Q 360.781937 115.392801 360.781937 113.733426 
z
M 363.037562 113.752176 
Q 363.037562 115.925301 362.100062 117.106551 
Q 361.162562 118.287801 359.439437 118.287801 
Q 357.710687 118.287801 356.773187 117.106551 
Q 355.835687 115.925301 355.835687 113.752176 
Q 355.835687 111.571551 356.773187 110.392176 
Q 357.710687 109.210926 359.439437 109.210926 
Q 361.162562 109.210926 362.100062 110.392176 
Q 363.037562 111.571551 363.037562 113.752176 
z
" style="fill: #abc9ea; stroke: #ffffff; stroke-width: 3"/>
    <path d="M 335.206 117.924051 
L 335.206 116.305926 
Q 335.744125 116.559051 336.235375 116.684676 
Q 336.7285 116.810301 337.2085 116.810301 
Q 338.21725 116.810301 338.77975 116.251551 
Q 339.34225 115.690926 339.441625 114.590301 
Q 339.044125 114.882801 338.59225 115.029051 
Q 338.140375 115.175301 337.6135 115.175301 
Q 336.271 115.175301 335.447875 114.393426 
Q 334.62475 113.611551 334.62475 112.334676 
Q 334.62475 110.920926 335.541625 110.071551 
Q 336.4585 109.222176 337.99975 109.222176 
Q 339.711625 109.222176 340.649125 110.377176 
Q 341.586625 111.530301 341.586625 113.639676 
Q 341.586625 115.809051 340.48975 117.048426 
Q 339.39475 118.287801 337.484125 118.287801 
Q 336.869125 118.287801 336.306625 118.195926 
Q 335.744125 118.105926 335.206 117.924051 
z
M 337.9885 113.710926 
Q 338.581 113.710926 338.879125 113.328426 
Q 339.17725 112.944051 339.17725 112.175301 
Q 339.17725 111.414051 338.879125 111.027801 
Q 338.581 110.639676 337.9885 110.639676 
Q 337.396 110.639676 337.097875 111.027801 
Q 336.79975 111.414051 336.79975 112.175301 
Q 336.79975 112.944051 337.097875 113.328426 
Q 337.396 113.710926 337.9885 113.710926 
z
M 343.578109 115.850301 
L 345.687484 115.850301 
L 345.687484 118.117176 
L 343.578109 118.117176 
L 343.578109 115.850301 
z
M 351.089828 114.202176 
Q 350.457953 114.202176 350.116703 114.549051 
Q 349.777328 114.894051 349.777328 115.539051 
Q 349.777328 116.184051 350.116703 116.527176 
Q 350.457953 116.868426 351.089828 116.868426 
Q 351.717953 116.868426 352.051703 116.527176 
Q 352.385453 116.184051 352.385453 115.539051 
Q 352.385453 114.888426 352.051703 114.545301 
Q 351.717953 114.202176 351.089828 114.202176 
z
M 349.443578 113.459676 
Q 348.646703 113.217801 348.241703 112.720926 
Q 347.838578 112.222176 347.838578 111.477801 
Q 347.838578 110.371551 348.663578 109.792176 
Q 349.490453 109.210926 351.089828 109.210926 
Q 352.677953 109.210926 353.502953 109.788426 
Q 354.329828 110.365926 354.329828 111.477801 
Q 354.329828 112.222176 353.922953 112.720926 
Q 353.516078 113.217801 352.719203 113.459676 
Q 353.609828 113.705301 354.063578 114.258426 
Q 354.517328 114.811551 354.517328 115.655301 
Q 354.517328 116.956551 353.652953 117.622176 
Q 352.788578 118.287801 351.089828 118.287801 
Q 349.385453 118.287801 348.515453 117.622176 
Q 347.645453 116.956551 347.645453 115.655301 
Q 347.645453 114.811551 348.099203 114.258426 
Q 348.552953 113.705301 349.443578 113.459676 
z
M 349.970453 111.706551 
Q 349.970453 112.227801 350.261078 112.509051 
Q 350.551703 112.790301 351.089828 112.790301 
Q 351.616703 112.790301 351.903578 112.509051 
Q 352.192328 112.227801 352.192328 111.706551 
Q 352.192328 111.185301 351.903578 110.907801 
Q 351.616703 110.628426 351.089828 110.628426 
Q 350.551703 110.628426 350.261078 110.909676 
Q 349.970453 111.190926 349.970453 111.706551 
z
M 360.781937 113.733426 
Q 360.781937 112.092801 360.474437 111.423426 
Q 360.166937 110.752176 359.439437 110.752176 
Q 358.713812 110.752176 358.402562 111.423426 
Q 358.091312 112.092801 358.091312 113.733426 
Q 358.091312 115.392801 358.402562 116.073426 
Q 358.713812 116.752176 359.439437 116.752176 
Q 360.161312 116.752176 360.470687 116.073426 
Q 360.781937 115.392801 360.781937 113.733426 
z
M 363.037562 113.752176 
Q 363.037562 115.925301 362.100062 117.106551 
Q 361.162562 118.287801 359.439437 118.287801 
Q 357.710687 118.287801 356.773187 117.106551 
Q 355.835687 115.925301 355.835687 113.752176 
Q 355.835687 111.571551 356.773187 110.392176 
Q 357.710687 109.210926 359.439437 109.210926 
Q 361.162562 109.210926 362.100062 110.392176 
Q 363.037562 111.571551 363.037562 113.752176 
z
" style="fill: #abc9ea"/>
   </g>
   <g id="text_17">
    <path d="M 127.914625 163.85852 
Q 127.322125 163.85852 127.025875 164.242895 
Q 126.729625 164.625395 126.729625 165.394145 
Q 126.729625 166.16102 127.025875 166.545395 
Q 127.322125 166.927895 127.914625 166.927895 
Q 128.510875 166.927895 128.807125 166.545395 
Q 129.103375 166.16102 129.103375 165.394145 
Q 129.103375 164.625395 128.807125 164.242895 
Q 128.510875 163.85852 127.914625 163.85852 
z
M 130.70275 159.656645 
L 130.70275 161.27477 
Q 130.145875 161.010395 129.65275 160.88477 
Q 129.1615 160.759145 128.69275 160.759145 
Q 127.685875 160.759145 127.123375 161.31977 
Q 126.560875 161.87852 126.467125 162.979145 
Q 126.853375 162.69227 127.303375 162.54977 
Q 127.75525 162.405395 128.289625 162.405395 
Q 129.63025 162.405395 130.453375 163.19102 
Q 131.2765 163.97477 131.2765 165.24602 
Q 131.2765 166.65227 130.355875 167.49977 
Q 129.437125 168.34727 127.89025 168.34727 
Q 126.185875 168.34727 125.25025 167.19602 
Q 124.3165 166.042895 124.3165 163.927895 
Q 124.3165 161.760395 125.409625 160.52102 
Q 126.50275 159.281645 128.405875 159.281645 
Q 129.009625 159.281645 129.57775 159.375395 
Q 130.145875 159.469145 130.70275 159.656645 
z
M 133.146109 165.90977 
L 135.255484 165.90977 
L 135.255484 168.176645 
L 133.146109 168.176645 
L 133.146109 165.90977 
z
M 140.657828 164.261645 
Q 140.025953 164.261645 139.684703 164.60852 
Q 139.345328 164.95352 139.345328 165.59852 
Q 139.345328 166.24352 139.684703 166.586645 
Q 140.025953 166.927895 140.657828 166.927895 
Q 141.285953 166.927895 141.619703 166.586645 
Q 141.953453 166.24352 141.953453 165.59852 
Q 141.953453 164.947895 141.619703 164.60477 
Q 141.285953 164.261645 140.657828 164.261645 
z
M 139.011578 163.519145 
Q 138.214703 163.27727 137.809703 162.780395 
Q 137.406578 162.281645 137.406578 161.53727 
Q 137.406578 160.43102 138.231578 159.851645 
Q 139.058453 159.270395 140.657828 159.270395 
Q 142.245953 159.270395 143.070953 159.847895 
Q 143.897828 160.425395 143.897828 161.53727 
Q 143.897828 162.281645 143.490953 162.780395 
Q 143.084078 163.27727 142.287203 163.519145 
Q 143.177828 163.76477 143.631578 164.317895 
Q 144.085328 164.87102 144.085328 165.71477 
Q 144.085328 167.01602 143.220953 167.681645 
Q 142.356578 168.34727 140.657828 168.34727 
Q 138.953453 168.34727 138.083453 167.681645 
Q 137.213453 167.01602 137.213453 165.71477 
Q 137.213453 164.87102 137.667203 164.317895 
Q 138.120953 163.76477 139.011578 163.519145 
z
M 139.538453 161.76602 
Q 139.538453 162.28727 139.829078 162.56852 
Q 140.119703 162.84977 140.657828 162.84977 
Q 141.184703 162.84977 141.471578 162.56852 
Q 141.760328 162.28727 141.760328 161.76602 
Q 141.760328 161.24477 141.471578 160.96727 
Q 141.184703 160.687895 140.657828 160.687895 
Q 140.119703 160.687895 139.829078 160.969145 
Q 139.538453 161.250395 139.538453 161.76602 
z
M 149.172438 163.85852 
Q 148.579937 163.85852 148.283687 164.242895 
Q 147.987437 164.625395 147.987437 165.394145 
Q 147.987437 166.16102 148.283687 166.545395 
Q 148.579937 166.927895 149.172438 166.927895 
Q 149.768687 166.927895 150.064937 166.545395 
Q 150.361187 166.16102 150.361187 165.394145 
Q 150.361187 164.625395 150.064937 164.242895 
Q 149.768687 163.85852 149.172438 163.85852 
z
M 151.960563 159.656645 
L 151.960563 161.27477 
Q 151.403687 161.010395 150.910562 160.88477 
Q 150.419312 160.759145 149.950562 160.759145 
Q 148.943688 160.759145 148.381188 161.31977 
Q 147.818688 161.87852 147.724938 162.979145 
Q 148.111187 162.69227 148.561187 162.54977 
Q 149.013062 162.405395 149.547438 162.405395 
Q 150.888062 162.405395 151.711187 163.19102 
Q 152.534312 163.97477 152.534312 165.24602 
Q 152.534312 166.65227 151.613687 167.49977 
Q 150.694938 168.34727 149.148063 168.34727 
Q 147.443688 168.34727 146.508062 167.19602 
Q 145.574312 166.042895 145.574312 163.927895 
Q 145.574312 161.760395 146.667438 160.52102 
Q 147.760562 159.281645 149.663688 159.281645 
Q 150.267437 159.281645 150.835563 159.375395 
Q 151.403687 159.469145 151.960563 159.656645 
z
" style="fill: #efb792; stroke: #ffffff; stroke-width: 3"/>
    <path d="M 127.914625 163.85852 
Q 127.322125 163.85852 127.025875 164.242895 
Q 126.729625 164.625395 126.729625 165.394145 
Q 126.729625 166.16102 127.025875 166.545395 
Q 127.322125 166.927895 127.914625 166.927895 
Q 128.510875 166.927895 128.807125 166.545395 
Q 129.103375 166.16102 129.103375 165.394145 
Q 129.103375 164.625395 128.807125 164.242895 
Q 128.510875 163.85852 127.914625 163.85852 
z
M 130.70275 159.656645 
L 130.70275 161.27477 
Q 130.145875 161.010395 129.65275 160.88477 
Q 129.1615 160.759145 128.69275 160.759145 
Q 127.685875 160.759145 127.123375 161.31977 
Q 126.560875 161.87852 126.467125 162.979145 
Q 126.853375 162.69227 127.303375 162.54977 
Q 127.75525 162.405395 128.289625 162.405395 
Q 129.63025 162.405395 130.453375 163.19102 
Q 131.2765 163.97477 131.2765 165.24602 
Q 131.2765 166.65227 130.355875 167.49977 
Q 129.437125 168.34727 127.89025 168.34727 
Q 126.185875 168.34727 125.25025 167.19602 
Q 124.3165 166.042895 124.3165 163.927895 
Q 124.3165 161.760395 125.409625 160.52102 
Q 126.50275 159.281645 128.405875 159.281645 
Q 129.009625 159.281645 129.57775 159.375395 
Q 130.145875 159.469145 130.70275 159.656645 
z
M 133.146109 165.90977 
L 135.255484 165.90977 
L 135.255484 168.176645 
L 133.146109 168.176645 
L 133.146109 165.90977 
z
M 140.657828 164.261645 
Q 140.025953 164.261645 139.684703 164.60852 
Q 139.345328 164.95352 139.345328 165.59852 
Q 139.345328 166.24352 139.684703 166.586645 
Q 140.025953 166.927895 140.657828 166.927895 
Q 141.285953 166.927895 141.619703 166.586645 
Q 141.953453 166.24352 141.953453 165.59852 
Q 141.953453 164.947895 141.619703 164.60477 
Q 141.285953 164.261645 140.657828 164.261645 
z
M 139.011578 163.519145 
Q 138.214703 163.27727 137.809703 162.780395 
Q 137.406578 162.281645 137.406578 161.53727 
Q 137.406578 160.43102 138.231578 159.851645 
Q 139.058453 159.270395 140.657828 159.270395 
Q 142.245953 159.270395 143.070953 159.847895 
Q 143.897828 160.425395 143.897828 161.53727 
Q 143.897828 162.281645 143.490953 162.780395 
Q 143.084078 163.27727 142.287203 163.519145 
Q 143.177828 163.76477 143.631578 164.317895 
Q 144.085328 164.87102 144.085328 165.71477 
Q 144.085328 167.01602 143.220953 167.681645 
Q 142.356578 168.34727 140.657828 168.34727 
Q 138.953453 168.34727 138.083453 167.681645 
Q 137.213453 167.01602 137.213453 165.71477 
Q 137.213453 164.87102 137.667203 164.317895 
Q 138.120953 163.76477 139.011578 163.519145 
z
M 139.538453 161.76602 
Q 139.538453 162.28727 139.829078 162.56852 
Q 140.119703 162.84977 140.657828 162.84977 
Q 141.184703 162.84977 141.471578 162.56852 
Q 141.760328 162.28727 141.760328 161.76602 
Q 141.760328 161.24477 141.471578 160.96727 
Q 141.184703 160.687895 140.657828 160.687895 
Q 140.119703 160.687895 139.829078 160.969145 
Q 139.538453 161.250395 139.538453 161.76602 
z
M 149.172438 163.85852 
Q 148.579937 163.85852 148.283687 164.242895 
Q 147.987437 164.625395 147.987437 165.394145 
Q 147.987437 166.16102 148.283687 166.545395 
Q 148.579937 166.927895 149.172438 166.927895 
Q 149.768687 166.927895 150.064937 166.545395 
Q 150.361187 166.16102 150.361187 165.394145 
Q 150.361187 164.625395 150.064937 164.242895 
Q 149.768687 163.85852 149.172438 163.85852 
z
M 151.960563 159.656645 
L 151.960563 161.27477 
Q 151.403687 161.010395 150.910562 160.88477 
Q 150.419312 160.759145 149.950562 160.759145 
Q 148.943688 160.759145 148.381188 161.31977 
Q 147.818688 161.87852 147.724938 162.979145 
Q 148.111187 162.69227 148.561187 162.54977 
Q 149.013062 162.405395 149.547438 162.405395 
Q 150.888062 162.405395 151.711187 163.19102 
Q 152.534312 163.97477 152.534312 165.24602 
Q 152.534312 166.65227 151.613687 167.49977 
Q 150.694938 168.34727 149.148063 168.34727 
Q 147.443688 168.34727 146.508062 167.19602 
Q 145.574312 166.042895 145.574312 163.927895 
Q 145.574312 161.760395 146.667438 160.52102 
Q 147.760562 159.281645 149.663688 159.281645 
Q 150.267437 159.281645 150.835563 159.375395 
Q 151.403687 159.469145 151.960563 159.656645 
z
" style="fill: #efb792"/>
   </g>
   <g id="text_18">
    <path d="M 255.894625 150.906702 
L 262.487125 150.906702 
L 262.487125 152.177952 
L 259.0765 159.655452 
L 256.879 159.655452 
L 260.10775 152.566077 
L 255.894625 152.566077 
L 255.894625 150.906702 
z
M 264.666109 157.388577 
L 266.775484 157.388577 
L 266.775484 159.655452 
L 264.666109 159.655452 
L 264.666109 157.388577 
z
M 273.589703 154.937952 
Q 274.474703 155.166702 274.934078 155.732952 
Q 275.395328 156.297327 275.395328 157.171077 
Q 275.395328 158.472327 274.397828 159.149202 
Q 273.402203 159.826077 271.493453 159.826077 
Q 270.818453 159.826077 270.141578 159.717327 
Q 269.464703 159.608577 268.802828 159.391077 
L 268.802828 157.651077 
Q 269.436578 157.967952 270.059078 158.129202 
Q 270.683453 158.290452 271.287203 158.290452 
Q 272.183453 158.290452 272.661578 157.981077 
Q 273.139703 157.669827 273.139703 157.088577 
Q 273.139703 156.490452 272.650328 156.182952 
Q 272.160953 155.875452 271.204703 155.875452 
L 270.302828 155.875452 
L 270.302828 154.422327 
L 271.251578 154.422327 
Q 272.102828 154.422327 272.517203 154.156077 
Q 272.933453 153.889827 272.933453 153.344202 
Q 272.933453 152.841702 272.528453 152.566077 
Q 272.125328 152.290452 271.386578 152.290452 
Q 270.842828 152.290452 270.285953 152.414202 
Q 269.729078 152.536077 269.177828 152.776077 
L 269.177828 151.124202 
Q 269.845328 150.936702 270.501578 150.842952 
Q 271.157828 150.749202 271.791578 150.749202 
Q 273.495953 150.749202 274.341578 151.309827 
Q 275.189078 151.868577 275.189078 152.993577 
Q 275.189078 153.760452 274.784078 154.249827 
Q 274.380953 154.739202 273.589703 154.937952 
z
M 280.692438 155.337327 
Q 280.099938 155.337327 279.803688 155.721702 
Q 279.507438 156.104202 279.507438 156.872952 
Q 279.507438 157.639827 279.803688 158.024202 
Q 280.099938 158.406702 280.692438 158.406702 
Q 281.288688 158.406702 281.584938 158.024202 
Q 281.881188 157.639827 281.881188 156.872952 
Q 281.881188 156.104202 281.584938 155.721702 
Q 281.288688 155.337327 280.692438 155.337327 
z
M 283.480563 151.135452 
L 283.480563 152.753577 
Q 282.923688 152.489202 282.430563 152.363577 
Q 281.939313 152.237952 281.470563 152.237952 
Q 280.463688 152.237952 279.901188 152.798577 
Q 279.338688 153.357327 279.244938 154.457952 
Q 279.631188 154.171077 280.081188 154.028577 
Q 280.533063 153.884202 281.067438 153.884202 
Q 282.408063 153.884202 283.231188 154.669827 
Q 284.054313 155.453577 284.054313 156.724827 
Q 284.054313 158.131077 283.133688 158.978577 
Q 282.214938 159.826077 280.668063 159.826077 
Q 278.963688 159.826077 278.028063 158.674827 
Q 277.094313 157.521702 277.094313 155.406702 
Q 277.094313 153.239202 278.187438 151.999827 
Q 279.280563 150.760452 281.183688 150.760452 
Q 281.787438 150.760452 282.355563 150.854202 
Q 282.923688 150.947952 283.480563 151.135452 
z
" style="fill: #efb792; stroke: #ffffff; stroke-width: 3"/>
    <path d="M 255.894625 150.906702 
L 262.487125 150.906702 
L 262.487125 152.177952 
L 259.0765 159.655452 
L 256.879 159.655452 
L 260.10775 152.566077 
L 255.894625 152.566077 
L 255.894625 150.906702 
z
M 264.666109 157.388577 
L 266.775484 157.388577 
L 266.775484 159.655452 
L 264.666109 159.655452 
L 264.666109 157.388577 
z
M 273.589703 154.937952 
Q 274.474703 155.166702 274.934078 155.732952 
Q 275.395328 156.297327 275.395328 157.171077 
Q 275.395328 158.472327 274.397828 159.149202 
Q 273.402203 159.826077 271.493453 159.826077 
Q 270.818453 159.826077 270.141578 159.717327 
Q 269.464703 159.608577 268.802828 159.391077 
L 268.802828 157.651077 
Q 269.436578 157.967952 270.059078 158.129202 
Q 270.683453 158.290452 271.287203 158.290452 
Q 272.183453 158.290452 272.661578 157.981077 
Q 273.139703 157.669827 273.139703 157.088577 
Q 273.139703 156.490452 272.650328 156.182952 
Q 272.160953 155.875452 271.204703 155.875452 
L 270.302828 155.875452 
L 270.302828 154.422327 
L 271.251578 154.422327 
Q 272.102828 154.422327 272.517203 154.156077 
Q 272.933453 153.889827 272.933453 153.344202 
Q 272.933453 152.841702 272.528453 152.566077 
Q 272.125328 152.290452 271.386578 152.290452 
Q 270.842828 152.290452 270.285953 152.414202 
Q 269.729078 152.536077 269.177828 152.776077 
L 269.177828 151.124202 
Q 269.845328 150.936702 270.501578 150.842952 
Q 271.157828 150.749202 271.791578 150.749202 
Q 273.495953 150.749202 274.341578 151.309827 
Q 275.189078 151.868577 275.189078 152.993577 
Q 275.189078 153.760452 274.784078 154.249827 
Q 274.380953 154.739202 273.589703 154.937952 
z
M 280.692438 155.337327 
Q 280.099938 155.337327 279.803688 155.721702 
Q 279.507438 156.104202 279.507438 156.872952 
Q 279.507438 157.639827 279.803688 158.024202 
Q 280.099938 158.406702 280.692438 158.406702 
Q 281.288688 158.406702 281.584938 158.024202 
Q 281.881188 157.639827 281.881188 156.872952 
Q 281.881188 156.104202 281.584938 155.721702 
Q 281.288688 155.337327 280.692438 155.337327 
z
M 283.480563 151.135452 
L 283.480563 152.753577 
Q 282.923688 152.489202 282.430563 152.363577 
Q 281.939313 152.237952 281.470563 152.237952 
Q 280.463688 152.237952 279.901188 152.798577 
Q 279.338688 153.357327 279.244938 154.457952 
Q 279.631188 154.171077 280.081188 154.028577 
Q 280.533063 153.884202 281.067438 153.884202 
Q 282.408063 153.884202 283.231188 154.669827 
Q 284.054313 155.453577 284.054313 156.724827 
Q 284.054313 158.131077 283.133688 158.978577 
Q 282.214938 159.826077 280.668063 159.826077 
Q 278.963688 159.826077 278.028063 158.674827 
Q 277.094313 157.521702 277.094313 155.406702 
Q 277.094313 153.239202 278.187438 151.999827 
Q 279.280563 150.760452 281.183688 150.760452 
Q 281.787438 150.760452 282.355563 150.854202 
Q 282.923688 150.947952 283.480563 151.135452 
z
" style="fill: #efb792"/>
   </g>
   <g id="text_19">
    <path d="M 387.414625 153.874952 
L 394.007125 153.874952 
L 394.007125 155.146202 
L 390.5965 162.623702 
L 388.399 162.623702 
L 391.62775 155.534327 
L 387.414625 155.534327 
L 387.414625 153.874952 
z
M 396.186109 160.356827 
L 398.295484 160.356827 
L 398.295484 162.623702 
L 396.186109 162.623702 
L 396.186109 160.356827 
z
M 400.926578 161.065577 
L 402.919703 161.065577 
L 402.919703 155.410577 
L 400.874078 155.832452 
L 400.874078 154.296827 
L 402.906578 153.874952 
L 405.051578 153.874952 
L 405.051578 161.065577 
L 407.044703 161.065577 
L 407.044703 162.623702 
L 400.926578 162.623702 
L 400.926578 161.065577 
z
M 409.071812 162.430577 
L 409.071812 160.812452 
Q 409.609938 161.065577 410.101187 161.191202 
Q 410.594313 161.316827 411.074313 161.316827 
Q 412.083062 161.316827 412.645562 160.758077 
Q 413.208062 160.197452 413.307437 159.096827 
Q 412.909938 159.389327 412.458062 159.535577 
Q 412.006188 159.681827 411.479312 159.681827 
Q 410.136813 159.681827 409.313688 158.899952 
Q 408.490563 158.118077 408.490563 156.841202 
Q 408.490563 155.427452 409.407438 154.578077 
Q 410.324313 153.728702 411.865563 153.728702 
Q 413.577437 153.728702 414.514937 154.883702 
Q 415.452437 156.036827 415.452437 158.146202 
Q 415.452437 160.315577 414.355563 161.554952 
Q 413.260562 162.794327 411.349938 162.794327 
Q 410.734938 162.794327 410.172438 162.702452 
Q 409.609938 162.612452 409.071812 162.430577 
z
M 411.854312 158.217452 
Q 412.446812 158.217452 412.744937 157.834952 
Q 413.043063 157.450577 413.043063 156.681827 
Q 413.043063 155.920577 412.744937 155.534327 
Q 412.446812 155.146202 411.854312 155.146202 
Q 411.261813 155.146202 410.963687 155.534327 
Q 410.665562 155.920577 410.665562 156.681827 
Q 410.665562 157.450577 410.963687 157.834952 
Q 411.261813 158.217452 411.854312 158.217452 
z
" style="fill: #efb792; stroke: #ffffff; stroke-width: 3"/>
    <path d="M 387.414625 153.874952 
L 394.007125 153.874952 
L 394.007125 155.146202 
L 390.5965 162.623702 
L 388.399 162.623702 
L 391.62775 155.534327 
L 387.414625 155.534327 
L 387.414625 153.874952 
z
M 396.186109 160.356827 
L 398.295484 160.356827 
L 398.295484 162.623702 
L 396.186109 162.623702 
L 396.186109 160.356827 
z
M 400.926578 161.065577 
L 402.919703 161.065577 
L 402.919703 155.410577 
L 400.874078 155.832452 
L 400.874078 154.296827 
L 402.906578 153.874952 
L 405.051578 153.874952 
L 405.051578 161.065577 
L 407.044703 161.065577 
L 407.044703 162.623702 
L 400.926578 162.623702 
L 400.926578 161.065577 
z
M 409.071812 162.430577 
L 409.071812 160.812452 
Q 409.609938 161.065577 410.101187 161.191202 
Q 410.594313 161.316827 411.074313 161.316827 
Q 412.083062 161.316827 412.645562 160.758077 
Q 413.208062 160.197452 413.307437 159.096827 
Q 412.909938 159.389327 412.458062 159.535577 
Q 412.006188 159.681827 411.479312 159.681827 
Q 410.136813 159.681827 409.313688 158.899952 
Q 408.490563 158.118077 408.490563 156.841202 
Q 408.490563 155.427452 409.407438 154.578077 
Q 410.324313 153.728702 411.865563 153.728702 
Q 413.577437 153.728702 414.514937 154.883702 
Q 415.452437 156.036827 415.452437 158.146202 
Q 415.452437 160.315577 414.355563 161.554952 
Q 413.260562 162.794327 411.349938 162.794327 
Q 410.734938 162.794327 410.172438 162.702452 
Q 409.609938 162.612452 409.071812 162.430577 
z
M 411.854312 158.217452 
Q 412.446812 158.217452 412.744937 157.834952 
Q 413.043063 157.450577 413.043063 156.681827 
Q 413.043063 155.920577 412.744937 155.534327 
Q 412.446812 155.146202 411.854312 155.146202 
Q 411.261813 155.146202 410.963687 155.534327 
Q 410.665562 155.920577 410.665562 156.681827 
Q 410.665562 157.450577 410.963687 157.834952 
Q 411.261813 158.217452 411.854312 158.217452 
z
" style="fill: #efb792"/>
   </g>
   <g id="text_20">
    <!-- Install -->
    <g style="fill: #262626" transform="translate(225.530313 16.318125) scale(0.12 -0.12)">
     <defs>
      <path id="DejaVuSans-49" d="M 628 4666 
L 1259 4666 
L 1259 0 
L 628 0 
L 628 4666 
z
" transform="scale(0.015625)"/>
      <path id="DejaVuSans-61" d="M 2194 1759 
Q 1497 1759 1228 1600 
Q 959 1441 959 1056 
Q 959 750 1161 570 
Q 1363 391 1709 391 
Q 2188 391 2477 730 
Q 2766 1069 2766 1631 
L 2766 1759 
L 2194 1759 
z
M 3341 1997 
L 3341 0 
L 2766 0 
L 2766 531 
Q 2569 213 2275 61 
Q 1981 -91 1556 -91 
Q 1019 -91 701 211 
Q 384 513 384 1019 
Q 384 1609 779 1909 
Q 1175 2209 1959 2209 
L 2766 2209 
L 2766 2266 
Q 2766 2663 2505 2880 
Q 2244 3097 1772 3097 
Q 1472 3097 1187 3025 
Q 903 2953 641 2809 
L 641 3341 
Q 956 3463 1253 3523 
Q 1550 3584 1831 3584 
Q 2591 3584 2966 3190 
Q 3341 2797 3341 1997 
z
" transform="scale(0.015625)"/>
      <path id="DejaVuSans-6c" d="M 603 4863 
L 1178 4863 
L 1178 0 
L 603 0 
L 603 4863 
z
" transform="scale(0.015625)"/>
     </defs>
     <use xlink:href="#DejaVuSans-49"/>
     <use xlink:href="#DejaVuSans-6e" x="29.492188"/>
     <use xlink:href="#DejaVuSans-73" x="92.871094"/>
     <use xlink:href="#DejaVuSans-74" x="144.970703"/>
     <use xlink:href="#DejaVuSans-61" x="184.179688"/>
     <use xlink:href="#DejaVuSans-6c" x="245.458984"/>
     <use xlink:href="#DejaVuSans-6c" x="273.242188"/>
    </g>
   </g>
   <g id="legend_1">
    <g id="patch_11">
     <path d="M 361.775625 80.8575 
L 433.17125 80.8575 
Q 435.37125 80.8575 435.37125 78.6575 
L 435.37125 30.018125 
Q 435.37125 27.818125 433.17125 27.818125 
L 361.775625 27.818125 
Q 359.575625 27.818125 359.575625 30.018125 
L 359.575625 78.6575 
Q 359.575625 80.8575 361.775625 80.8575 
z
" style="fill: #eaeaf2; opacity: 0.8; stroke: #cccccc; stroke-linejoin: miter"/>
    </g>
    <g id="text_21">
     <!-- with_cache -->
     <g style="fill: #262626" transform="translate(363.975625 41.33625) scale(0.12 -0.12)">
      <defs>
       <path id="DejaVuSans-77" d="M 269 3500 
L 844 3500 
L 1563 769 
L 2278 3500 
L 2956 3500 
L 3675 769 
L 4391 3500 
L 4966 3500 
L 4050 0 
L 3372 0 
L 2619 2869 
L 1863 0 
L 1184 0 
L 269 3500 
z
" transform="scale(0.015625)"/>
       <path id="DejaVuSans-5f" d="M 3263 -1063 
L 3263 -1509 
L -63 -1509 
L -63 -1063 
L 3263 -1063 
z
" transform="scale(0.015625)"/>
       <path id="DejaVuSans-63" d="M 3122 3366 
L 3122 2828 
Q 2878 2963 2633 3030 
Q 2388 3097 2138 3097 
Q 1578 3097 1268 2742 
Q 959 2388 959 1747 
Q 959 1106 1268 751 
Q 1578 397 2138 397 
Q 2388 397 2633 464 
Q 2878 531 3122 666 
L 3122 134 
Q 2881 22 2623 -34 
Q 2366 -91 2075 -91 
Q 1284 -91 818 406 
Q 353 903 353 1747 
Q 353 2603 823 3093 
Q 1294 3584 2113 3584 
Q 2378 3584 2631 3529 
Q 2884 3475 3122 3366 
z
" transform="scale(0.015625)"/>
      </defs>
      <use xlink:href="#DejaVuSans-77"/>
      <use xlink:href="#DejaVuSans-69" x="81.787109"/>
      <use xlink:href="#DejaVuSans-74" x="109.570312"/>
      <use xlink:href="#DejaVuSans-68" x="148.779297"/>
      <use xlink:href="#DejaVuSans-5f" x="212.158203"/>
      <use xlink:href="#DejaVuSans-63" x="262.158203"/>
      <use xlink:href="#DejaVuSans-61" x="317.138672"/>
      <use xlink:href="#DejaVuSans-63" x="378.417969"/>
      <use xlink:href="#DejaVuSans-68" x="433.398438"/>
      <use xlink:href="#DejaVuSans-65" x="496.777344"/>
     </g>
    </g>
    <g id="patch_12">
     <path d="M 368.264141 58.023906 
L 390.264141 58.023906 
L 390.264141 50.323906 
L 368.264141 50.323906 
z
" style="fill: #abc9ea; stroke: #ffffff; stroke-linejoin: miter"/>
    </g>
    <g id="text_22">
     <!-- False -->
     <g style="fill: #262626" transform="translate(399.064141 58.023906) scale(0.11 -0.11)">
      <defs>
       <path id="DejaVuSans-46" d="M 628 4666 
L 3309 4666 
L 3309 4134 
L 1259 4134 
L 1259 2759 
L 3109 2759 
L 3109 2228 
L 1259 2228 
L 1259 0 
L 628 0 
L 628 4666 
z
" transform="scale(0.015625)"/>
      </defs>
      <use xlink:href="#DejaVuSans-46"/>
      <use xlink:href="#DejaVuSans-61" x="48.394531"/>
      <use xlink:href="#DejaVuSans-6c" x="109.673828"/>
      <use xlink:href="#DejaVuSans-73" x="137.457031"/>
      <use xlink:href="#DejaVuSans-65" x="189.556641"/>
     </g>
    </g>
    <g id="patch_13">
     <path d="M 368.264141 74.169844 
L 390.264141 74.169844 
L 390.264141 66.469844 
L 368.264141 66.469844 
z
" style="fill: #efb792; stroke: #ffffff; stroke-linejoin: miter"/>
    </g>
    <g id="text_23">
     <!-- True -->
     <g style="fill: #262626" transform="translate(399.064141 74.169844) scale(0.11 -0.11)">
      <defs>
       <path id="DejaVuSans-75" d="M 544 1381 
L 544 3500 
L 1119 3500 
L 1119 1403 
Q 1119 906 1312 657 
Q 1506 409 1894 409 
Q 2359 409 2629 706 
Q 2900 1003 2900 1516 
L 2900 3500 
L 3475 3500 
L 3475 0 
L 2900 0 
L 2900 538 
Q 2691 219 2414 64 
Q 2138 -91 1772 -91 
Q 1169 -91 856 284 
Q 544 659 544 1381 
z
M 1991 3584 
L 1991 3584 
z
" transform="scale(0.015625)"/>
      </defs>
      <use xlink:href="#DejaVuSans-54"/>
      <use xlink:href="#DejaVuSans-72" x="46.333984"/>
      <use xlink:href="#DejaVuSans-75" x="87.447266"/>
      <use xlink:href="#DejaVuSans-65" x="150.826172"/>
     </g>
    </g>
   </g>
  </g>
 </g>
 <defs>
  <clipPath id="p28b9046840">
   <rect x="46.31125" y="22.318125" width="394.56" height="266.34"/>
  </clipPath>
 </defs>
</svg>
