<?xml version="1.0" encoding="utf-8" standalone="no"?>
<!DOCTYPE svg PUBLIC "-//W3C//DTD SVG 1.1//EN"
  "http://www.w3.org/Graphics/SVG/1.1/DTD/svg11.dtd">
<svg xmlns:xlink="http://www.w3.org/1999/xlink" width="447.9125pt" height="331.617812pt" viewBox="0 0 447.9125 331.617812" xmlns="http://www.w3.org/2000/svg" version="1.1">
 <metadata>
  <rdf:RDF xmlns:dc="http://purl.org/dc/elements/1.1/" xmlns:cc="http://creativecommons.org/ns#" xmlns:rdf="http://www.w3.org/1999/02/22-rdf-syntax-ns#">
   <cc:Work>
    <dc:type rdf:resource="http://purl.org/dc/dcmitype/StillImage"/>
    <dc:date>2024-10-22T16:20:15.165070</dc:date>
    <dc:format>image/svg+xml</dc:format>
    <dc:creator>
     <cc:Agent>
      <dc:title>Matplotlib v3.9.2, https://matplotlib.org/</dc:title>
     </cc:Agent>
    </dc:creator>
   </cc:Work>
  </rdf:RDF>
 </metadata>
 <defs>
  <style type="text/css">*{stroke-linejoin: round; stroke-linecap: butt}</style>
 </defs>
 <g id="figure_1">
  <g id="patch_1">
   <path d="M 0 331.617812 
L 447.9125 331.617812 
L 447.9125 0 
L 0 0 
L 0 331.617812 
z
" style="fill: none"/>
  </g>
  <g id="axes_1">
   <g id="patch_2">
    <path d="M 39.3125 288.658125 
L 440.7125 288.658125 
L 440.7125 22.318125 
L 39.3125 22.318125 
L 39.3125 288.658125 
z
" style="fill: none"/>
   </g>
   <g id="matplotlib.axis_1">
    <g id="xtick_1">
     <g id="text_1">
      <!-- 3.11 -->
      <g style="fill: #262626" transform="translate(93.966406 306.516406) scale(0.11 -0.11)">
       <defs>
        <path id="DejaVuSans-33" d="M 2597 2516 
Q 3050 2419 3304 2112 
Q 3559 1806 3559 1356 
Q 3559 666 3084 287 
Q 2609 -91 1734 -91 
Q 1441 -91 1130 -33 
Q 819 25 488 141 
L 488 750 
Q 750 597 1062 519 
Q 1375 441 1716 441 
Q 2309 441 2620 675 
Q 2931 909 2931 1356 
Q 2931 1769 2642 2001 
Q 2353 2234 1838 2234 
L 1294 2234 
L 1294 2753 
L 1863 2753 
Q 2328 2753 2575 2939 
Q 2822 3125 2822 3475 
Q 2822 3834 2567 4026 
Q 2313 4219 1838 4219 
Q 1578 4219 1281 4162 
Q 984 4106 628 3988 
L 628 4550 
Q 988 4650 1302 4700 
Q 1616 4750 1894 4750 
Q 2613 4750 3031 4423 
Q 3450 4097 3450 3541 
Q 3450 3153 3228 2886 
Q 3006 2619 2597 2516 
z
" transform="scale(0.015625)"/>
        <path id="DejaVuSans-2e" d="M 684 794 
L 1344 794 
L 1344 0 
L 684 0 
L 684 794 
z
" transform="scale(0.015625)"/>
        <path id="DejaVuSans-31" d="M 794 531 
L 1825 531 
L 1825 4091 
L 703 3866 
L 703 4441 
L 1819 4666 
L 2450 4666 
L 2450 531 
L 3481 531 
L 3481 0 
L 794 0 
L 794 531 
z
" transform="scale(0.015625)"/>
       </defs>
       <use xlink:href="#DejaVuSans-33"/>
       <use xlink:href="#DejaVuSans-2e" x="63.623047"/>
       <use xlink:href="#DejaVuSans-31" x="95.410156"/>
       <use xlink:href="#DejaVuSans-31" x="159.033203"/>
      </g>
     </g>
    </g>
    <g id="xtick_2">
     <g id="text_2">
      <!-- 3.12 -->
      <g style="fill: #262626" transform="translate(227.766406 306.516406) scale(0.11 -0.11)">
       <defs>
        <path id="DejaVuSans-32" d="M 1228 531 
L 3431 531 
L 3431 0 
L 469 0 
L 469 531 
Q 828 903 1448 1529 
Q 2069 2156 2228 2338 
Q 2531 2678 2651 2914 
Q 2772 3150 2772 3378 
Q 2772 3750 2511 3984 
Q 2250 4219 1831 4219 
Q 1534 4219 1204 4116 
Q 875 4013 500 3803 
L 500 4441 
Q 881 4594 1212 4672 
Q 1544 4750 1819 4750 
Q 2544 4750 2975 4387 
Q 3406 4025 3406 3419 
Q 3406 3131 3298 2873 
Q 3191 2616 2906 2266 
Q 2828 2175 2409 1742 
Q 1991 1309 1228 531 
z
" transform="scale(0.015625)"/>
       </defs>
       <use xlink:href="#DejaVuSans-33"/>
       <use xlink:href="#DejaVuSans-2e" x="63.623047"/>
       <use xlink:href="#DejaVuSans-31" x="95.410156"/>
       <use xlink:href="#DejaVuSans-32" x="159.033203"/>
      </g>
     </g>
    </g>
    <g id="xtick_3">
     <g id="text_3">
      <!-- 3.13 -->
      <g style="fill: #262626" transform="translate(361.566406 306.516406) scale(0.11 -0.11)">
       <use xlink:href="#DejaVuSans-33"/>
       <use xlink:href="#DejaVuSans-2e" x="63.623047"/>
       <use xlink:href="#DejaVuSans-31" x="95.410156"/>
       <use xlink:href="#DejaVuSans-33" x="159.033203"/>
      </g>
     </g>
    </g>
    <g id="text_4">
     <!-- Python Version -->
     <g style="fill: #262626" transform="translate(195.244063 321.922187) scale(0.12 -0.12)">
      <defs>
       <path id="DejaVuSans-50" d="M 1259 4147 
L 1259 2394 
L 2053 2394 
Q 2494 2394 2734 2622 
Q 2975 2850 2975 3272 
Q 2975 3691 2734 3919 
Q 2494 4147 2053 4147 
L 1259 4147 
z
M 628 4666 
L 2053 4666 
Q 2838 4666 3239 4311 
Q 3641 3956 3641 3272 
Q 3641 2581 3239 2228 
Q 2838 1875 2053 1875 
L 1259 1875 
L 1259 0 
L 628 0 
L 628 4666 
z
" transform="scale(0.015625)"/>
       <path id="DejaVuSans-79" d="M 2059 -325 
Q 1816 -950 1584 -1140 
Q 1353 -1331 966 -1331 
L 506 -1331 
L 506 -850 
L 844 -850 
Q 1081 -850 1212 -737 
Q 1344 -625 1503 -206 
L 1606 56 
L 191 3500 
L 800 3500 
L 1894 763 
L 2988 3500 
L 3597 3500 
L 2059 -325 
z
" transform="scale(0.015625)"/>
       <path id="DejaVuSans-74" d="M 1172 4494 
L 1172 3500 
L 2356 3500 
L 2356 3053 
L 1172 3053 
L 1172 1153 
Q 1172 725 1289 603 
Q 1406 481 1766 481 
L 2356 481 
L 2356 0 
L 1766 0 
Q 1100 0 847 248 
Q 594 497 594 1153 
L 594 3053 
L 172 3053 
L 172 3500 
L 594 3500 
L 594 4494 
L 1172 4494 
z
" transform="scale(0.015625)"/>
       <path id="DejaVuSans-68" d="M 3513 2113 
L 3513 0 
L 2938 0 
L 2938 2094 
Q 2938 2591 2744 2837 
Q 2550 3084 2163 3084 
Q 1697 3084 1428 2787 
Q 1159 2491 1159 1978 
L 1159 0 
L 581 0 
L 581 4863 
L 1159 4863 
L 1159 2956 
Q 1366 3272 1645 3428 
Q 1925 3584 2291 3584 
Q 2894 3584 3203 3211 
Q 3513 2838 3513 2113 
z
" transform="scale(0.015625)"/>
       <path id="DejaVuSans-6f" d="M 1959 3097 
Q 1497 3097 1228 2736 
Q 959 2375 959 1747 
Q 959 1119 1226 758 
Q 1494 397 1959 397 
Q 2419 397 2687 759 
Q 2956 1122 2956 1747 
Q 2956 2369 2687 2733 
Q 2419 3097 1959 3097 
z
M 1959 3584 
Q 2709 3584 3137 3096 
Q 3566 2609 3566 1747 
Q 3566 888 3137 398 
Q 2709 -91 1959 -91 
Q 1206 -91 779 398 
Q 353 888 353 1747 
Q 353 2609 779 3096 
Q 1206 3584 1959 3584 
z
" transform="scale(0.015625)"/>
       <path id="DejaVuSans-6e" d="M 3513 2113 
L 3513 0 
L 2938 0 
L 2938 2094 
Q 2938 2591 2744 2837 
Q 2550 3084 2163 3084 
Q 1697 3084 1428 2787 
Q 1159 2491 1159 1978 
L 1159 0 
L 581 0 
L 581 3500 
L 1159 3500 
L 1159 2956 
Q 1366 3272 1645 3428 
Q 1925 3584 2291 3584 
Q 2894 3584 3203 3211 
Q 3513 2838 3513 2113 
z
" transform="scale(0.015625)"/>
       <path id="DejaVuSans-20" transform="scale(0.015625)"/>
       <path id="DejaVuSans-56" d="M 1831 0 
L 50 4666 
L 709 4666 
L 2188 738 
L 3669 4666 
L 4325 4666 
L 2547 0 
L 1831 0 
z
" transform="scale(0.015625)"/>
       <path id="DejaVuSans-65" d="M 3597 1894 
L 3597 1613 
L 953 1613 
Q 991 1019 1311 708 
Q 1631 397 2203 397 
Q 2534 397 2845 478 
Q 3156 559 3463 722 
L 3463 178 
Q 3153 47 2828 -22 
Q 2503 -91 2169 -91 
Q 1331 -91 842 396 
Q 353 884 353 1716 
Q 353 2575 817 3079 
Q 1281 3584 2069 3584 
Q 2775 3584 3186 3129 
Q 3597 2675 3597 1894 
z
M 3022 2063 
Q 3016 2534 2758 2815 
Q 2500 3097 2075 3097 
Q 1594 3097 1305 2825 
Q 1016 2553 972 2059 
L 3022 2063 
z
" transform="scale(0.015625)"/>
       <path id="DejaVuSans-72" d="M 2631 2963 
Q 2534 3019 2420 3045 
Q 2306 3072 2169 3072 
Q 1681 3072 1420 2755 
Q 1159 2438 1159 1844 
L 1159 0 
L 581 0 
L 581 3500 
L 1159 3500 
L 1159 2956 
Q 1341 3275 1631 3429 
Q 1922 3584 2338 3584 
Q 2397 3584 2469 3576 
Q 2541 3569 2628 3553 
L 2631 2963 
z
" transform="scale(0.015625)"/>
       <path id="DejaVuSans-73" d="M 2834 3397 
L 2834 2853 
Q 2591 2978 2328 3040 
Q 2066 3103 1784 3103 
Q 1356 3103 1142 2972 
Q 928 2841 928 2578 
Q 928 2378 1081 2264 
Q 1234 2150 1697 2047 
L 1894 2003 
Q 2506 1872 2764 1633 
Q 3022 1394 3022 966 
Q 3022 478 2636 193 
Q 2250 -91 1575 -91 
Q 1294 -91 989 -36 
Q 684 19 347 128 
L 347 722 
Q 666 556 975 473 
Q 1284 391 1588 391 
Q 1994 391 2212 530 
Q 2431 669 2431 922 
Q 2431 1156 2273 1281 
Q 2116 1406 1581 1522 
L 1381 1569 
Q 847 1681 609 1914 
Q 372 2147 372 2553 
Q 372 3047 722 3315 
Q 1072 3584 1716 3584 
Q 2034 3584 2315 3537 
Q 2597 3491 2834 3397 
z
" transform="scale(0.015625)"/>
       <path id="DejaVuSans-69" d="M 603 3500 
L 1178 3500 
L 1178 0 
L 603 0 
L 603 3500 
z
M 603 4863 
L 1178 4863 
L 1178 4134 
L 603 4134 
L 603 4863 
z
" transform="scale(0.015625)"/>
      </defs>
      <use xlink:href="#DejaVuSans-50"/>
      <use xlink:href="#DejaVuSans-79" x="60.302734"/>
      <use xlink:href="#DejaVuSans-74" x="119.482422"/>
      <use xlink:href="#DejaVuSans-68" x="158.691406"/>
      <use xlink:href="#DejaVuSans-6f" x="222.070312"/>
      <use xlink:href="#DejaVuSans-6e" x="283.251953"/>
      <use xlink:href="#DejaVuSans-20" x="346.630859"/>
      <use xlink:href="#DejaVuSans-56" x="378.417969"/>
      <use xlink:href="#DejaVuSans-65" x="439.076172"/>
      <use xlink:href="#DejaVuSans-72" x="500.599609"/>
      <use xlink:href="#DejaVuSans-73" x="541.712891"/>
      <use xlink:href="#DejaVuSans-69" x="593.8125"/>
      <use xlink:href="#DejaVuSans-6f" x="621.595703"/>
      <use xlink:href="#DejaVuSans-6e" x="682.777344"/>
     </g>
    </g>
   </g>
   <g id="matplotlib.axis_2">
    <g id="ytick_1">
     <g id="text_5">
      <!-- 0 -->
      <g style="fill: #262626" transform="translate(22.81375 292.837266) scale(0.11 -0.11)">
       <defs>
        <path id="DejaVuSans-30" d="M 2034 4250 
Q 1547 4250 1301 3770 
Q 1056 3291 1056 2328 
Q 1056 1369 1301 889 
Q 1547 409 2034 409 
Q 2525 409 2770 889 
Q 3016 1369 3016 2328 
Q 3016 3291 2770 3770 
Q 2525 4250 2034 4250 
z
M 2034 4750 
Q 2819 4750 3233 4129 
Q 3647 3509 3647 2328 
Q 3647 1150 3233 529 
Q 2819 -91 2034 -91 
Q 1250 -91 836 529 
Q 422 1150 422 2328 
Q 422 3509 836 4129 
Q 1250 4750 2034 4750 
z
" transform="scale(0.015625)"/>
       </defs>
       <use xlink:href="#DejaVuSans-30"/>
      </g>
     </g>
    </g>
    <g id="ytick_2">
     <g id="text_6">
      <!-- 1 -->
      <g style="fill: #262626" transform="translate(22.81375 236.340424) scale(0.11 -0.11)">
       <use xlink:href="#DejaVuSans-31"/>
      </g>
     </g>
    </g>
    <g id="ytick_3">
     <g id="text_7">
      <!-- 2 -->
      <g style="fill: #262626" transform="translate(22.81375 179.843583) scale(0.11 -0.11)">
       <use xlink:href="#DejaVuSans-32"/>
      </g>
     </g>
    </g>
    <g id="ytick_4">
     <g id="text_8">
      <!-- 3 -->
      <g style="fill: #262626" transform="translate(22.81375 123.346742) scale(0.11 -0.11)">
       <use xlink:href="#DejaVuSans-33"/>
      </g>
     </g>
    </g>
    <g id="ytick_5">
     <g id="text_9">
      <!-- 4 -->
      <g style="fill: #262626" transform="translate(22.81375 66.849901) scale(0.11 -0.11)">
       <defs>
        <path id="DejaVuSans-34" d="M 2419 4116 
L 825 1625 
L 2419 1625 
L 2419 4116 
z
M 2253 4666 
L 3047 4666 
L 3047 1625 
L 3713 1625 
L 3713 1100 
L 3047 1100 
L 3047 0 
L 2419 0 
L 2419 1100 
L 313 1100 
L 313 1709 
L 2253 4666 
z
" transform="scale(0.015625)"/>
       </defs>
       <use xlink:href="#DejaVuSans-34"/>
      </g>
     </g>
    </g>
    <g id="text_10">
     <!-- Time (s) -->
     <g style="fill: #262626" transform="translate(16.318125 179.882812) rotate(-90) scale(0.12 -0.12)">
      <defs>
       <path id="DejaVuSans-54" d="M -19 4666 
L 3928 4666 
L 3928 4134 
L 2272 4134 
L 2272 0 
L 1638 0 
L 1638 4134 
L -19 4134 
L -19 4666 
z
" transform="scale(0.015625)"/>
       <path id="DejaVuSans-6d" d="M 3328 2828 
Q 3544 3216 3844 3400 
Q 4144 3584 4550 3584 
Q 5097 3584 5394 3201 
Q 5691 2819 5691 2113 
L 5691 0 
L 5113 0 
L 5113 2094 
Q 5113 2597 4934 2840 
Q 4756 3084 4391 3084 
Q 3944 3084 3684 2787 
Q 3425 2491 3425 1978 
L 3425 0 
L 2847 0 
L 2847 2094 
Q 2847 2600 2669 2842 
Q 2491 3084 2119 3084 
Q 1678 3084 1418 2786 
Q 1159 2488 1159 1978 
L 1159 0 
L 581 0 
L 581 3500 
L 1159 3500 
L 1159 2956 
Q 1356 3278 1631 3431 
Q 1906 3584 2284 3584 
Q 2666 3584 2933 3390 
Q 3200 3197 3328 2828 
z
" transform="scale(0.015625)"/>
       <path id="DejaVuSans-28" d="M 1984 4856 
Q 1566 4138 1362 3434 
Q 1159 2731 1159 2009 
Q 1159 1288 1364 580 
Q 1569 -128 1984 -844 
L 1484 -844 
Q 1016 -109 783 600 
Q 550 1309 550 2009 
Q 550 2706 781 3412 
Q 1013 4119 1484 4856 
L 1984 4856 
z
" transform="scale(0.015625)"/>
       <path id="DejaVuSans-29" d="M 513 4856 
L 1013 4856 
Q 1481 4119 1714 3412 
Q 1947 2706 1947 2009 
Q 1947 1309 1714 600 
Q 1481 -109 1013 -844 
L 513 -844 
Q 928 -128 1133 580 
Q 1338 1288 1338 2009 
Q 1338 2731 1133 3434 
Q 928 4138 513 4856 
z
" transform="scale(0.015625)"/>
      </defs>
      <use xlink:href="#DejaVuSans-54"/>
      <use xlink:href="#DejaVuSans-69" x="57.958984"/>
      <use xlink:href="#DejaVuSans-6d" x="85.742188"/>
      <use xlink:href="#DejaVuSans-65" x="183.154297"/>
      <use xlink:href="#DejaVuSans-20" x="244.677734"/>
      <use xlink:href="#DejaVuSans-28" x="276.464844"/>
      <use xlink:href="#DejaVuSans-73" x="315.478516"/>
      <use xlink:href="#DejaVuSans-29" x="367.578125"/>
     </g>
    </g>
   </g>
   <g id="patch_3">
    <path d="M 52.6925 288.658125 
L 159.7325 288.658125 
L 159.7325 173.10353 
L 52.6925 173.10353 
z
" clip-path="url(#pc3f6fcd77f)" style="fill: #abc9ea; stroke: #ffffff; stroke-linejoin: miter"/>
   </g>
   <g id="patch_4">
    <path d="M 186.4925 288.658125 
L 293.5325 288.658125 
L 293.5325 169.742814 
L 186.4925 169.742814 
z
" clip-path="url(#pc3f6fcd77f)" style="fill: #abc9ea; stroke: #ffffff; stroke-linejoin: miter"/>
   </g>
   <g id="patch_5">
    <path d="M 320.2925 288.658125 
L 427.3325 288.658125 
L 427.3325 172.733891 
L 320.2925 172.733891 
z
" clip-path="url(#pc3f6fcd77f)" style="fill: #abc9ea; stroke: #ffffff; stroke-linejoin: miter"/>
   </g>
   <g id="line2d_1">
    <path d="M 106.2125 242.470919 
L 106.2125 35.000982 
" clip-path="url(#pc3f6fcd77f)" style="fill: none; stroke: #424242; stroke-width: 2.25; stroke-linecap: round"/>
   </g>
   <g id="line2d_2">
    <path d="M 240.0125 232.627071 
L 240.0125 44.076073 
" clip-path="url(#pc3f6fcd77f)" style="fill: none; stroke: #424242; stroke-width: 2.25; stroke-linecap: round"/>
   </g>
   <g id="line2d_3">
    <path d="M 373.8125 234.574841 
L 373.8125 49.511662 
" clip-path="url(#pc3f6fcd77f)" style="fill: none; stroke: #424242; stroke-width: 2.25; stroke-linecap: round"/>
   </g>
   <g id="text_11">
    <path d="M 94.866875 167.950405 
L 98.71625 167.950405 
L 98.71625 169.607905 
L 92.358125 169.607905 
L 92.358125 167.950405 
L 95.55125 165.130405 
Q 95.980625 164.744155 96.185 164.37478 
Q 96.389375 164.005405 96.389375 163.607905 
Q 96.389375 162.992905 95.976875 162.617905 
Q 95.564375 162.242905 94.878125 162.242905 
Q 94.35125 162.242905 93.723125 162.467905 
Q 93.096875 162.692905 92.3825 163.139155 
L 92.3825 161.21728 
Q 93.14375 160.96603 93.888125 160.83478 
Q 94.6325 160.701655 95.346875 160.701655 
Q 96.918125 160.701655 97.788125 161.39353 
Q 98.658125 162.08353 98.658125 163.32103 
Q 98.658125 164.035405 98.28875 164.654155 
Q 97.919375 165.27103 96.73625 166.30978 
L 94.866875 167.950405 
z
M 100.983359 167.34103 
L 103.092734 167.34103 
L 103.092734 169.607905 
L 100.983359 169.607905 
L 100.983359 167.34103 
z
M 109.837578 165.224155 
Q 109.837578 163.58353 109.530078 162.914155 
Q 109.222578 162.242905 108.495078 162.242905 
Q 107.769453 162.242905 107.458203 162.914155 
Q 107.146953 163.58353 107.146953 165.224155 
Q 107.146953 166.88353 107.458203 167.564155 
Q 107.769453 168.242905 108.495078 168.242905 
Q 109.216953 168.242905 109.526328 167.564155 
Q 109.837578 166.88353 109.837578 165.224155 
z
M 112.093203 165.242905 
Q 112.093203 167.41603 111.155703 168.59728 
Q 110.218203 169.77853 108.495078 169.77853 
Q 106.766328 169.77853 105.828828 168.59728 
Q 104.891328 167.41603 104.891328 165.242905 
Q 104.891328 163.06228 105.828828 161.882905 
Q 106.766328 160.701655 108.495078 160.701655 
Q 110.218203 160.701655 111.155703 161.882905 
Q 112.093203 163.06228 112.093203 165.242905 
z
M 113.938438 160.859155 
L 119.546563 160.859155 
L 119.546563 162.51853 
L 115.738438 162.51853 
L 115.738438 163.87228 
Q 115.995313 163.80103 116.255938 163.76353 
Q 116.516563 163.724155 116.797813 163.724155 
Q 118.397188 163.724155 119.287813 164.52478 
Q 120.178438 165.325405 120.178438 166.754155 
Q 120.178438 168.171655 119.209063 168.97603 
Q 118.239688 169.77853 116.516563 169.77853 
Q 115.772188 169.77853 115.042813 169.634155 
Q 114.313438 169.48978 113.593438 169.19728 
L 113.593438 167.421655 
Q 114.307813 167.83228 114.949063 168.03853 
Q 115.590313 168.242905 116.160313 168.242905 
Q 116.979688 168.242905 117.450313 167.841655 
Q 117.922813 167.440405 117.922813 166.754155 
Q 117.922813 166.06228 117.450313 165.66478 
Q 116.979688 165.265405 116.160313 165.265405 
Q 115.672813 165.265405 115.121563 165.392905 
Q 114.572188 165.51853 113.938438 165.78103 
L 113.938438 160.859155 
z
" style="fill: #abc9ea; stroke: #ffffff; stroke-width: 3"/>
    <path d="M 94.866875 167.950405 
L 98.71625 167.950405 
L 98.71625 169.607905 
L 92.358125 169.607905 
L 92.358125 167.950405 
L 95.55125 165.130405 
Q 95.980625 164.744155 96.185 164.37478 
Q 96.389375 164.005405 96.389375 163.607905 
Q 96.389375 162.992905 95.976875 162.617905 
Q 95.564375 162.242905 94.878125 162.242905 
Q 94.35125 162.242905 93.723125 162.467905 
Q 93.096875 162.692905 92.3825 163.139155 
L 92.3825 161.21728 
Q 93.14375 160.96603 93.888125 160.83478 
Q 94.6325 160.701655 95.346875 160.701655 
Q 96.918125 160.701655 97.788125 161.39353 
Q 98.658125 162.08353 98.658125 163.32103 
Q 98.658125 164.035405 98.28875 164.654155 
Q 97.919375 165.27103 96.73625 166.30978 
L 94.866875 167.950405 
z
M 100.983359 167.34103 
L 103.092734 167.34103 
L 103.092734 169.607905 
L 100.983359 169.607905 
L 100.983359 167.34103 
z
M 109.837578 165.224155 
Q 109.837578 163.58353 109.530078 162.914155 
Q 109.222578 162.242905 108.495078 162.242905 
Q 107.769453 162.242905 107.458203 162.914155 
Q 107.146953 163.58353 107.146953 165.224155 
Q 107.146953 166.88353 107.458203 167.564155 
Q 107.769453 168.242905 108.495078 168.242905 
Q 109.216953 168.242905 109.526328 167.564155 
Q 109.837578 166.88353 109.837578 165.224155 
z
M 112.093203 165.242905 
Q 112.093203 167.41603 111.155703 168.59728 
Q 110.218203 169.77853 108.495078 169.77853 
Q 106.766328 169.77853 105.828828 168.59728 
Q 104.891328 167.41603 104.891328 165.242905 
Q 104.891328 163.06228 105.828828 161.882905 
Q 106.766328 160.701655 108.495078 160.701655 
Q 110.218203 160.701655 111.155703 161.882905 
Q 112.093203 163.06228 112.093203 165.242905 
z
M 113.938438 160.859155 
L 119.546563 160.859155 
L 119.546563 162.51853 
L 115.738438 162.51853 
L 115.738438 163.87228 
Q 115.995313 163.80103 116.255938 163.76353 
Q 116.516563 163.724155 116.797813 163.724155 
Q 118.397188 163.724155 119.287813 164.52478 
Q 120.178438 165.325405 120.178438 166.754155 
Q 120.178438 168.171655 119.209063 168.97603 
Q 118.239688 169.77853 116.516563 169.77853 
Q 115.772188 169.77853 115.042813 169.634155 
Q 114.313438 169.48978 113.593438 169.19728 
L 113.593438 167.421655 
Q 114.307813 167.83228 114.949063 168.03853 
Q 115.590313 168.242905 116.160313 168.242905 
Q 116.979688 168.242905 117.450313 167.841655 
Q 117.922813 167.440405 117.922813 166.754155 
Q 117.922813 166.06228 117.450313 165.66478 
Q 116.979688 165.265405 116.160313 165.265405 
Q 115.672813 165.265405 115.121563 165.392905 
Q 114.572188 165.51853 113.938438 165.78103 
L 113.938438 160.859155 
z
" style="fill: #abc9ea"/>
   </g>
   <g id="text_12">
    <path d="M 228.666875 164.589689 
L 232.51625 164.589689 
L 232.51625 166.247189 
L 226.158125 166.247189 
L 226.158125 164.589689 
L 229.35125 161.769689 
Q 229.780625 161.383439 229.985 161.014064 
Q 230.189375 160.644689 230.189375 160.247189 
Q 230.189375 159.632189 229.776875 159.257189 
Q 229.364375 158.882189 228.678125 158.882189 
Q 228.15125 158.882189 227.523125 159.107189 
Q 226.896875 159.332189 226.1825 159.778439 
L 226.1825 157.856564 
Q 226.94375 157.605314 227.688125 157.474064 
Q 228.4325 157.340939 229.146875 157.340939 
Q 230.718125 157.340939 231.588125 158.032814 
Q 232.458125 158.722814 232.458125 159.960314 
Q 232.458125 160.674689 232.08875 161.293439 
Q 231.719375 161.910314 230.53625 162.949064 
L 228.666875 164.589689 
z
M 234.783359 163.980314 
L 236.892734 163.980314 
L 236.892734 166.247189 
L 234.783359 166.247189 
L 234.783359 163.980314 
z
M 239.523828 164.689064 
L 241.516953 164.689064 
L 241.516953 159.034064 
L 239.471328 159.455939 
L 239.471328 157.920314 
L 241.503828 157.498439 
L 243.648828 157.498439 
L 243.648828 164.689064 
L 245.641953 164.689064 
L 245.641953 166.247189 
L 239.523828 166.247189 
L 239.523828 164.689064 
z
M 251.987188 161.863439 
Q 251.987188 160.222814 251.679688 159.553439 
Q 251.372188 158.882189 250.644688 158.882189 
Q 249.919063 158.882189 249.607813 159.553439 
Q 249.296563 160.222814 249.296563 161.863439 
Q 249.296563 163.522814 249.607813 164.203439 
Q 249.919063 164.882189 250.644688 164.882189 
Q 251.366563 164.882189 251.675938 164.203439 
Q 251.987188 163.522814 251.987188 161.863439 
z
M 254.242813 161.882189 
Q 254.242813 164.055314 253.305313 165.236564 
Q 252.367813 166.417814 250.644688 166.417814 
Q 248.915938 166.417814 247.978438 165.236564 
Q 247.040938 164.055314 247.040938 161.882189 
Q 247.040938 159.701564 247.978438 158.522189 
Q 248.915938 157.340939 250.644688 157.340939 
Q 252.367813 157.340939 253.305313 158.522189 
Q 254.242813 159.701564 254.242813 161.882189 
z
" style="fill: #abc9ea; stroke: #ffffff; stroke-width: 3"/>
    <path d="M 228.666875 164.589689 
L 232.51625 164.589689 
L 232.51625 166.247189 
L 226.158125 166.247189 
L 226.158125 164.589689 
L 229.35125 161.769689 
Q 229.780625 161.383439 229.985 161.014064 
Q 230.189375 160.644689 230.189375 160.247189 
Q 230.189375 159.632189 229.776875 159.257189 
Q 229.364375 158.882189 228.678125 158.882189 
Q 228.15125 158.882189 227.523125 159.107189 
Q 226.896875 159.332189 226.1825 159.778439 
L 226.1825 157.856564 
Q 226.94375 157.605314 227.688125 157.474064 
Q 228.4325 157.340939 229.146875 157.340939 
Q 230.718125 157.340939 231.588125 158.032814 
Q 232.458125 158.722814 232.458125 159.960314 
Q 232.458125 160.674689 232.08875 161.293439 
Q 231.719375 161.910314 230.53625 162.949064 
L 228.666875 164.589689 
z
M 234.783359 163.980314 
L 236.892734 163.980314 
L 236.892734 166.247189 
L 234.783359 166.247189 
L 234.783359 163.980314 
z
M 239.523828 164.689064 
L 241.516953 164.689064 
L 241.516953 159.034064 
L 239.471328 159.455939 
L 239.471328 157.920314 
L 241.503828 157.498439 
L 243.648828 157.498439 
L 243.648828 164.689064 
L 245.641953 164.689064 
L 245.641953 166.247189 
L 239.523828 166.247189 
L 239.523828 164.689064 
z
M 251.987188 161.863439 
Q 251.987188 160.222814 251.679688 159.553439 
Q 251.372188 158.882189 250.644688 158.882189 
Q 249.919063 158.882189 249.607813 159.553439 
Q 249.296563 160.222814 249.296563 161.863439 
Q 249.296563 163.522814 249.607813 164.203439 
Q 249.919063 164.882189 250.644688 164.882189 
Q 251.366563 164.882189 251.675938 164.203439 
Q 251.987188 163.522814 251.987188 161.863439 
z
M 254.242813 161.882189 
Q 254.242813 164.055314 253.305313 165.236564 
Q 252.367813 166.417814 250.644688 166.417814 
Q 248.915938 166.417814 247.978438 165.236564 
Q 247.040938 164.055314 247.040938 161.882189 
Q 247.040938 159.701564 247.978438 158.522189 
Q 248.915938 157.340939 250.644688 157.340939 
Q 252.367813 157.340939 253.305313 158.522189 
Q 254.242813 159.701564 254.242813 161.882189 
z
" style="fill: #abc9ea"/>
   </g>
   <g id="text_13">
    <path d="M 362.466875 167.580766 
L 366.31625 167.580766 
L 366.31625 169.238266 
L 359.958125 169.238266 
L 359.958125 167.580766 
L 363.15125 164.760766 
Q 363.580625 164.374516 363.785 164.005141 
Q 363.989375 163.635766 363.989375 163.238266 
Q 363.989375 162.623266 363.576875 162.248266 
Q 363.164375 161.873266 362.478125 161.873266 
Q 361.95125 161.873266 361.323125 162.098266 
Q 360.696875 162.323266 359.9825 162.769516 
L 359.9825 160.847641 
Q 360.74375 160.596391 361.488125 160.465141 
Q 362.2325 160.332016 362.946875 160.332016 
Q 364.518125 160.332016 365.388125 161.023891 
Q 366.258125 161.713891 366.258125 162.951391 
Q 366.258125 163.665766 365.88875 164.284516 
Q 365.519375 164.901391 364.33625 165.940141 
L 362.466875 167.580766 
z
M 368.583359 166.971391 
L 370.692734 166.971391 
L 370.692734 169.238266 
L 368.583359 169.238266 
L 368.583359 166.971391 
z
M 377.437578 164.854516 
Q 377.437578 163.213891 377.130078 162.544516 
Q 376.822578 161.873266 376.095078 161.873266 
Q 375.369453 161.873266 375.058203 162.544516 
Q 374.746953 163.213891 374.746953 164.854516 
Q 374.746953 166.513891 375.058203 167.194516 
Q 375.369453 167.873266 376.095078 167.873266 
Q 376.816953 167.873266 377.126328 167.194516 
Q 377.437578 166.513891 377.437578 164.854516 
z
M 379.693203 164.873266 
Q 379.693203 167.046391 378.755703 168.227641 
Q 377.818203 169.408891 376.095078 169.408891 
Q 374.366328 169.408891 373.428828 168.227641 
Q 372.491328 167.046391 372.491328 164.873266 
Q 372.491328 162.692641 373.428828 161.513266 
Q 374.366328 160.332016 376.095078 160.332016 
Q 377.818203 160.332016 378.755703 161.513266 
Q 379.693203 162.692641 379.693203 164.873266 
z
M 381.538437 160.489516 
L 387.146562 160.489516 
L 387.146562 162.148891 
L 383.338437 162.148891 
L 383.338437 163.502641 
Q 383.595312 163.431391 383.855937 163.393891 
Q 384.116562 163.354516 384.397812 163.354516 
Q 385.997187 163.354516 386.887812 164.155141 
Q 387.778437 164.955766 387.778437 166.384516 
Q 387.778437 167.802016 386.809062 168.606391 
Q 385.839687 169.408891 384.116562 169.408891 
Q 383.372187 169.408891 382.642812 169.264516 
Q 381.913437 169.120141 381.193437 168.827641 
L 381.193437 167.052016 
Q 381.907812 167.462641 382.549062 167.668891 
Q 383.190313 167.873266 383.760312 167.873266 
Q 384.579687 167.873266 385.050312 167.472016 
Q 385.522812 167.070766 385.522812 166.384516 
Q 385.522812 165.692641 385.050312 165.295141 
Q 384.579687 164.895766 383.760312 164.895766 
Q 383.272812 164.895766 382.721563 165.023266 
Q 382.172187 165.148891 381.538437 165.411391 
L 381.538437 160.489516 
z
" style="fill: #abc9ea; stroke: #ffffff; stroke-width: 3"/>
    <path d="M 362.466875 167.580766 
L 366.31625 167.580766 
L 366.31625 169.238266 
L 359.958125 169.238266 
L 359.958125 167.580766 
L 363.15125 164.760766 
Q 363.580625 164.374516 363.785 164.005141 
Q 363.989375 163.635766 363.989375 163.238266 
Q 363.989375 162.623266 363.576875 162.248266 
Q 363.164375 161.873266 362.478125 161.873266 
Q 361.95125 161.873266 361.323125 162.098266 
Q 360.696875 162.323266 359.9825 162.769516 
L 359.9825 160.847641 
Q 360.74375 160.596391 361.488125 160.465141 
Q 362.2325 160.332016 362.946875 160.332016 
Q 364.518125 160.332016 365.388125 161.023891 
Q 366.258125 161.713891 366.258125 162.951391 
Q 366.258125 163.665766 365.88875 164.284516 
Q 365.519375 164.901391 364.33625 165.940141 
L 362.466875 167.580766 
z
M 368.583359 166.971391 
L 370.692734 166.971391 
L 370.692734 169.238266 
L 368.583359 169.238266 
L 368.583359 166.971391 
z
M 377.437578 164.854516 
Q 377.437578 163.213891 377.130078 162.544516 
Q 376.822578 161.873266 376.095078 161.873266 
Q 375.369453 161.873266 375.058203 162.544516 
Q 374.746953 163.213891 374.746953 164.854516 
Q 374.746953 166.513891 375.058203 167.194516 
Q 375.369453 167.873266 376.095078 167.873266 
Q 376.816953 167.873266 377.126328 167.194516 
Q 377.437578 166.513891 377.437578 164.854516 
z
M 379.693203 164.873266 
Q 379.693203 167.046391 378.755703 168.227641 
Q 377.818203 169.408891 376.095078 169.408891 
Q 374.366328 169.408891 373.428828 168.227641 
Q 372.491328 167.046391 372.491328 164.873266 
Q 372.491328 162.692641 373.428828 161.513266 
Q 374.366328 160.332016 376.095078 160.332016 
Q 377.818203 160.332016 378.755703 161.513266 
Q 379.693203 162.692641 379.693203 164.873266 
z
M 381.538437 160.489516 
L 387.146562 160.489516 
L 387.146562 162.148891 
L 383.338437 162.148891 
L 383.338437 163.502641 
Q 383.595312 163.431391 383.855937 163.393891 
Q 384.116562 163.354516 384.397812 163.354516 
Q 385.997187 163.354516 386.887812 164.155141 
Q 387.778437 164.955766 387.778437 166.384516 
Q 387.778437 167.802016 386.809062 168.606391 
Q 385.839687 169.408891 384.116562 169.408891 
Q 383.372187 169.408891 382.642812 169.264516 
Q 381.913437 169.120141 381.193437 168.827641 
L 381.193437 167.052016 
Q 381.907812 167.462641 382.549062 167.668891 
Q 383.190313 167.873266 383.760312 167.873266 
Q 384.579687 167.873266 385.050312 167.472016 
Q 385.522812 167.070766 385.522812 166.384516 
Q 385.522812 165.692641 385.050312 165.295141 
Q 384.579687 164.895766 383.760312 164.895766 
Q 383.272812 164.895766 382.721563 165.023266 
Q 382.172187 165.148891 381.538437 165.411391 
L 381.538437 160.489516 
z
" style="fill: #abc9ea"/>
   </g>
   <g id="text_14">
    <!-- Add -->
    <g style="fill: #262626" transform="translate(228.395 16.318125) scale(0.12 -0.12)">
     <defs>
      <path id="DejaVuSans-41" d="M 2188 4044 
L 1331 1722 
L 3047 1722 
L 2188 4044 
z
M 1831 4666 
L 2547 4666 
L 4325 0 
L 3669 0 
L 3244 1197 
L 1141 1197 
L 716 0 
L 50 0 
L 1831 4666 
z
" transform="scale(0.015625)"/>
      <path id="DejaVuSans-64" d="M 2906 2969 
L 2906 4863 
L 3481 4863 
L 3481 0 
L 2906 0 
L 2906 525 
Q 2725 213 2448 61 
Q 2172 -91 1784 -91 
Q 1150 -91 751 415 
Q 353 922 353 1747 
Q 353 2572 751 3078 
Q 1150 3584 1784 3584 
Q 2172 3584 2448 3432 
Q 2725 3281 2906 2969 
z
M 947 1747 
Q 947 1113 1208 752 
Q 1469 391 1925 391 
Q 2381 391 2643 752 
Q 2906 1113 2906 1747 
Q 2906 2381 2643 2742 
Q 2381 3103 1925 3103 
Q 1469 3103 1208 2742 
Q 947 2381 947 1747 
z
" transform="scale(0.015625)"/>
     </defs>
     <use xlink:href="#DejaVuSans-41"/>
     <use xlink:href="#DejaVuSans-64" x="66.658203"/>
     <use xlink:href="#DejaVuSans-64" x="130.134766"/>
    </g>
   </g>
  </g>
 </g>
 <defs>
  <clipPath id="pc3f6fcd77f">
   <rect x="39.3125" y="22.318125" width="401.4" height="266.34"/>
  </clipPath>
 </defs>
</svg>
